<?xml version="1.0" encoding="utf-8"?>
<!-- Generator: Adobe Illustrator 19.0.0, SVG Export Plug-In . SVG Version: 6.00 Build 0)  -->
<svg version="1.1" id="Layer_1" xmlns="http://www.w3.org/2000/svg" xmlns:xlink="http://www.w3.org/1999/xlink" x="0px" y="0px"
	 viewBox="0 0 1440 1024" style="enable-background:new 0 0 1440 1024;" xml:space="preserve">
<style type="text/css">
	.st0{fill:#0098ff;}
	.st1{fill:#F7941E;}
</style>
<rect id="XMLID_14_" width="1440" height="1024" fill="#f8f9fa"/>
<g id="XMLID_1634_">
	<path id="XMLID_1949_" class="st0" d="M669.8,746.5c0,0,117.7,26.6,191.3-45.8c0,0-174.6,97.8-296-76.5c0,0-45.8-62.2-16.1-198
		c0,0-10,3.8-17.6,12.5c0,0-8.1-21.7,22.3-61.6c0,0-3,0.8-6.4,4.5c0,0-2.5-7.4,8.3-22.7c0,0-50.3,40.5-59.6,119.9
		c0,0,8.9-36.4,15.2-41.4c0,0-17.9,30.6-17.9,114.7c0,0-6.8-22.1-4-38.5c0,0-8.2,39.9,2.3,69.3c0,0-24.9-46,9.9-154.7
		c0,0-10.1,2.8-18.5,61.8c0,0-2.3-114.4,131.5-192.5c0,0-28.4,9.8-73.4,45.8c0,0,37.4-34,42.9-39.5c0,0,3.8-6.4-9.3,0.8
		c0,0-174.1,92.5-97.6,290.1C476.8,594.8,513.5,717.7,669.8,746.5z M659.2,720.5c0,0-104.9-6.2-134.4-111.5
		C524.9,609,555.6,693,659.2,720.5z"/>
	<path id="XMLID_1946_" class="st0" d="M544.1,465.8c0-1.1,8.5-40.5,20.7-50.4c0,0-18.7,10.2-20.7,49.2
		C542.1,503.7,544.1,465.8,544.1,465.8z"/>
	<path id="XMLID_1943_" class="st0" d="M581.5,386.5c0,0,7.4-9.3,9.1-9.9c0,0-11,4-11,7.6L581.5,386.5z"/>
	<path id="XMLID_1940_" class="st0" d="M601.6,316.1c1.2-0.4,1.9-0.6,1.9-0.6C603.1,315.5,602.4,315.7,601.6,316.1z"/>
	<path id="XMLID_1937_" class="st0" d="M551.2,354.3c0,0,39.6-33.3,50.4-38.2C595.1,318.3,573.1,327.4,551.2,354.3z"/>
	<path id="XMLID_1934_" class="st0" d="M766,284.9c0,0-80.3-33.2-149.4,9.6C616.6,294.6,684.8,267.7,766,284.9z"/>
	<path id="XMLID_1931_" class="st0" d="M615.4,318.9c0,0,44.7-23.5,79.5-25.8C695,293.2,643.7,290.6,615.4,318.9z"/>
	<path id="XMLID_1928_" class="st0" d="M681.4,316.9c0,0-11.5-2.1-17.4,4l1.5,2.3C665.5,323.2,674.8,316.2,681.4,316.9z"/>
	<path id="XMLID_1925_" class="st0" d="M610.4,354.2c-0.6,0.7-0.5,1.7,0.3,2.2c0.5,0.3,1.2,0.3,1.7-0.1l4.5-3.3
		c0.8-0.6,0.8-1.7,0-2.3L616,350c-0.6-0.5-1.5-0.4-2,0.2L610.4,354.2z"/>
	<polygon id="XMLID_1924_" class="st1" points="852.5,351.2 854.9,352.9 854,355.8 856.4,354 858.8,355.8 857.9,352.9 860.3,351.2 
		857.3,351.2 856.4,348.3 855.5,351.2 	"/>
	<polygon id="XMLID_1923_" class="st1" points="877.3,352.7 876.6,354.8 874.3,354.8 876.2,356.1 875.5,358.3 877.3,357 
		879.1,358.3 878.4,356.1 880.2,354.8 878,354.8 	"/>
	<polygon id="XMLID_1922_" class="st1" points="891.4,335.4 893.4,333.9 895.5,335.4 894.7,333 896.7,331.5 894.2,331.5 
		893.4,329.1 892.6,331.5 890.1,331.5 892.2,333 	"/>
	<polygon id="XMLID_1921_" class="st1" points="930.2,350.9 932.7,349.1 935.2,350.9 934.3,347.9 936.8,346.1 933.7,346.1 
		932.7,343.1 931.7,346.1 928.6,346.1 931.1,347.9 	"/>
	<polygon id="XMLID_1920_" class="st1" points="924.3,392.2 922.7,397.3 927,394.2 931.3,397.3 929.6,392.2 933.9,389.1 
		928.6,389.1 927,384 925.3,389.1 920,389.1 	"/>
	<polygon id="XMLID_1919_" class="st1" points="932.7,399.9 931.8,402.5 929.1,402.5 931.3,404.1 930.5,406.7 932.7,405.1 
		934.9,406.7 934.1,404.1 936.3,402.5 933.5,402.5 	"/>
	<polygon id="XMLID_1918_" class="st1" points="941,388.7 944.4,386.3 947.8,388.7 946.5,384.7 949.9,382.3 945.7,382.3 
		944.4,378.3 943.1,382.3 938.9,382.3 942.3,384.7 	"/>
	<polygon id="XMLID_1917_" class="st1" points="903.5,430.3 899.2,430.3 902.7,432.8 901.3,437 904.9,434.4 908.4,437 907.1,432.8 
		910.6,430.3 906.2,430.3 904.9,426.1 	"/>
	<polygon id="XMLID_1916_" class="st1" points="909.9,430.1 914.6,426.7 919.4,430.1 917.6,424.6 922.3,421.1 916.4,421.1 
		914.6,415.6 912.8,421.1 907,421.1 911.7,424.6 	"/>
	<polygon id="XMLID_1915_" class="st1" points="936,441.7 934.3,447.1 938.9,443.8 943.4,447.1 941.7,441.7 946.3,438.4 
		940.6,438.4 938.9,433 937.1,438.4 931.4,438.4 	"/>
	<polygon id="XMLID_1914_" class="st1" points="960.5,411.4 962.8,409.7 965.2,411.4 964.3,408.6 966.6,406.9 963.7,406.9 
		962.8,404.1 961.9,406.9 959,406.9 961.4,408.6 	"/>
	<polygon id="XMLID_1913_" class="st1" points="938.9,462.6 937.4,466.9 932.9,466.9 936.6,469.6 935.2,473.9 938.9,471.2 
		942.5,473.9 941.1,469.6 944.8,466.9 940.3,466.9 	"/>
	<polygon id="XMLID_1912_" class="st1" points="964.1,457.4 962.1,463.7 955.4,463.7 960.8,467.6 958.7,473.9 964.1,470 
		969.5,473.9 967.4,467.6 972.8,463.7 966.1,463.7 	"/>
	<polygon id="XMLID_1911_" class="st1" points="937.9,493.5 936.3,488.4 934.6,493.5 929.3,493.5 933.6,496.7 931.9,501.8 
		936.3,498.6 940.6,501.8 939,496.7 943.3,493.5 	"/>
	<polygon id="XMLID_1910_" class="st1" points="967.1,492.9 971.3,495.9 969.7,500.8 973.9,497.8 978,500.8 976.4,495.9 
		980.6,492.9 975.5,492.9 973.9,488 972.3,492.9 	"/>
	<polygon id="XMLID_1909_" class="st1" points="961.1,535.4 959,528.9 956.9,535.4 950.2,535.4 955.7,539.3 953.6,545.8 959,541.8 
		964.5,545.8 962.4,539.3 967.9,535.4 	"/>
	<polygon id="XMLID_1908_" class="st1" points="911.1,581.8 917.6,577.1 909.5,577.1 907,569.4 904.5,577.1 896.5,577.1 903,581.8 
		900.5,589.5 907,584.7 913.6,589.5 	"/>
	<polygon id="XMLID_1907_" class="st1" points="930.1,585.8 929,589.2 925.5,589.2 928.4,591.2 927.3,594.6 930.1,592.5 933,594.6 
		931.9,591.2 934.8,589.2 931.2,589.2 	"/>
	<polygon id="XMLID_1906_" class="st1" points="905.5,530.5 904.3,534.2 900.4,534.2 903.5,536.5 902.3,540.3 905.5,538 
		908.7,540.3 907.5,536.5 910.7,534.2 906.7,534.2 	"/>
	<polygon id="XMLID_1905_" class="st1" points="929.4,548.7 928.2,545.1 927.1,548.7 923.2,548.7 926.3,551 925.1,554.6 
		928.2,552.3 931.3,554.6 930.1,551 933.2,548.7 	"/>
	<polygon id="XMLID_1904_" class="st1" points="930.1,614.6 933,616.7 931.9,613.3 934.8,611.2 931.2,611.2 930.1,607.9 
		929.1,611.2 925.5,611.2 928.4,613.3 927.3,616.7 	"/>
	<polygon id="XMLID_1903_" class="st1" points="896.5,598.4 894.9,603.3 889.7,603.3 893.9,606.4 892.3,611.3 896.5,608.3 
		900.7,611.3 899.1,606.4 903.3,603.3 898.1,603.3 	"/>
	<polygon id="XMLID_1902_" class="st1" points="876.7,644.5 880.4,647.2 879,642.8 882.7,640.1 878.1,640.1 876.7,635.7 
		875.2,640.1 870.6,640.1 874.3,642.8 872.9,647.2 	"/>
	<polygon id="XMLID_1901_" class="st1" points="900.8,655.8 898.7,649.5 896.7,655.8 890.1,655.8 895.4,659.7 893.4,665.9 
		898.7,662.1 904.1,665.9 902,659.7 907.4,655.8 	"/>
	<polygon id="XMLID_1900_" class="st1" points="919.7,644.2 917.6,637.6 915.4,644.2 908.5,644.2 914.1,648.3 912,654.9 
		917.6,650.8 923.2,654.9 921.1,648.3 926.7,644.2 	"/>
	<polygon id="XMLID_1899_" class="st1" points="885.6,675.3 884.5,671.8 883.4,675.3 879.7,675.3 882.7,677.4 881.6,680.9 
		884.5,678.8 887.5,680.9 886.3,677.4 889.3,675.3 	"/>
	<polygon id="XMLID_1898_" class="st1" points="825.4,711.2 828.9,708.6 832.4,711.2 831.1,707.1 834.5,704.5 830.2,704.5 
		828.9,700.4 827.6,704.5 823.2,704.5 826.7,707.1 	"/>
	<polygon id="XMLID_1897_" class="st1" points="826.4,678.8 828.9,677 831.4,678.8 830.5,675.9 833,674 829.9,674 828.9,671.1 
		827.9,674 824.8,674 827.3,675.9 	"/>
	<polygon id="XMLID_1896_" class="st1" points="861.1,689.3 864.2,691.6 863,687.9 866.2,685.6 862.3,685.6 861.1,681.9 
		859.9,685.6 856,685.6 859.1,687.9 857.9,691.6 	"/>
	<polygon id="XMLID_1895_" class="st1" points="851.2,316.9 850.3,319.5 852.5,317.9 854.6,319.5 853.8,316.9 856,315.4 
		853.3,315.4 852.5,312.8 851.7,315.4 849,315.4 	"/>
	<polygon id="XMLID_1894_" class="st1" points="811.2,313 813.3,311.5 815.3,313 814.5,310.5 816.6,309 814,309 813.3,306.6 
		812.5,309 809.9,309 812,310.5 	"/>
	<circle id="XMLID_1891_" class="st0" cx="779.6" cy="279.9" r="2.9"/>
	<circle id="XMLID_1888_" class="st0" cx="815.4" cy="291.6" r="2.5"/>
	<circle id="XMLID_1885_" class="st0" cx="830.4" cy="299.9" r="4"/>
	<circle id="XMLID_1882_" class="st0" cx="847.8" cy="306" r="3.1"/>
	<circle id="XMLID_1879_" class="st0" cx="837.3" cy="320.7" r="2.5"/>
	<circle id="XMLID_1876_" class="st0" cx="867.2" cy="322" r="5.7"/>
	<circle id="XMLID_1873_" class="st0" cx="874.3" cy="338.3" r="4.2"/>
	<circle id="XMLID_1870_" class="st0" cx="886.8" cy="350.9" r="3.4"/>
	<circle id="XMLID_1867_" class="st0" cx="872.8" cy="373.7" r="4.6"/>
	<circle id="XMLID_1864_" class="st0" cx="888.7" cy="418.1" r="3.7"/>
	<circle id="XMLID_1861_" class="st0" cx="898.6" cy="366.6" r="4.7"/>
	<circle id="XMLID_1858_" class="st0" cx="902.1" cy="378.3" r="3.3"/>
	<circle id="XMLID_1855_" class="st0" cx="912.7" cy="379" r="4.4"/>
	<circle id="XMLID_1852_" class="st0" cx="920" cy="369.1" r="4.6"/>
	<circle id="XMLID_1849_" class="st0" cx="913.7" cy="349.6" r="2.4"/>
	<circle id="XMLID_1846_" class="st0" cx="920" cy="402.1" r="3.4"/>
	<circle id="XMLID_1843_" class="st0" cx="953.2" cy="387.4" r="3.3"/>
	<circle id="XMLID_1840_" class="st0" cx="946.3" cy="417.3" r="3"/>
	<circle id="XMLID_1837_" class="st0" cx="933.9" cy="423.5" r="2.6"/>
	<circle id="XMLID_1834_" class="st0" cx="903.7" cy="449.5" r="3.4"/>
	<circle id="XMLID_1831_" class="st0" cx="923.5" cy="454.2" r="3.8"/>
	<circle id="XMLID_1828_" class="st0" cx="956.5" cy="443" r="4.1"/>
	<circle id="XMLID_1825_" class="st0" cx="978.7" cy="440.9" r="4"/>
	<circle id="XMLID_1822_" class="st0" cx="951.1" cy="463.7" r="3.1"/>
	<circle id="XMLID_1819_" class="st0" cx="929.3" cy="471" r="4"/>
	<circle id="XMLID_1816_" class="st0" cx="913.4" cy="483.9" r="3.4"/>
	<circle id="XMLID_1813_" class="st0" cx="931.4" cy="485.9" r="3.5"/>
	<circle id="XMLID_1810_" class="st0" cx="952.3" cy="491" r="4.8"/>
	<circle id="XMLID_1807_" class="st0" cx="949.2" cy="504.6" r="4.7"/>
	<circle id="XMLID_1804_" class="st0" cx="958.2" cy="508.4" r="3.7"/>
	<circle id="XMLID_1801_" class="st0" cx="923.5" cy="507.3" r="3.8"/>
	<circle id="XMLID_1798_" class="st0" cx="913.4" cy="500.8" r="4.1"/>
	<circle id="XMLID_1795_" class="st0" cx="917.6" cy="514.2" r="2.1"/>
	<circle id="XMLID_1792_" class="st0" cx="923.5" cy="521.1" r="2"/>
	<circle id="XMLID_1789_" class="st0" cx="935.7" cy="515" r="3.4"/>
	<circle id="XMLID_1786_" class="st0" cx="953.3" cy="521.1" r="5.4"/>
	<circle id="XMLID_1783_" class="st0" cx="968.6" cy="525.2" r="3.7"/>
	<circle id="XMLID_1780_" class="st0" cx="961.1" cy="525.2" r="2.1"/>
	<circle id="XMLID_1777_" class="st0" cx="932.9" cy="527.3" r="4.7"/>
	<circle id="XMLID_1774_" class="st0" cx="946.3" cy="538.2" r="3.7"/>
	<circle id="XMLID_1771_" class="st0" cx="915.5" cy="533.9" r="4.4"/>
	<circle id="XMLID_1768_" class="st0" cx="882.5" cy="530.5" r="2.5"/>
	<circle id="XMLID_1765_" class="st0" cx="885" cy="545.8" r="4.6"/>
	<circle id="XMLID_1762_" class="st0" cx="887.5" cy="570.1" r="4.2"/>
	<circle id="XMLID_1759_" class="st0" cx="914" cy="565.8" r="3.6"/>
	<circle id="XMLID_1756_" class="st0" cx="928.2" cy="574.3" r="5.1"/>
	<circle id="XMLID_1753_" class="st0" cx="938.9" cy="568.1" r="4.5"/>
	<circle id="XMLID_1750_" class="st0" cx="948.8" cy="570.1" r="4.2"/>
	<circle id="XMLID_1747_" class="st0" cx="949.9" cy="557.6" r="2.8"/>
	<circle id="XMLID_1744_" class="st0" cx="967.9" cy="557.1" r="4.5"/>
	<circle id="XMLID_1741_" class="st0" cx="957.9" cy="578.9" r="3.4"/>
	<circle id="XMLID_1738_" class="st0" cx="942.6" cy="587.5" r="2.8"/>
	<circle id="XMLID_1735_" class="st0" cx="921.5" cy="585.8" r="3.7"/>
	<circle id="XMLID_1732_" class="st0" cx="882.5" cy="581" r="2"/>
	<circle id="XMLID_1729_" class="st0" cx="892.9" cy="564.8" r="2"/>
	<circle id="XMLID_1726_" class="st0" cx="901.4" cy="591.3" r="1.9"/>
	<circle id="XMLID_1723_" class="st0" cx="890.1" cy="598.4" r="2.3"/>
	<circle id="XMLID_1720_" class="st0" cx="869.6" cy="604.8" r="3"/>
	<circle id="XMLID_1717_" class="st0" cx="874" cy="610.4" r="2.7"/>
	<circle id="XMLID_1714_" class="st0" cx="887.5" cy="620.6" r="2.8"/>
	<circle id="XMLID_1711_" class="st0" cx="912.6" cy="605.5" r="3.7"/>
	<circle id="XMLID_1708_" class="st0" cx="933.3" cy="601.8" r="3.7"/>
	<circle id="XMLID_1705_" class="st0" cx="951.7" cy="599.9" r="3.4"/>
	<circle id="XMLID_1702_" class="st0" cx="963.4" cy="589.4" r="2.7"/>
	<circle id="XMLID_1699_" class="st0" cx="934.8" cy="626.3" r="4"/>
	<circle id="XMLID_1696_" class="st0" cx="917.8" cy="621.4" r="4.1"/>
	<circle id="XMLID_1693_" class="st0" cx="919.8" cy="634" r="2.1"/>
	<circle id="XMLID_1690_" class="st0" cx="910.5" cy="630.2" r="3"/>
	<circle id="XMLID_1687_" class="st0" cx="901.4" cy="629.5" r="3.7"/>
	<circle id="XMLID_1684_" class="st0" cx="893.3" cy="642.8" r="3.1"/>
	<circle id="XMLID_1681_" class="st0" cx="867.2" cy="633.2" r="2.5"/>
	<circle id="XMLID_1678_" class="st0" cx="863.5" cy="654.1" r="2.5"/>
	<circle id="XMLID_1663_" class="st0" cx="877.9" cy="659.2" r="3"/>
	<circle id="XMLID_1660_" class="st0" cx="867.2" cy="673.2" r="3.4"/>
	<circle id="XMLID_1657_" class="st0" cx="850.8" cy="675" r="3.9"/>
	<circle id="XMLID_1654_" class="st0" cx="842.4" cy="679.6" r="1.4"/>
	<circle id="XMLID_1650_" class="st0" cx="827.7" cy="686.7" r="1.2"/>
	<circle id="XMLID_1647_" class="st0" cx="844.7" cy="702.2" r="1.4"/>
	<circle id="XMLID_1644_" class="st0" cx="853.4" cy="696.6" r="3.3"/>
	<circle id="XMLID_1641_" class="st0" cx="864.7" cy="695" r="2.8"/>
	<circle id="XMLID_1638_" class="st0" cx="879.7" cy="687.9" r="2.8"/>
	<path id="XMLID_1637_" class="st1" d="M722.4,443.9c-17-21-14.4-50.3,5.9-65.3c5.3-3.9,6.1-3.7,8.2,2.5c0.4,1.1,0.6,2.3,0.9,3.5
		c2.2,7.4,0.7,15,1.6,23.5c4.3-6.2,5.7-12.4,6.4-18.7c1.5-12.2-0.6-23.6-7.5-34c-2-3-4.4-5.2-7.1-0.4c-6.3,10.8-14.2,20.4-21.7,30.4
		c-22,29.4-21,63.6,2.7,91.6c11.5,13.6,24.2,25.9,36.4,38.8c9.4,10,17.7,20.8,23.5,33.4c6.5,14.1,9,28.6,6,43.9
		c-3.6,18.6-14.3,32.8-27.9,45.2c1.4,1,2.5,0.2,3.8-0.6c9-5.4,17.3-11.7,25.2-18.6c29.6-26.2,36-64.1,16.8-98.7
		c-9.4-16.9-23.3-29.7-37.2-42.5C746.1,466.8,732.9,456.8,722.4,443.9z"/>
	<path id="XMLID_1636_" class="st1" d="M648.3,477.8c-23.7,30.6-23,66.9,1.8,96.5c10.9,13,25.3,21.6,38.6,31.7
		c20.8,15.8,39.3,33.4,43.2,62.5c1.9-13.9,1.6-26.4-1.3-38.9c-4.8-20.7-17.6-36.1-32.8-50.1c-8.7-8.1-17.6-16-25-25.3
		c-16.1-20.4-22.6-42.8-13.9-68.2c4.9-14.4,13.4-26.8,23.4-38.3C669,455.6,657.7,465.7,648.3,477.8z"/>
	<path id="XMLID_1635_" class="st1" d="M695.5,688.1c12.6,3.5,23,10,30.5,20.9c2.7,3.9,8.5,3.7,11.2-0.4c3.1-4.9,7.1-8.6,11.8-11.9
		c6.4-4.6,13.6-7.7,21.2-9.2c2.9-0.6,2.1-2.3,2.2-3.9c0.1-2.1-1-2-2.6-1.8c-23.6,2.4-47.3,3.4-71,0.6c-0.8,0-1.7-0.3-2.4-0.1
		c-2,0.8-5.2-2.9-6.2,1.4C689,688.4,693.4,687.5,695.5,688.1z"/>
</g>
</svg>
