<?xml version="1.0" encoding="UTF-8" standalone="no"?><!DOCTYPE svg PUBLIC "-//W3C//DTD SVG 1.1//EN" "http://www.w3.org/Graphics/SVG/1.1/DTD/svg11.dtd"><svg width="100%" height="100%" viewBox="0 0 6000 4267" version="1.1" xmlns="http://www.w3.org/2000/svg" xmlns:xlink="http://www.w3.org/1999/xlink" xml:space="preserve" xmlns:serif="http://www.serif.com/" style="fill-rule:evenodd;clip-rule:evenodd;stroke-linejoin:round;stroke-miterlimit:2;"><rect id="XMLID_14_" x="1748.29" y="1070.89" width="2567.64" height="2074.15" style="fill:#f8f9fa;"/><g id="XMLID_1634_"><path id="XMLID_1949_" d="M2785.7,3124.43c0,0 575.609,114.905 935.547,-197.844c-0,0 -853.876,422.471 -1447.58,-330.46c0,-0 -223.983,-268.688 -78.736,-855.309c-0,-0 -48.905,16.415 -86.072,53.997c-0,-0 -39.613,-93.739 109.057,-266.097c0,0 -14.671,3.456 -31.299,19.439c0,0 -12.226,-31.966 40.591,-98.058c-0,0 -245.991,174.95 -291.472,517.937c0,0 43.525,-157.238 74.335,-178.837c0,-0 -87.539,132.184 -87.539,495.474c-0,0 -33.255,-95.466 -19.562,-166.31c-0,0 -40.102,172.358 11.248,299.358c-0,0 -121.773,-198.708 48.416,-668.264c-0,0 -49.394,12.096 -90.474,266.96c-0,0 -11.248,-494.178 643.097,-831.55c-0,0 -138.89,42.333 -358.961,197.844c0,0 182.904,-146.871 209.801,-170.63c0,0 18.584,-27.646 -45.481,3.456c-0,0 -851.431,399.576 -477.31,1253.16c-1.467,0.432 178.013,531.329 942.393,655.737Zm-51.839,-112.313c0,-0 -513.01,-26.782 -657.278,-481.651c0.489,-0 150.626,362.858 657.278,481.651Z" style="fill:#0098ff;fill-rule:nonzero;"/><path id="XMLID_1946_" d="M2170.96,1911.88c-0,-4.752 41.569,-174.95 101.232,-217.715c0,-0 -91.452,44.061 -101.232,212.531c-9.781,168.902 -0,5.184 -0,5.184Z" style="fill:#0098ff;fill-rule:nonzero;"/><path id="XMLID_1943_" d="M2353.87,1569.32c0,0 36.19,-40.174 44.503,-42.765c0,-0 -53.795,17.279 -53.795,32.83l9.292,9.935Z" style="fill:#0098ff;fill-rule:nonzero;"/><path id="XMLID_1940_" d="M2452.16,1265.21c5.869,-1.728 9.292,-2.592 9.292,-2.592c-1.956,0 -5.379,0.864 -9.292,2.592Z" style="fill:#0098ff;fill-rule:nonzero;"/><path id="XMLID_1937_" d="M2205.69,1430.23c-0,0 193.662,-143.847 246.479,-165.014c-31.788,9.504 -139.378,48.813 -246.479,165.014Z" style="fill:#0098ff;fill-rule:nonzero;"/><path id="XMLID_1934_" d="M3256.16,1130.44c0,0 -392.704,-143.415 -730.636,41.47c0,0.432 333.53,-115.769 730.636,-41.47Z" style="fill:#0098ff;fill-rule:nonzero;"/><path id="XMLID_1931_" d="M2519.65,1277.31c-0,0 218.604,-101.513 388.792,-111.449c0.489,0.432 -250.392,-10.799 -388.792,111.449Z" style="fill:#0098ff;fill-rule:nonzero;"/><path id="XMLID_1928_" d="M2842.43,1268.67c-0,0 -56.241,-9.071 -85.094,17.279l7.335,9.935c0,0 45.482,-30.238 77.759,-27.214Z" style="fill:#0098ff;fill-rule:nonzero;"/><path id="XMLID_1925_" d="M2495.2,1429.8c-2.935,3.024 -2.446,7.344 1.467,9.504c2.445,1.296 5.868,1.296 8.314,-0.432l22.007,-14.255c3.912,-2.592 3.912,-7.344 -0,-9.936l-4.402,-3.024c-2.934,-2.159 -7.335,-1.727 -9.781,0.864l-17.605,17.279Z" style="fill:#0098ff;fill-rule:nonzero;"/><path id="XMLID_1924_" d="M3679.18,1416.84l11.737,7.344l-4.401,12.527l11.737,-7.776l11.737,7.776l-4.402,-12.527l11.738,-7.344l-14.672,0l-4.401,-12.527l-4.402,12.527l-14.671,0Z" style="fill:#f7941e;fill-rule:nonzero;"/><path id="XMLID_1923_" d="M3800.47,1423.32l-3.424,9.071l-11.248,0l9.292,5.616l-3.423,9.503l8.803,-5.615l8.802,5.615l-3.423,-9.503l8.803,-5.616l-10.759,0l-3.423,-9.071Z" style="fill:#f7941e;fill-rule:nonzero;"/><path id="XMLID_1922_" d="M3869.42,1348.59l9.781,-6.479l10.27,6.479l-3.912,-10.367l9.781,-6.48l-12.227,0l-3.912,-10.367l-3.912,10.367l-12.226,0l10.27,6.48l-3.913,10.367Z" style="fill:#f7941e;fill-rule:nonzero;"/><path id="XMLID_1921_" d="M4059.17,1415.54l12.227,-7.775l12.226,7.775l-4.402,-12.959l12.226,-7.776l-15.16,0l-4.89,-12.959l-4.891,12.959l-15.16,0l12.226,7.776l-4.402,12.959Z" style="fill:#f7941e;fill-rule:nonzero;"/><path id="XMLID_1920_" d="M4030.32,1593.95l-7.825,22.03l21.029,-13.391l21.029,13.391l-8.314,-22.03l21.029,-13.392l-25.919,0l-7.825,-22.03l-8.314,22.03l-25.919,0l21.029,13.392Z" style="fill:#f7941e;fill-rule:nonzero;"/><path id="XMLID_1919_" d="M4071.4,1627.21l-4.402,11.231l-13.204,-0l10.759,6.912l-3.913,11.231l10.76,-6.912l10.759,6.912l-3.913,-11.231l10.759,-6.912l-13.693,-0l-3.912,-11.231Z" style="fill:#f7941e;fill-rule:nonzero;"/><path id="XMLID_1918_" d="M4111.99,1578.83l16.628,-10.367l16.628,10.367l-6.358,-17.278l16.628,-10.368l-20.54,0l-6.358,-17.279l-6.358,17.279l-20.54,0l16.628,10.368l-6.358,17.278Z" style="fill:#f7941e;fill-rule:nonzero;"/><path id="XMLID_1917_" d="M3928.6,1758.53l-21.029,-0l17.116,10.799l-6.846,18.143l17.605,-11.231l17.117,11.231l-6.357,-18.143l17.116,-10.799l-21.518,-0l-6.358,-18.143l-6.846,18.143Z" style="fill:#f7941e;fill-rule:nonzero;"/><path id="XMLID_1916_" d="M3959.9,1757.66l22.985,-14.687l23.474,14.687l-8.803,-23.759l22.986,-15.119l-28.854,0l-8.803,-23.758l-8.803,23.758l-28.365,0l22.986,15.119l-8.803,23.759Z" style="fill:#f7941e;fill-rule:nonzero;"/><path id="XMLID_1915_" d="M4087.54,1807.77l-8.314,23.326l22.496,-14.255l22.008,14.255l-8.314,-23.326l22.496,-14.255l-27.876,-0l-8.314,-23.327l-8.802,23.327l-27.876,-0l22.496,14.255Z" style="fill:#f7941e;fill-rule:nonzero;"/><path id="XMLID_1914_" d="M4207.36,1676.89l11.248,-7.344l11.737,7.344l-4.402,-12.096l11.248,-7.343l-14.182,-0l-4.401,-12.095l-4.402,12.095l-14.182,-0l11.737,7.343l-4.401,12.096Z" style="fill:#f7941e;fill-rule:nonzero;"/><path id="XMLID_1913_" d="M4101.72,1898.06l-7.335,18.575l-22.007,0l18.094,11.664l-6.846,18.575l18.094,-11.664l17.606,11.664l-6.847,-18.575l18.095,-11.664l-22.007,0l-6.847,-18.575Z" style="fill:#f7941e;fill-rule:nonzero;"/><path id="XMLID_1912_" d="M4224.96,1875.59l-9.781,27.214l-32.766,0l26.409,16.847l-10.27,27.215l26.408,-16.847l26.409,16.847l-10.27,-27.215l26.408,-16.847l-32.766,0l-9.781,-27.214Z" style="fill:#f7941e;fill-rule:nonzero;"/><path id="XMLID_1911_" d="M4096.83,2031.54l-7.825,-22.03l-8.314,22.03l-25.919,0l21.029,13.824l-8.314,22.03l21.518,-13.823l21.029,13.823l-7.825,-22.03l21.029,-13.824l-26.408,0Z" style="fill:#f7941e;fill-rule:nonzero;"/><path id="XMLID_1910_" d="M4239.63,2028.94l20.54,12.959l-7.825,21.167l20.54,-12.96l20.051,12.96l-7.825,-21.167l20.54,-12.959l-24.941,-0l-7.825,-21.167l-7.825,21.167l-25.43,-0Z" style="fill:#f7941e;fill-rule:nonzero;"/><path id="XMLID_1909_" d="M4210.29,2212.53l-10.27,-28.079l-10.27,28.079l-32.766,-0l26.897,16.847l-10.27,28.078l26.409,-17.279l26.897,17.279l-10.27,-28.078l26.898,-16.847l-33.255,-0Z" style="fill:#f7941e;fill-rule:nonzero;"/><path id="XMLID_1908_" d="M3965.76,2412.97l31.788,-20.303l-39.612,-0l-12.227,-33.262l-12.226,33.262l-39.123,-0l31.788,20.303l-12.227,33.262l31.788,-20.735l32.278,20.735l-12.227,-33.262Z" style="fill:#f7941e;fill-rule:nonzero;"/><path id="XMLID_1907_" d="M4058.68,2430.25l-5.379,14.687l-17.117,-0l14.182,8.639l-5.379,14.687l13.693,-9.071l14.183,9.071l-5.38,-14.687l14.182,-8.639l-17.605,-0l-5.38,-14.687Z" style="fill:#f7941e;fill-rule:nonzero;"/><path id="XMLID_1906_" d="M3938.38,2191.37l-5.869,15.983l-19.073,-0l15.161,9.935l-5.869,16.415l15.65,-9.935l15.649,9.935l-5.868,-16.415l15.649,-9.935l-19.562,-0l-5.868,-15.983Z" style="fill:#f7941e;fill-rule:nonzero;"/><path id="XMLID_1905_" d="M4055.26,2269.99l-5.869,-15.551l-5.379,15.551l-19.073,0l15.161,9.936l-5.869,15.551l15.16,-9.936l15.161,9.936l-5.869,-15.551l15.161,-9.936l-18.584,0Z" style="fill:#f7941e;fill-rule:nonzero;"/><path id="XMLID_1904_" d="M4058.68,2554.66l14.183,9.072l-5.38,-14.687l14.182,-9.072l-17.605,0l-5.38,-14.255l-4.89,14.255l-17.606,0l14.182,9.072l-5.379,14.687l13.693,-9.072Z" style="fill:#f7941e;fill-rule:nonzero;"/><path id="XMLID_1903_" d="M3894.37,2484.68l-7.825,21.167l-25.431,0l20.54,13.391l-7.824,21.167l20.54,-12.959l20.54,12.959l-7.825,-21.167l20.54,-13.391l-25.431,0l-7.824,-21.167Z" style="fill:#f7941e;fill-rule:nonzero;"/><path id="XMLID_1902_" d="M3797.53,2683.82l18.095,11.663l-6.847,-19.007l18.095,-11.663l-22.496,-0l-6.847,-19.007l-7.335,19.007l-22.497,-0l18.095,11.663l-6.846,19.007l18.583,-11.663Z" style="fill:#f7941e;fill-rule:nonzero;"/><path id="XMLID_1901_" d="M3915.39,2732.63l-10.27,-27.215l-9.781,27.215l-32.277,-0l25.919,16.847l-9.781,26.782l25.92,-16.415l26.408,16.415l-10.27,-26.782l26.409,-16.847l-32.277,-0Z" style="fill:#f7941e;fill-rule:nonzero;"/><path id="XMLID_1900_" d="M4007.82,2682.52l-10.27,-28.511l-10.759,28.511l-33.744,-0l27.387,17.711l-10.27,28.51l27.386,-17.711l27.387,17.711l-10.27,-28.51l27.387,-17.711l-34.234,-0Z" style="fill:#f7941e;fill-rule:nonzero;"/><path id="XMLID_1899_" d="M3841.06,2816.87l-5.379,-15.12l-5.38,15.12l-18.094,-0l14.671,9.071l-5.379,15.119l14.182,-9.071l14.671,9.071l-5.868,-15.119l14.671,-9.071l-18.095,-0Z" style="fill:#f7941e;fill-rule:nonzero;"/><path id="XMLID_1898_" d="M3546.65,2971.94l17.117,-11.231l17.117,11.231l-6.358,-17.711l16.628,-11.231l-21.029,0l-6.358,-17.711l-6.358,17.711l-21.518,0l17.117,11.231l-6.358,17.711Z" style="fill:#f7941e;fill-rule:nonzero;"/><path id="XMLID_1897_" d="M3551.54,2831.99l12.226,-7.776l12.226,7.776l-4.401,-12.528l12.226,-8.207l-15.161,-0l-4.89,-12.527l-4.891,12.527l-15.16,-0l12.226,8.207l-4.401,12.528Z" style="fill:#f7941e;fill-rule:nonzero;"/><path id="XMLID_1896_" d="M3721.24,2877.34l15.16,9.935l-5.868,-15.983l15.649,-9.935l-19.072,-0l-5.869,-15.983l-5.869,15.983l-19.072,-0l15.16,9.935l-5.869,15.983l15.65,-9.935Z" style="fill:#f7941e;fill-rule:nonzero;"/><path id="XMLID_1895_" d="M3672.83,1268.67l-4.401,11.231l10.759,-6.911l10.27,6.911l-3.912,-11.231l10.759,-6.48l-13.205,0l-3.912,-11.231l-3.912,11.231l-13.205,0l10.759,6.48Z" style="fill:#f7941e;fill-rule:nonzero;"/><path id="XMLID_1894_" d="M3477.21,1251.82l10.27,-6.48l9.781,6.48l-3.913,-10.799l10.27,-6.48l-12.715,0l-3.423,-10.367l-3.913,10.367l-12.715,0l10.27,6.48l-3.912,10.799Z" style="fill:#f7941e;fill-rule:nonzero;"/><ellipse id="XMLID_1891_" cx="3322.67" cy="1108.84" rx="14.182" ry="12.527" style="fill:#0098ff;"/><ellipse id="XMLID_1888_" cx="3497.75" cy="1159.38" rx="12.226" ry="10.799" style="fill:#0098ff;"/><ellipse id="XMLID_1885_" cx="3571.11" cy="1195.23" rx="19.562" ry="17.279" style="fill:#0098ff;"/><ellipse id="XMLID_1882_" cx="3656.2" cy="1221.59" rx="15.16" ry="13.391" style="fill:#0098ff;"/><ellipse id="XMLID_1879_" cx="3604.85" cy="1285.09" rx="12.226" ry="10.799" style="fill:#0098ff;"/><ellipse id="XMLID_1876_" cx="3751.07" cy="1290.7" rx="27.876" ry="24.623" style="fill:#0098ff;"/><ellipse id="XMLID_1873_" cx="3785.8" cy="1361.11" rx="20.54" ry="18.143" style="fill:#0098ff;"/><ellipse id="XMLID_1870_" cx="3846.93" cy="1415.54" rx="16.628" ry="14.687" style="fill:#0098ff;"/><ellipse id="XMLID_1867_" cx="3778.46" cy="1514.03" rx="22.496" ry="19.871" style="fill:#0098ff;"/><ellipse id="XMLID_1864_" cx="3856.22" cy="1705.83" rx="18.095" ry="15.983" style="fill:#0098ff;"/><ellipse id="XMLID_1861_" cx="3904.64" cy="1483.36" rx="22.985" ry="20.303" style="fill:#0098ff;"/><ellipse id="XMLID_1858_" cx="3921.75" cy="1533.9" rx="16.139" ry="14.255" style="fill:#0098ff;"/><ellipse id="XMLID_1855_" cx="3973.59" cy="1536.93" rx="21.518" ry="19.007" style="fill:#0098ff;"/><ellipse id="XMLID_1852_" cx="4009.29" cy="1494.16" rx="22.496" ry="19.871" style="fill:#0098ff;"/><ellipse id="XMLID_1849_" cx="3978.48" cy="1409.93" rx="11.737" ry="10.367" style="fill:#0098ff;"/><ellipse id="XMLID_1846_" cx="4009.29" cy="1636.71" rx="16.628" ry="14.687" style="fill:#0098ff;"/><ellipse id="XMLID_1843_" cx="4171.65" cy="1573.21" rx="16.139" ry="14.255" style="fill:#0098ff;"/><ellipse id="XMLID_1840_" cx="4137.91" cy="1702.37" rx="14.671" ry="12.959" style="fill:#0098ff;"/><ellipse id="XMLID_1837_" cx="4077.27" cy="1729.15" rx="12.715" ry="11.231" style="fill:#0098ff;"/><ellipse id="XMLID_1834_" cx="3929.58" cy="1841.47" rx="16.628" ry="14.687" style="fill:#0098ff;"/><ellipse id="XMLID_1831_" cx="4026.41" cy="1861.77" rx="18.584" ry="16.415" style="fill:#0098ff;"/><ellipse id="XMLID_1828_" cx="4187.79" cy="1813.39" rx="20.051" ry="17.711" style="fill:#0098ff;"/><ellipse id="XMLID_1825_" cx="4296.36" cy="1804.32" rx="19.562" ry="17.279" style="fill:#0098ff;"/><ellipse id="XMLID_1822_" cx="4161.38" cy="1902.81" rx="15.16" ry="13.391" style="fill:#0098ff;"/><ellipse id="XMLID_1819_" cx="4054.77" cy="1934.34" rx="19.562" ry="17.279" style="fill:#0098ff;"/><ellipse id="XMLID_1816_" cx="3977.01" cy="1990.07" rx="16.628" ry="14.687" style="fill:#0098ff;"/><ellipse id="XMLID_1813_" cx="4065.04" cy="1998.71" rx="17.117" ry="15.119" style="fill:#0098ff;"/><ellipse id="XMLID_1810_" cx="4167.25" cy="2020.74" rx="23.474" ry="20.735" style="fill:#0098ff;"/><ellipse id="XMLID_1807_" cx="4152.09" cy="2079.49" rx="22.985" ry="20.303" style="fill:#0098ff;"/><ellipse id="XMLID_1804_" cx="4196.11" cy="2095.9" rx="18.095" ry="15.983" style="fill:#0098ff;"/><ellipse id="XMLID_1801_" cx="4026.41" cy="2091.15" rx="18.584" ry="16.415" style="fill:#0098ff;"/><ellipse id="XMLID_1798_" cx="3977.01" cy="2063.07" rx="20.051" ry="17.711" style="fill:#0098ff;"/><ellipse id="XMLID_1795_" cx="3997.55" cy="2120.95" rx="10.27" ry="9.071" style="fill:#0098ff;"/><ellipse id="XMLID_1792_" cx="4026.41" cy="2150.76" rx="9.781" ry="8.639" style="fill:#0098ff;"/><ellipse id="XMLID_1789_" cx="4086.07" cy="2124.41" rx="16.628" ry="14.687" style="fill:#0098ff;"/><ellipse id="XMLID_1786_" cx="4172.14" cy="2150.76" rx="26.409" ry="23.327" style="fill:#0098ff;"/><ellipse id="XMLID_1783_" cx="4246.97" cy="2168.47" rx="18.095" ry="15.983" style="fill:#0098ff;"/><ellipse id="XMLID_1780_" cx="4210.29" cy="2168.47" rx="10.27" ry="9.071" style="fill:#0098ff;"/><ellipse id="XMLID_1777_" cx="4072.38" cy="2177.54" rx="22.985" ry="20.303" style="fill:#0098ff;"/><ellipse id="XMLID_1774_" cx="4137.91" cy="2224.63" rx="18.095" ry="15.983" style="fill:#0098ff;"/><ellipse id="XMLID_1771_" cx="3987.28" cy="2206.05" rx="21.518" ry="19.007" style="fill:#0098ff;"/><ellipse id="XMLID_1768_" cx="3825.9" cy="2191.37" rx="12.226" ry="10.799" style="fill:#0098ff;"/><ellipse id="XMLID_1765_" cx="3838.12" cy="2257.46" rx="22.496" ry="19.871" style="fill:#0098ff;"/><ellipse id="XMLID_1762_" cx="3850.35" cy="2362.43" rx="20.54" ry="18.143" style="fill:#0098ff;"/><ellipse id="XMLID_1759_" cx="3979.95" cy="2343.85" rx="17.606" ry="15.551" style="fill:#0098ff;"/><ellipse id="XMLID_1756_" cx="4049.39" cy="2380.57" rx="24.941" ry="22.031" style="fill:#0098ff;"/><ellipse id="XMLID_1753_" cx="4101.72" cy="2353.79" rx="22.007" ry="19.439" style="fill:#0098ff;"/><ellipse id="XMLID_1750_" cx="4150.14" cy="2362.43" rx="20.54" ry="18.143" style="fill:#0098ff;"/><ellipse id="XMLID_1747_" cx="4155.52" cy="2308.43" rx="13.693" ry="12.095" style="fill:#0098ff;"/><ellipse id="XMLID_1744_" cx="4243.54" cy="2306.27" rx="22.007" ry="19.439" style="fill:#0098ff;"/><ellipse id="XMLID_1741_" cx="4194.64" cy="2400.44" rx="16.628" ry="14.687" style="fill:#0098ff;"/><ellipse id="XMLID_1738_" cx="4119.82" cy="2437.59" rx="13.693" ry="12.095" style="fill:#0098ff;"/><ellipse id="XMLID_1735_" cx="4016.63" cy="2430.25" rx="18.095" ry="15.983" style="fill:#0098ff;"/><ellipse id="XMLID_1732_" cx="3825.9" cy="2409.51" rx="9.781" ry="8.639" style="fill:#0098ff;"/><ellipse id="XMLID_1729_" cx="3876.76" cy="2339.53" rx="9.781" ry="8.639" style="fill:#0098ff;"/><ellipse id="XMLID_1726_" cx="3918.33" cy="2454.01" rx="9.292" ry="8.208" style="fill:#0098ff;"/><ellipse id="XMLID_1723_" cx="3863.07" cy="2484.68" rx="11.248" ry="9.935" style="fill:#0098ff;"/><ellipse id="XMLID_1720_" cx="3762.81" cy="2512.32" rx="14.671" ry="12.959" style="fill:#0098ff;"/><ellipse id="XMLID_1717_" cx="3784.33" cy="2536.51" rx="13.204" ry="11.663" style="fill:#0098ff;"/><ellipse id="XMLID_1714_" cx="3850.35" cy="2580.58" rx="13.693" ry="12.095" style="fill:#0098ff;"/><ellipse id="XMLID_1711_" cx="3973.1" cy="2515.35" rx="18.095" ry="15.983" style="fill:#0098ff;"/><ellipse id="XMLID_1708_" cx="4074.33" cy="2499.37" rx="18.095" ry="15.983" style="fill:#0098ff;"/><ellipse id="XMLID_1705_" cx="4164.32" cy="2491.16" rx="16.628" ry="14.687" style="fill:#0098ff;"/><ellipse id="XMLID_1702_" cx="4221.54" cy="2445.8" rx="13.204" ry="11.663" style="fill:#0098ff;"/><ellipse id="XMLID_1699_" cx="4081.67" cy="2605.2" rx="19.562" ry="17.279" style="fill:#0098ff;"/><ellipse id="XMLID_1696_" cx="3998.53" cy="2584.03" rx="20.051" ry="17.711" style="fill:#0098ff;"/><ellipse id="XMLID_1693_" cx="4008.31" cy="2638.46" rx="10.27" ry="9.071" style="fill:#0098ff;"/><ellipse id="XMLID_1690_" cx="3962.83" cy="2622.05" rx="14.671" ry="12.959" style="fill:#0098ff;"/><ellipse id="XMLID_1687_" cx="3918.33" cy="2619.02" rx="18.095" ry="15.983" style="fill:#0098ff;"/><ellipse id="XMLID_1684_" cx="3878.72" cy="2676.47" rx="15.16" ry="13.391" style="fill:#0098ff;"/><ellipse id="XMLID_1681_" cx="3751.07" cy="2635" rx="12.226" ry="10.799" style="fill:#0098ff;"/><ellipse id="XMLID_1678_" cx="3732.98" cy="2725.29" rx="12.226" ry="10.799" style="fill:#0098ff;"/><ellipse id="XMLID_1663_" cx="3803.4" cy="2747.32" rx="14.671" ry="12.959" style="fill:#0098ff;"/><ellipse id="XMLID_1660_" cx="3751.07" cy="2807.79" rx="16.628" ry="14.687" style="fill:#0098ff;"/><ellipse id="XMLID_1657_" cx="3670.87" cy="2815.57" rx="19.073" ry="16.847" style="fill:#0098ff;"/><ellipse id="XMLID_1654_" cx="3629.79" cy="2835.44" rx="6.847" ry="6.048" style="fill:#0098ff;"/><ellipse id="XMLID_1650_" cx="3557.9" cy="2866.11" rx="5.869" ry="5.184" style="fill:#0098ff;"/><ellipse id="XMLID_1647_" cx="3641.04" cy="2933.07" rx="6.847" ry="6.048" style="fill:#0098ff;"/><ellipse id="XMLID_1644_" cx="3683.59" cy="2908.88" rx="16.139" ry="14.255" style="fill:#0098ff;"/><ellipse id="XMLID_1641_" cx="3738.85" cy="2901.97" rx="13.693" ry="12.095" style="fill:#0098ff;"/><ellipse id="XMLID_1638_" cx="3812.2" cy="2871.29" rx="13.693" ry="12.095" style="fill:#0098ff;"/><path id="XMLID_1637_" d="M3042.93,1817.28c-83.138,-90.714 -70.423,-217.283 28.854,-282.079c25.919,-16.847 29.832,-15.983 40.102,10.799c1.956,4.752 2.934,9.936 4.401,15.12c10.759,31.966 3.423,64.796 7.825,101.513c21.029,-26.782 27.875,-53.564 31.299,-80.779c7.336,-52.701 -2.934,-101.946 -36.679,-146.871c-9.781,-12.959 -21.518,-22.463 -34.722,-1.728c-30.81,46.653 -69.445,88.123 -106.123,131.32c-107.59,127.001 -102.7,274.736 13.204,395.689c56.24,58.748 118.349,111.881 178.013,167.606c45.971,43.197 86.561,89.85 114.926,144.279c31.788,60.908 44.014,123.545 29.343,189.637c-17.606,80.347 -69.934,141.687 -136.444,195.252c6.847,4.32 12.226,0.864 18.584,-2.592c44.014,-23.326 84.605,-50.541 123.239,-80.347c144.758,-113.177 176.057,-276.895 82.16,-426.358c-45.97,-73.004 -113.948,-128.297 -181.925,-183.59c-60.153,-47.949 -124.707,-91.146 -176.057,-146.871Z" style="fill:#f7941e;fill-rule:nonzero;"/><path id="XMLID_1636_" d="M2680.55,1963.72c-115.904,132.184 -112.48,288.99 8.803,416.855c53.306,56.156 123.729,93.306 188.772,136.935c101.722,68.252 192.196,144.28 211.268,269.984c9.292,-60.044 7.825,-114.041 -6.357,-168.038c-23.474,-89.418 -86.072,-155.942 -160.407,-216.419c-42.548,-34.99 -86.073,-69.116 -122.262,-109.289c-78.737,-88.123 -110.525,-184.885 -67.978,-294.607c23.964,-62.204 65.533,-115.769 114.437,-165.446c-65.043,34.126 -120.305,77.756 -166.276,130.025Z" style="fill:#f7941e;fill-rule:nonzero;"/><path id="XMLID_1635_" d="M2911.38,2872.16c61.62,15.119 112.481,43.198 149.16,90.283c13.204,16.847 41.569,15.983 54.773,-1.728c15.16,-21.167 34.722,-37.15 57.707,-51.405c31.299,-19.871 66.511,-33.262 103.678,-39.742c14.183,-2.591 10.27,-9.935 10.759,-16.847c0.489,-9.071 -4.89,-8.639 -12.715,-7.775c-115.415,10.367 -231.319,14.687 -347.223,2.592c-3.912,-0 -8.314,-1.296 -11.737,-0.432c-9.781,3.456 -25.431,-12.527 -30.321,6.047c-5.869,20.303 15.649,16.415 25.919,19.007Z" style="fill:#f7941e;fill-rule:nonzero;"/></g></svg>