<?xml version="1.0" encoding="UTF-8" standalone="no"?><!DOCTYPE svg PUBLIC "-//W3C//DTD SVG 1.1//EN" "http://www.w3.org/Graphics/SVG/1.1/DTD/svg11.dtd"><svg width="100%" height="100%" viewBox="0 0 3270 2980" version="1.1" xmlns="http://www.w3.org/2000/svg" xmlns:xlink="http://www.w3.org/1999/xlink" xml:space="preserve" xmlns:serif="http://www.serif.com/" style="fill-rule:evenodd;clip-rule:evenodd;stroke-linejoin:round;stroke-miterlimit:2;"><g id="Layer-1" serif:id="Layer 1"><path d="M1256.59,2787.61c0,0 -653.111,-38.755 -836.367,-694.128c0,0 191.411,523.089 836.367,694.128m65.65,162.078c0,-0 732.883,165.605 1190.94,-285.4c-0,-0 -1087,608.494 -1842.79,-476.206c0,0 -285.4,-387.05 -100.417,-1232.69c0,0 -62.1,23.784 -109.666,77.962c-0,-0 -50.211,-134.778 138.733,-383.184c0,0 -18.494,5.289 -39.639,27.75c0,0 -15.855,-46.244 51.533,-141.378c0,0 -313.15,252.367 -371.288,746.539c-0,0 55.494,-226.605 94.472,-257.655c-0,-0 -111.211,190.705 -111.211,713.944c-0,0 -42.278,-137.416 -24.661,-239.594c-0,-0 -51.089,248.405 14.094,431.622c0,-0 -155.033,-286.283 61.661,-962.789c0,0 -62.95,17.178 -115.378,384.5c0,0 -14.111,-712.183 818.311,-1198.43c0,0 -177.055,60.778 -457.172,285.4c0,0 232.55,-211.405 266.906,-245.761c-0,0 23.783,-39.639 -58.139,5.284c-0,-0 -1083.47,576.094 -607.8,1805.79c-0,0 229.028,764.6 1201.51,944.295" style="fill:#118ee7;fill-rule:nonzero;"/><path d="M540.02,1202.04c0,-7.045 52.85,-251.928 128.606,-313.589c-0,-0 -116.272,63.422 -128.606,306.544c-12.333,243.117 0,7.045 0,7.045" style="fill:#4664a8;fill-rule:nonzero;"/><path d="M772.571,708.755c-0,0 45.805,-58.139 56.378,-61.661c-0,0 -68.711,24.667 -68.711,47.567l12.333,14.094Z" style="fill:#118ee7;fill-rule:nonzero;"/><path d="M898.004,270.305c7.734,-2.644 11.984,-3.75 11.984,-3.75c-2.839,0.128 -6.923,1.456 -11.984,3.75" style="fill:#f2deb2;fill-rule:nonzero;"/><path d="M584.065,507.916c-0,-0 246.761,-207.156 313.939,-237.611c-40.523,13.85 -177.828,70.433 -313.939,237.611" style="fill:#118ee7;fill-rule:nonzero;"/><path d="M1921.23,76.289c0,-0 -500.172,-206.456 -930.2,59.9c0,-0 424.578,-167.367 930.2,-59.9" style="fill:#118ee7;fill-rule:nonzero;"/><path d="M983.98,287.698c0,-0 278.356,-146.222 495.05,-160.317c0,0 -318.877,-15.855 -495.05,160.317" style="fill:#118ee7;fill-rule:nonzero;"/><path d="M1394.47,274.925c0,0 -71.35,-13.211 -108.344,25.106l9.244,14.533c0,0 58.139,-43.6 99.1,-39.639" style="fill:#118ee7;fill-rule:nonzero;"/><path d="M952.491,507.326c-3.805,4.228 -2.9,10.861 1.9,13.911c3.228,2.056 7.389,1.895 10.456,-0.4l27.767,-20.827c4.789,-3.589 4.927,-10.723 0.283,-14.495l-5.211,-4.239c-3.806,-3.089 -9.361,-2.655 -12.639,0.989l-22.556,25.061Z" style="fill:#118ee7;fill-rule:nonzero;"/><path d="M2459.68,488.529l15.095,10.966l-5.767,17.745l15.095,-10.967l15.1,10.967l-5.767,-17.745l15.094,-10.966l-18.661,-0l-5.766,-17.745l-5.761,17.745l-18.662,-0Z" style="fill:#f7931d;fill-rule:nonzero;"/><path d="M2614.03,497.979l-4.323,13.311l-14,-0l11.323,8.227l-4.323,13.312l11.323,-8.228l11.322,8.228l-4.322,-13.312l11.322,-8.227l-13.995,-0l-4.327,-13.311Z" style="fill:#f7931d;fill-rule:nonzero;"/><path d="M2701.81,390.104l12.645,-9.183l12.639,9.183l-4.828,-14.861l12.644,-9.189l-15.627,0l-4.828,-14.861l-4.833,14.861l-15.628,0l12.644,9.189l-4.828,14.861Z" style="fill:#f7931d;fill-rule:nonzero;"/><path d="M2943.17,486.839l15.728,-11.428l15.722,11.428l-6.006,-18.489l15.728,-11.423l-19.439,0l-6.005,-18.488l-6.012,18.488l-19.433,0l15.722,11.423l-6.005,18.489Z" style="fill:#f7931d;fill-rule:nonzero;"/><path d="M2906.69,744.076l-10.217,31.439l26.75,-19.428l26.745,19.428l-10.217,-31.439l26.744,-19.433l-33.061,-0l-10.211,-31.444l-10.217,31.444l-33.061,-0l26.745,19.433Z" style="fill:#f7931d;fill-rule:nonzero;"/><path d="M2958.9,791.815l-5.283,16.256l-17.089,-0l13.827,10.044l-5.283,16.256l13.828,-10.045l13.828,10.045l-5.284,-16.256l13.828,-10.044l-17.089,-0l-5.283,-16.256Z" style="fill:#f7931d;fill-rule:nonzero;"/><path d="M3010.36,722.385l21.205,-15.406l21.2,15.406l-8.1,-24.928l21.206,-15.4l-26.206,-0l-8.1,-24.928l-8.1,24.928l-26.211,-0l21.206,15.4l-8.1,24.928Z" style="fill:#f7931d;fill-rule:nonzero;"/><path d="M2777.4,980.832l-27.189,0l21.994,15.978l-8.4,25.861l21.995,-15.983l21.994,15.983l-8.4,-25.861l21.995,-15.978l-27.189,0l-8.4,-25.855l-8.4,25.855Z" style="fill:#f7931d;fill-rule:nonzero;"/><path d="M2817.3,979.845l29.283,-21.272l29.278,21.272l-11.184,-34.422l29.278,-21.272l-36.189,-0l-11.183,-34.422l-11.189,34.422l-36.189,-0l29.278,21.272l-11.183,34.422Z" style="fill:#f7931d;fill-rule:nonzero;"/><path d="M2979.62,1052.3l-10.9,33.55l28.538,-20.734l28.534,20.734l-10.9,-33.55l28.539,-20.734l-35.273,0l-10.9,-33.55l-10.9,33.55l-35.277,0l28.539,20.734Z" style="fill:#f7931d;fill-rule:nonzero;"/><path d="M3131.93,863.172l14.594,-10.6l14.589,10.6l-5.572,-17.156l14.589,-10.6l-18.034,0l-5.572,-17.155l-5.578,17.155l-18.033,0l14.589,10.6l-5.572,17.156Z" style="fill:#f7931d;fill-rule:nonzero;"/><path d="M2997.26,1181.96l-8.761,26.961l-28.35,-0l22.933,16.667l-8.756,26.961l22.934,-16.661l22.939,16.661l-8.761,-26.961l22.933,-16.667l-28.35,-0l-8.761,-26.961Z" style="fill:#f7931d;fill-rule:nonzero;"/><path d="M3154.45,1149.73l-12.734,39.189l-41.205,-0l33.333,24.222l-12.733,39.189l33.339,-24.222l33.333,24.222l-12.733,-39.189l33.339,-24.222l-41.206,-0l-12.733,-39.189Z" style="fill:#f7931d;fill-rule:nonzero;"/><path d="M2991.58,1374.6l-10.311,-31.733l-10.311,31.733l-33.367,-0l26.994,19.611l-10.311,31.733l26.995,-19.611l26.994,19.611l-10.311,-31.733l26.995,-19.611l-33.367,-0Z" style="fill:#f7931d;fill-rule:nonzero;"/><path d="M3173.41,1370.82l25.845,18.778l-9.873,30.383l25.845,-18.778l25.844,18.778l-9.872,-30.383l25.844,-18.778l-31.944,-0l-9.872,-30.384l-9.872,30.384l-31.945,-0Z" style="fill:#f7931d;fill-rule:nonzero;"/><path d="M3135.91,1635.16l-12.994,-40l-13,40l-42.056,0l34.028,24.723l-13,39.994l34.028,-24.717l34.022,24.717l-12.995,-39.994l34.023,-24.723l-42.056,0Z" style="fill:#f7931d;fill-rule:nonzero;"/><path d="M2824.28,1924.14l40.578,-29.483l-50.156,-0l-15.5,-47.7l-15.5,47.7l-50.156,-0l40.578,29.483l-15.5,47.7l40.578,-29.478l40.578,29.478l-15.5,-47.7Z" style="fill:#f7931d;fill-rule:nonzero;"/><path d="M2943.04,1949.03l-6.822,20.994l-22.073,0l17.856,12.973l-6.817,20.994l17.856,-12.978l17.855,12.978l-6.816,-20.994l17.855,-12.973l-22.072,0l-6.822,-20.994Z" style="fill:#f7931d;fill-rule:nonzero;"/><path d="M2789.77,1604.75l-7.583,23.328l-24.528,0l19.844,14.422l-7.577,23.328l19.844,-14.417l19.845,14.417l-7.578,-23.328l19.844,-14.422l-24.528,0l-7.583,-23.328Z" style="fill:#f7931d;fill-rule:nonzero;"/><path d="M2938.47,1718.28l-7.327,-22.55l-7.328,22.55l-23.706,0l19.178,13.939l-7.328,22.545l19.184,-13.934l19.183,13.934l-7.328,-22.545l19.183,-13.939l-23.711,0Z" style="fill:#f7931d;fill-rule:nonzero;"/><path d="M2943.04,2128.36l17.744,12.894l-6.778,-20.861l17.745,-12.894l-21.933,-0l-6.778,-20.856l-6.778,20.856l-21.933,-0l17.744,12.894l-6.778,20.861l17.745,-12.894Z" style="fill:#f7931d;fill-rule:nonzero;"/><path d="M2733.55,2027.46l-9.978,30.711l-32.294,0l26.128,18.978l-9.978,30.717l26.122,-18.984l26.128,18.984l-9.984,-30.717l26.128,-18.978l-32.294,0l-9.978,-30.711Z" style="fill:#f7931d;fill-rule:nonzero;"/><path d="M2610.07,2314.32l23.311,16.939l-8.905,-27.406l23.317,-16.939l-28.817,0l-8.906,-27.405l-8.905,27.405l-28.817,0l23.317,16.939l-8.906,27.406l23.311,-16.939Z" style="fill:#f7931d;fill-rule:nonzero;"/><path d="M2760.17,2384.77l-12.689,-39.045l-12.683,39.045l-41.056,-0l33.211,24.133l-12.683,39.045l33.211,-24.134l33.217,24.134l-12.689,-39.045l33.217,-24.133l-41.056,-0Z" style="fill:#f7931d;fill-rule:nonzero;"/><path d="M2878.21,2312.88l-13.35,-41.089l-13.35,41.089l-43.206,0l34.95,25.395l-13.35,41.089l34.956,-25.395l34.95,25.395l-13.35,-41.089l34.955,-25.395l-43.205,0Z" style="fill:#f7931d;fill-rule:nonzero;"/><path d="M2665.96,2506.23l-7,-21.55l-7,21.55l-22.661,-0l18.333,13.316l-7.006,21.55l18.334,-13.316l18.328,13.316l-7,-21.55l18.327,-13.316l-22.655,-0Z" style="fill:#f7931d;fill-rule:nonzero;"/><path d="M2291.02,2729.48l21.761,-15.811l21.761,15.811l-8.311,-25.583l21.756,-15.806l-26.895,-0l-8.311,-25.583l-8.311,25.583l-26.9,-0l21.761,15.806l-8.311,25.583Z" style="fill:#f7931d;fill-rule:nonzero;"/><path d="M2297.05,2528.26l15.728,-11.428l15.722,11.428l-6.005,-18.489l15.727,-11.422l-19.438,0l-6.006,-18.489l-6.006,18.489l-19.438,0l15.722,11.422l-6.006,18.489Z" style="fill:#f7931d;fill-rule:nonzero;"/><path d="M2513.17,2593.33l19.572,14.223l-7.477,-23.011l19.572,-14.223l-24.189,0l-7.478,-23.005l-7.478,23.005l-24.188,0l19.572,14.223l-7.478,23.011l19.572,-14.223Z" style="fill:#f7931d;fill-rule:nonzero;"/><path d="M2451.4,275.415l-5.122,15.756l13.405,-9.739l13.406,9.739l-5.122,-15.756l13.405,-9.739l-16.566,0l-5.123,-15.755l-5.122,15.755l-16.567,0l13.406,9.739Z" style="fill:#f7931d;fill-rule:nonzero;"/><path d="M2202.53,250.846l12.906,-9.372l12.905,9.372l-4.927,-15.172l12.9,-9.373l-15.95,0l-4.928,-15.172l-4.928,15.172l-15.95,0l12.9,9.373l-4.928,15.172Z" style="fill:#f7931d;fill-rule:nonzero;"/><path d="M2006.23,62.856c9.85,-0 17.839,-7.989 17.839,-17.839c-0,-9.85 -7.989,-17.839 -17.839,-17.839c-9.85,-0 -17.839,7.989 -17.839,17.839c0,9.85 7.989,17.839 17.839,17.839" style="fill:#118ee7;fill-rule:nonzero;"/><path d="M2228.87,133.105c8.511,0 15.417,-6.9 15.417,-15.416c-0,-8.512 -6.906,-15.417 -15.417,-15.417c-8.511,-0 -15.417,6.905 -15.417,15.417c0,8.516 6.906,15.416 15.417,15.416" style="fill:#118ee7;fill-rule:nonzero;"/><path d="M2322.03,194.326c13.623,-0 24.661,-11.045 24.661,-24.667c0,-13.617 -11.038,-24.661 -24.661,-24.661c-13.622,-0 -24.666,11.044 -24.666,24.661c-0,13.622 11.044,24.667 24.666,24.667" style="fill:#118ee7;fill-rule:nonzero;"/><path d="M2430.37,226.918c10.806,-0 19.567,-8.761 19.567,-19.561c-0,-10.806 -8.761,-19.567 -19.567,-19.567c-10.806,0 -19.561,8.761 -19.561,19.567c-0,10.8 8.755,19.561 19.561,19.561" style="fill:#f2deb2;fill-rule:nonzero;"/><path d="M2365.19,315.005c8.755,0 15.855,-7.1 15.855,-15.855c0,-8.756 -7.1,-15.856 -15.855,-15.856c-8.756,0 -15.856,7.1 -15.856,15.856c0,8.755 7.1,15.855 15.856,15.855" style="fill:#f2deb2;fill-rule:nonzero;"/><path d="M2551.05,342.312c19.462,0 35.234,-15.777 35.234,-35.233c-0,-19.461 -15.772,-35.239 -35.234,-35.239c-19.461,0 -35.233,15.778 -35.233,35.239c0,19.456 15.772,35.233 35.233,35.233" style="fill:#118ee7;fill-rule:nonzero;"/><path d="M2569.29,408.378c-0,14.594 11.833,26.428 26.427,26.428c14.595,-0 26.423,-11.834 26.423,-26.428c-0,-14.594 -11.828,-26.428 -26.423,-26.428c-14.594,0 -26.427,11.834 -26.427,26.428" style="fill:#f2deb2;fill-rule:nonzero;"/><path d="M2673.49,507.916c11.639,-0 21.078,-9.439 21.078,-21.078c-0,-11.639 -9.439,-21.078 -21.078,-21.078c-11.639,0 -21.078,9.439 -21.078,21.078c0,11.639 9.439,21.078 21.078,21.078" style="fill:#f2deb2;fill-rule:nonzero;"/><path d="M2586.29,600.064c-15.755,-0 -28.533,12.772 -28.533,28.533c0,15.755 12.778,28.528 28.533,28.528c15.756,-0 28.534,-12.773 28.534,-28.528c-0,-15.761 -12.778,-28.533 -28.534,-28.533" style="fill:#118ee7;fill-rule:nonzero;"/><path d="M2684.95,882.287c-12.65,-0 -22.9,10.255 -22.9,22.9c-0,12.65 10.25,22.905 22.9,22.905c12.65,0 22.9,-10.255 22.9,-22.905c-0,-12.645 -10.25,-22.9 -22.9,-22.9" style="fill:#f2deb2;fill-rule:nonzero;"/><path d="M2717.54,584.552c0,16.055 13.017,29.067 29.067,29.067c16.056,-0 29.072,-13.012 29.072,-29.067c0,-16.056 -13.016,-29.067 -29.072,-29.067c-16.05,0 -29.067,13.011 -29.067,29.067" style="fill:#118ee7;fill-rule:nonzero;"/><path d="M2747.83,657.127c0,11.489 9.311,20.795 20.795,20.795c11.489,-0 20.8,-9.306 20.8,-20.795c-0,-11.483 -9.311,-20.794 -20.8,-20.794c-11.484,-0 -20.795,9.311 -20.795,20.794" style="fill:#118ee7;fill-rule:nonzero;"/><path d="M2834.69,689.756c15.289,0 27.689,-12.394 27.689,-27.689c0,-15.288 -12.4,-27.683 -27.689,-27.683c-15.289,0 -27.689,12.395 -27.689,27.683c0,15.295 12.4,27.689 27.689,27.689" style="fill:#118ee7;fill-rule:nonzero;"/><path d="M2879.94,628.596c15.756,-0 28.534,-12.772 28.534,-28.534c-0,-15.755 -12.778,-28.533 -28.534,-28.533c-15.755,0 -28.533,12.778 -28.533,28.533c-0,15.762 12.778,28.534 28.533,28.534" style="fill:#f2deb2;fill-rule:nonzero;"/><path d="M2840.86,494.012c8.378,0 15.167,-6.788 15.167,-15.166c-0,-8.372 -6.789,-15.161 -15.167,-15.161c-8.378,-0 -15.166,6.789 -15.166,15.161c-0,8.378 6.788,15.166 15.166,15.166" style="fill:#f2deb2;fill-rule:nonzero;"/><path d="M2879.94,784.511c-11.678,-0 -21.139,9.466 -21.139,21.139c0,11.677 9.461,21.144 21.139,21.144c11.678,0 21.139,-9.467 21.139,-21.144c0,-11.673 -9.461,-21.139 -21.139,-21.139" style="fill:#f2deb2;fill-rule:nonzero;"/><path d="M3086.62,734.36c11.222,-0 20.316,-9.095 20.316,-20.317c0,-11.222 -9.094,-20.322 -20.316,-20.322c-11.223,-0 -20.323,9.1 -20.323,20.322c0,11.222 9.1,20.317 20.323,20.317" style="fill:#f2deb2;fill-rule:nonzero;"/><path d="M3043.43,881.406c-10.216,0 -18.5,8.284 -18.5,18.5c0,10.217 8.284,18.495 18.5,18.495c10.217,-0 18.5,-8.278 18.5,-18.495c0,-10.216 -8.283,-18.5 -18.5,-18.5" style="fill:#f2deb2;fill-rule:nonzero;"/><path d="M2950.18,938.664c0,9.011 7.306,16.311 16.317,16.311c9.005,-0 16.311,-7.3 16.311,-16.311c-0,-9.012 -7.306,-16.317 -16.311,-16.317c-9.011,-0 -16.317,7.305 -16.317,16.317" style="fill:#f2deb2;fill-rule:nonzero;"/><path d="M2778.32,1079.85c-11.538,-0 -20.888,9.356 -20.888,20.889c-0,11.539 9.35,20.889 20.888,20.889c11.539,-0 20.889,-9.35 20.889,-20.889c0,-11.533 -9.35,-20.889 -20.889,-20.889" style="fill:#f2deb2;fill-rule:nonzero;"/><path d="M2877.86,1129.81c0,13.134 10.65,23.784 23.784,23.784c13.133,-0 23.783,-10.65 23.783,-23.784c0,-13.133 -10.65,-23.783 -23.783,-23.783c-13.134,0 -23.784,10.65 -23.784,23.783" style="fill:#f2deb2;fill-rule:nonzero;"/><path d="M3106.88,1085.85c14.15,0 25.622,-11.472 25.622,-25.628c0,-14.15 -11.472,-25.622 -25.622,-25.622c-14.15,0 -25.622,11.472 -25.622,25.622c-0,14.156 11.472,25.628 25.622,25.628" style="fill:#f2deb2;fill-rule:nonzero;"/><path d="M3245.18,1071.67c13.622,-0 24.661,-11.045 24.661,-24.667c0,-13.617 -11.039,-24.661 -24.661,-24.661c-13.622,-0 -24.666,11.044 -24.666,24.661c-0,13.622 11.044,24.667 24.666,24.667" style="fill:#118ee7;fill-rule:nonzero;"/><path d="M3054.03,1188.83c0,10.706 8.678,19.378 19.378,19.378c10.706,-0 19.378,-8.672 19.378,-19.378c-0,-10.705 -8.672,-19.378 -19.378,-19.378c-10.7,0 -19.378,8.673 -19.378,19.378" style="fill:#f2deb2;fill-rule:nonzero;"/><path d="M2912.93,1234.63c0,13.622 11.044,24.667 24.667,24.667c13.622,-0 24.661,-11.045 24.661,-24.667c-0,-13.622 -11.039,-24.661 -24.661,-24.661c-13.623,0 -24.667,11.039 -24.667,24.661" style="fill:#f2deb2;fill-rule:nonzero;"/><path d="M2839.1,1335.94c11.678,0 21.139,-9.466 21.139,-21.139c-0,-11.677 -9.461,-21.144 -21.139,-21.144c-11.678,-0 -21.139,9.467 -21.139,21.144c0,11.673 9.461,21.139 21.139,21.139" style="fill:#f2deb2;fill-rule:nonzero;"/><path d="M2951.09,1349.15c12.161,0 22.022,-9.861 22.022,-22.022c0,-12.161 -9.861,-22.022 -22.022,-22.022c-12.161,-0 -22.022,9.861 -22.022,22.022c-0,12.161 9.861,22.022 22.022,22.022" style="fill:#f2deb2;fill-rule:nonzero;"/><path d="M3081.26,1328.89c-16.539,0 -29.95,13.411 -29.95,29.95c-0,16.539 13.411,29.95 29.95,29.95c16.538,0 29.95,-13.411 29.95,-29.95c-0,-16.539 -13.412,-29.95 -29.95,-29.95" style="fill:#118ee7;fill-rule:nonzero;"/><path d="M3032.89,1443.4c0,16.056 13.017,29.067 29.067,29.067c16.055,0 29.072,-13.011 29.072,-29.067c0,-16.055 -13.017,-29.066 -29.072,-29.066c-16.05,-0 -29.067,13.011 -29.067,29.066" style="fill:#118ee7;fill-rule:nonzero;"/><path d="M3117.45,1444.28c-12.65,-0 -22.9,10.255 -22.9,22.9c0,12.65 10.25,22.905 22.9,22.905c12.65,0 22.9,-10.255 22.9,-22.905c0,-12.645 -10.25,-22.9 -22.9,-22.9" style="fill:#118ee7;fill-rule:nonzero;"/><path d="M2901.64,1483.92c13.134,0 23.784,-10.65 23.784,-23.783c-0,-13.133 -10.65,-23.783 -23.784,-23.783c-13.133,-0 -23.783,10.65 -23.783,23.783c-0,13.133 10.65,23.783 23.783,23.783" style="fill:#f2deb2;fill-rule:nonzero;"/><path d="M2839.1,1445.74c14.228,0 25.767,-11.533 25.767,-25.767c-0,-14.227 -11.539,-25.761 -25.767,-25.761c-14.228,0 -25.767,11.534 -25.767,25.761c0,14.234 11.539,25.767 25.767,25.767" style="fill:#f2deb2;fill-rule:nonzero;"/><path d="M2864.86,1490.31c-7.177,-0 -12.994,5.816 -12.994,12.994c0,7.178 5.817,12.994 12.994,12.994c7.178,0 12.995,-5.816 12.995,-12.994c-0,-7.178 -5.817,-12.994 -12.995,-12.994" style="fill:#f2deb2;fill-rule:nonzero;"/><path d="M2901.64,1534.13c-6.811,-0 -12.333,5.522 -12.333,12.333c-0,6.811 5.522,12.328 12.333,12.328c6.811,0 12.334,-5.517 12.334,-12.328c-0,-6.811 -5.523,-12.333 -12.334,-12.333" style="fill:#f2deb2;fill-rule:nonzero;"/><path d="M2998.53,1508.59c0,-11.677 -9.466,-21.138 -21.139,-21.138c-11.677,-0 -21.144,9.461 -21.144,21.138c0,11.678 9.467,21.139 21.144,21.139c11.673,0 21.139,-9.461 21.139,-21.139" style="fill:#f2deb2;fill-rule:nonzero;"/><path d="M3087.5,1579.94c18.489,-0 33.472,-14.989 33.472,-33.472c0,-18.489 -14.983,-33.472 -33.472,-33.472c-18.489,-0 -33.472,14.983 -33.472,33.472c-0,18.483 14.983,33.472 33.472,33.472" style="fill:#f2deb2;fill-rule:nonzero;"/><path d="M3182.64,1548.86c-12.789,-0 -23.156,10.366 -23.156,23.155c0,12.789 10.367,23.156 23.156,23.156c12.788,-0 23.155,-10.367 23.155,-23.156c0,-12.789 -10.367,-23.155 -23.155,-23.155" style="fill:#f2deb2;fill-rule:nonzero;"/><path d="M3135.95,1558.8c-7.3,-0 -13.211,5.917 -13.211,13.211c0,7.3 5.911,13.217 13.211,13.217c7.295,-0 13.212,-5.917 13.212,-13.217c-0,-7.294 -5.917,-13.211 -13.212,-13.211" style="fill:#f2deb2;fill-rule:nonzero;"/><path d="M2989.22,1585.22c-0,-16.056 -13.017,-29.067 -29.067,-29.067c-16.056,-0 -29.072,13.011 -29.072,29.067c-0,16.055 13.016,29.066 29.072,29.066c16.05,0 29.067,-13.011 29.067,-29.066" style="fill:#f2deb2;fill-rule:nonzero;"/><path d="M3043.43,1675.95c12.65,-0 22.906,-10.256 22.906,-22.906c-0,-12.644 -10.256,-22.9 -22.906,-22.9c-12.65,0 -22.9,10.256 -22.9,22.9c0,12.65 10.25,22.906 22.9,22.906" style="fill:#f2deb2;fill-rule:nonzero;"/><path d="M2851.87,1598.44c-15.083,-0 -27.305,12.228 -27.305,27.305c-0,15.084 12.222,27.311 27.305,27.311c15.083,0 27.306,-12.227 27.306,-27.311c-0,-15.077 -12.223,-27.305 -27.306,-27.305" style="fill:#f2deb2;fill-rule:nonzero;"/><path d="M2646.19,1620.46c8.672,-0 15.705,-7.033 15.705,-15.706c0,-8.677 -7.033,-15.705 -15.705,-15.705c-8.672,-0 -15.706,7.028 -15.706,15.705c0,8.673 7.034,15.706 15.706,15.706" style="fill:#f2deb2;fill-rule:nonzero;"/><path d="M2632.97,1699.88c0,15.973 12.95,28.923 28.922,28.923c15.978,-0 28.928,-12.95 28.928,-28.923c0,-15.972 -12.95,-28.922 -28.928,-28.922c-15.972,0 -28.922,12.95 -28.922,28.922" style="fill:#f2deb2;fill-rule:nonzero;"/><path d="M2677.9,1877.67c14.594,-0 26.427,-11.833 26.427,-26.428c0,-14.594 -11.833,-26.422 -26.427,-26.422c-14.595,-0 -26.428,11.828 -26.428,26.422c-0,14.595 11.833,26.428 26.428,26.428" style="fill:#f2deb2;fill-rule:nonzero;"/><path d="M2820.48,1824.82c0,12.228 9.911,22.133 22.139,22.133c12.222,0 22.133,-9.905 22.133,-22.133c0,-12.228 -9.911,-22.139 -22.133,-22.139c-12.228,-0 -22.139,9.911 -22.139,22.139" style="fill:#f2deb2;fill-rule:nonzero;"/><path d="M2931.15,1845.95c-17.522,-0 -31.728,14.205 -31.728,31.728c0,17.522 14.206,31.722 31.728,31.722c17.522,-0 31.728,-14.2 31.728,-31.722c-0,-17.523 -14.206,-31.728 -31.728,-31.728" style="fill:#f3e6ac;fill-rule:nonzero;"/><path d="M3025.84,1838.91c0,-15.567 -12.617,-28.189 -28.189,-28.189c-15.567,0 -28.189,12.622 -28.189,28.189c0,15.567 12.622,28.189 28.189,28.189c15.572,-0 28.189,-12.622 28.189,-28.189" style="fill:#f3e6ac;fill-rule:nonzero;"/><path d="M3059.32,1877.67c14.595,-0 26.428,-11.833 26.428,-26.428c0,-14.594 -11.833,-26.422 -26.428,-26.422c-14.594,-0 -26.427,11.828 -26.427,26.422c-0,14.595 11.833,26.428 26.427,26.428" style="fill:#118ee7;fill-rule:nonzero;"/><path d="M3066.34,1791.35c9.727,0 17.616,-7.888 17.616,-17.616c0,-9.734 -7.889,-17.617 -17.616,-17.617c-9.728,0 -17.617,7.883 -17.617,17.617c-0,9.728 7.889,17.616 17.617,17.616" style="fill:#f3e6ac;fill-rule:nonzero;"/><path d="M3205.79,1770.21c0,-15.367 -12.461,-27.828 -27.828,-27.828c-15.366,-0 -27.828,12.461 -27.828,27.828c0,15.366 12.462,27.828 27.828,27.828c15.367,-0 27.828,-12.462 27.828,-27.828" style="fill:#118ee7;fill-rule:nonzero;"/><path d="M3115.69,1927c11.678,0 21.139,-9.466 21.139,-21.139c-0,-11.677 -9.461,-21.144 -21.139,-21.144c-11.678,-0 -21.139,9.467 -21.139,21.144c0,11.673 9.461,21.139 21.139,21.139" style="fill:#118ee7;fill-rule:nonzero;"/><path d="M3020.53,1977.24c9.744,-0 17.644,-7.9 17.644,-17.645c0,-9.739 -7.9,-17.639 -17.644,-17.639c-9.744,0 -17.644,7.9 -17.644,17.639c-0,9.745 7.9,17.645 17.644,17.645" style="fill:#f2deb2;fill-rule:nonzero;"/><path d="M2912.11,1949.03c-0,-12.594 -10.211,-22.806 -22.806,-22.806c-12.594,0 -22.811,10.212 -22.811,22.806c0,12.594 10.217,22.806 22.811,22.806c12.595,-0 22.806,-10.212 22.806,-22.806" style="fill:#f2deb2;fill-rule:nonzero;"/><path d="M2633.85,1919.07c0,6.811 5.522,12.333 12.333,12.333c6.812,-0 12.334,-5.522 12.334,-12.333c-0,-6.812 -5.522,-12.334 -12.334,-12.334c-6.811,0 -12.333,5.522 -12.333,12.334" style="fill:#f2deb2;fill-rule:nonzero;"/><path d="M2711.37,1806.32c-6.811,-0 -12.333,5.522 -12.333,12.333c-0,6.811 5.522,12.328 12.333,12.328c6.811,-0 12.333,-5.517 12.333,-12.328c0,-6.811 -5.522,-12.333 -12.333,-12.333" style="fill:#f2deb2;fill-rule:nonzero;"/><path d="M2775.82,1983.38c0,-6.406 -5.194,-11.6 -11.6,-11.6c-6.405,-0 -11.6,5.194 -11.6,11.6c0,6.406 5.195,11.6 11.6,11.6c6.406,-0 11.6,-5.194 11.6,-11.6" style="fill:#f2deb2;fill-rule:nonzero;"/><path d="M2693.74,2041.52c7.761,0 14.056,-6.294 14.056,-14.055c-0,-7.761 -6.295,-14.056 -14.056,-14.056c-7.761,0 -14.055,6.295 -14.055,14.056c-0,7.761 6.294,14.055 14.055,14.055" style="fill:#f2deb2;fill-rule:nonzero;"/><path d="M2585.01,2067.66c0,-10.484 -8.5,-18.978 -18.977,-18.978c-10.484,-0 -18.984,8.494 -18.984,18.978c0,10.483 8.5,18.978 18.984,18.978c10.477,-0 18.977,-8.495 18.977,-18.978" style="fill:#f2deb2;fill-rule:nonzero;"/><path d="M2593.33,2085.56c-9.245,-0 -16.739,7.494 -16.739,16.738c-0,9.239 7.494,16.734 16.739,16.734c9.244,-0 16.739,-7.495 16.739,-16.734c-0,-9.244 -7.495,-16.738 -16.739,-16.738" style="fill:#f2deb2;fill-rule:nonzero;"/><path d="M2695.51,2165.72c0,-9.728 -7.889,-17.617 -17.616,-17.617c-9.728,0 -17.617,7.889 -17.617,17.617c0,9.728 7.889,17.617 17.617,17.617c9.727,-0 17.616,-7.889 17.616,-17.617" style="fill:#f2deb2;fill-rule:nonzero;"/><path d="M2856.72,2071.47c0,-12.65 -10.255,-22.9 -22.905,-22.9c-12.645,-0 -22.9,10.25 -22.9,22.9c-0,12.65 10.255,22.905 22.9,22.905c12.65,0 22.905,-10.255 22.905,-22.905" style="fill:#f2deb2;fill-rule:nonzero;"/><path d="M2939.97,2048.56c0,12.65 10.256,22.9 22.9,22.9c12.65,0 22.906,-10.25 22.906,-22.9c0,-12.65 -10.256,-22.905 -22.906,-22.905c-12.644,-0 -22.9,10.255 -22.9,22.905" style="fill:#f2deb2;fill-rule:nonzero;"/><path d="M3076.93,2058.25c11.677,0 21.138,-9.466 21.138,-21.139c0,-11.677 -9.461,-21.144 -21.138,-21.144c-11.678,-0 -21.139,9.467 -21.139,21.144c-0,11.673 9.461,21.139 21.139,21.139" style="fill:#118ee7;fill-rule:nonzero;"/><path d="M3150.14,1988.66c9.328,-0 16.883,-7.561 16.883,-16.883c0,-9.328 -7.555,-16.889 -16.883,-16.889c-9.328,-0 -16.883,7.561 -16.883,16.889c-0,9.322 7.555,16.883 16.883,16.883" style="fill:#f2deb2;fill-rule:nonzero;"/><path d="M2971.75,2225.62c13.622,-0 24.667,-11.045 24.667,-24.667c-0,-13.616 -11.045,-24.661 -24.667,-24.661c-13.622,0 -24.667,11.045 -24.667,24.661c0,13.622 11.045,24.667 24.667,24.667" style="fill:#118ee7;fill-rule:nonzero;"/><path d="M2866.5,2145.46c-14.106,-0 -25.545,11.439 -25.545,25.544c0,14.112 11.439,25.545 25.545,25.545c14.111,-0 25.544,-11.433 25.544,-25.545c0,-14.105 -11.433,-25.544 -25.544,-25.544" style="fill:#f2deb2;fill-rule:nonzero;"/><path d="M2865.43,2249.4c0,7.35 5.961,13.311 13.311,13.311c7.35,-0 13.306,-5.961 13.306,-13.311c-0,-7.35 -5.956,-13.311 -13.306,-13.311c-7.35,-0 -13.311,5.961 -13.311,13.311" style="fill:#f2deb2;fill-rule:nonzero;"/><path d="M2820.6,2244.12c10.216,-0 18.5,-8.284 18.5,-18.5c-0,-10.217 -8.284,-18.495 -18.5,-18.495c-10.217,0 -18.5,8.278 -18.5,18.495c-0,10.216 8.283,18.5 18.5,18.5" style="fill:#f2deb2;fill-rule:nonzero;"/><path d="M2741.32,2221.21c0,12.65 10.256,22.906 22.9,22.906c12.65,-0 22.906,-10.256 22.906,-22.906c-0,-12.65 -10.256,-22.905 -22.906,-22.905c-12.644,-0 -22.9,10.255 -22.9,22.905" style="fill:#f2deb2;fill-rule:nonzero;"/><path d="M2694.47,2304.01c0,10.789 8.75,19.539 19.539,19.539c10.789,-0 19.539,-8.75 19.539,-19.539c0,-10.789 -8.75,-19.539 -19.539,-19.539c-10.789,-0 -19.539,8.75 -19.539,19.539" style="fill:#f2deb2;fill-rule:nonzero;"/><path d="M2566.45,2244.12c0,-8.5 -6.894,-15.395 -15.394,-15.395c-8.5,0 -15.395,6.895 -15.395,15.395c0,8.5 6.895,15.394 15.395,15.394c8.5,0 15.394,-6.894 15.394,-15.394" style="fill:#f2deb2;fill-rule:nonzero;"/><path d="M2528.15,2390.34c8.756,0 15.856,-7.1 15.856,-15.855c-0,-8.756 -7.1,-15.856 -15.856,-15.856c-8.755,0 -15.855,7.1 -15.855,15.856c-0,8.755 7.1,15.855 15.855,15.855" style="fill:#f2deb2;fill-rule:nonzero;"/><path d="M2618,2424.69c10.216,0 18.5,-8.283 18.5,-18.5c-0,-10.211 -8.284,-18.494 -18.5,-18.494c-10.217,-0 -18.5,8.283 -18.5,18.494c-0,10.217 8.283,18.5 18.5,18.5" style="fill:#f2deb2;fill-rule:nonzero;"/><path d="M2572.35,2493.4c-0,-11.761 -9.534,-21.3 -21.3,-21.3c-11.761,-0 -21.295,9.539 -21.295,21.3c0,11.761 9.534,21.3 21.295,21.3c11.766,-0 21.3,-9.539 21.3,-21.3" style="fill:#118ee7;fill-rule:nonzero;"/><path d="M2473.07,2504.06c0,-13.367 -10.833,-24.2 -24.2,-24.2c-13.366,-0 -24.2,10.833 -24.2,24.2c0,13.366 10.834,24.2 24.2,24.2c13.367,-0 24.2,-10.834 24.2,-24.2" style="fill:#118ee7;fill-rule:nonzero;"/><path d="M2396.9,2541.85c4.866,-0 8.811,-3.945 8.811,-8.811c-0,-4.861 -3.945,-8.806 -8.811,-8.806c-4.867,0 -8.811,3.945 -8.811,8.806c-0,4.866 3.944,8.811 8.811,8.811" style="fill:#f2deb2;fill-rule:nonzero;"/><path d="M2297.8,2577.43c0,4.133 3.356,7.489 7.489,7.489c4.134,-0 7.484,-3.356 7.484,-7.489c-0,-4.133 -3.35,-7.489 -7.484,-7.489c-4.133,0 -7.489,3.356 -7.489,7.489" style="fill:#f2deb2;fill-rule:nonzero;"/><path d="M2402.18,2673.98c-0,4.867 3.944,8.811 8.811,8.811c4.861,0 8.805,-3.944 8.805,-8.811c0,-4.866 -3.944,-8.811 -8.805,-8.811c-4.867,0 -8.811,3.945 -8.811,8.811" style="fill:#f2deb2;fill-rule:nonzero;"/><path d="M2465.61,2659.01c11.188,0 20.261,-9.072 20.261,-20.261c-0,-11.189 -9.073,-20.261 -20.261,-20.261c-11.189,0 -20.262,9.072 -20.262,20.261c0,11.189 9.073,20.261 20.262,20.261" style="fill:#118ee7;fill-rule:nonzero;"/><path d="M2535.66,2646.68c9.727,-0 17.616,-7.889 17.616,-17.617c0,-9.733 -7.889,-17.617 -17.616,-17.617c-9.728,0 -17.617,7.884 -17.617,17.617c0,9.728 7.889,17.617 17.617,17.617" style="fill:#f2deb2;fill-rule:nonzero;"/><path d="M2629.3,2602.63c9.784,-0 17.712,-7.934 17.712,-17.717c-0,-9.783 -7.928,-17.711 -17.712,-17.711c-9.783,-0 -17.716,7.928 -17.716,17.711c-0,9.783 7.933,17.717 17.716,17.717" style="fill:#f2deb2;fill-rule:nonzero;"/><path d="M1649.75,1065.75c-105.961,-130.539 -89.378,-312.839 36.611,-406.573c32.683,-24.316 37.683,-22.827 50.839,15.65c2.4,7.011 3.683,14.4 5.789,21.528c13.528,45.772 4.222,93.35 9.767,146.233c26.983,-38.605 35.2,-77.088 39.905,-116.122c9.111,-75.65 -3.928,-147.189 -46.528,-211.489c-12.244,-18.489 -27.189,-32.1 -44.466,-2.533c-39.234,67.161 -88.561,127.244 -135.067,189.25c-137.083,182.778 -130.856,395.683 16.606,570.3c71.35,84.489 150.761,161.317 226.588,241.55c58.717,62.139 110.023,129.506 146.345,207.622c40.672,87.478 56.139,178.206 37.594,273.567c-22.466,115.55 -88.789,204.294 -173.544,281.561c9.022,6.406 15.661,1.333 23.567,-3.444c55.877,-33.767 107.816,-72.617 156.672,-115.967c184.155,-163.406 223.878,-399.311 104.639,-614.533c-58.295,-105.217 -145.017,-184.6 -231.873,-264.289c-75.722,-69.467 -158.177,-131.906 -223.444,-212.311" style="fill:#ffa30a;fill-rule:nonzero;"/><path d="M1188.72,1277.04c-147.5,190.234 -142.945,416.734 11.311,600.8c67.816,80.928 157.661,134.522 240.361,197.195c129.672,98.255 244.589,207.711 268.955,388.927c12.095,-86.811 9.706,-164.472 -8.355,-242.083c-30.045,-129.083 -109.856,-224.85 -203.906,-311.744c-54.355,-50.223 -109.827,-99.339 -155.933,-157.784c-100.178,-126.989 -140.378,-266.677 -86.428,-424.322c30.745,-89.844 83.478,-167.1 145.695,-238.589c-82.689,49.206 -153.017,111.917 -211.7,187.6" style="fill:#ffa30a;fill-rule:nonzero;"/><path d="M1482.19,2585.95c78.25,21.995 143.278,61.989 190.023,129.8c16.927,24.556 53.222,23.267 69.633,-2.667c19.111,-30.205 44.5,-53.444 73.278,-74.022c40.1,-28.678 84.455,-47.644 132.272,-57.361c17.817,-3.622 13.367,-14.083 13.994,-24.394c0.784,-12.861 -5.916,-12.484 -16.427,-11.417c-147.15,14.928 -294.423,21.361 -441.873,3.767c-5,-0.256 -10.6,-2.095 -14.894,-0.478c-12.65,4.772 -32.139,-18.306 -38.811,9.017c-7.256,29.694 19.772,24.094 32.805,27.755" style="fill:#ffa30a;fill-rule:nonzero;"/></g></svg>