<?xml version="1.0" encoding="utf-8"?>
<!-- Generator: Adobe Illustrator 19.0.0, SVG Export Plug-In . SVG Version: 6.00 Build 0)  -->
<svg version="1.1" id="Layer_1" xmlns="http://www.w3.org/2000/svg" xmlns:xlink="http://www.w3.org/1999/xlink" x="0px" y="0px"
	 viewBox="0 0 1440 1024" style="enable-background:new 0 0 1440 1024;" xml:space="preserve">
<style type="text/css">
	.st0{fill:#0098ff;}
	.st1{fill:#F7941E;}
  .st2{fill:#00000;}
</style>
<rect id="XMLID_15_" width="1440" height="1024" fill="#d4d0cb"/>
<g id="XMLID_14_">
	<g id="XMLID_1634_">
		<path id="XMLID_1949_" class="st0" d="M688.4,565.1c0,0,74.2,16.8,120.5-28.9c0,0-110,61.6-186.5-48.2c0,0-28.9-39.2-10.2-124.7
			c0,0-6.3,2.4-11.1,7.9c0,0-5.1-13.6,14-38.8c0,0-1.9,0.5-4,2.8c0,0-1.6-4.7,5.2-14.3c0,0-31.7,25.5-37.6,75.5
			c0,0,5.6-22.9,9.6-26.1c0,0-11.3,19.3-11.3,72.2c0,0-4.3-13.9-2.5-24.2c0,0-5.2,25.1,1.4,43.7c0,0-15.7-29,6.2-97.4
			c0,0-6.4,1.7-11.7,38.9c0,0-1.4-72.1,82.8-121.3c0,0-17.9,6.2-46.3,28.9c0,0,23.5-21.4,27-24.9c0,0,2.4-4-5.9,0.5
			c0,0-109.6,58.3-61.5,182.7C566.8,469.5,590,546.9,688.4,565.1z M681.7,548.7c0,0-66.1-3.9-84.6-70.2
			C597.1,478.4,616.5,531.3,681.7,548.7z"/>
		<path id="XMLID_1946_" class="st0" d="M609.2,388.2c0-0.7,5.3-25.5,13-31.7c0,0-11.8,6.4-13,31S609.2,388.2,609.2,388.2z"/>
		<path id="XMLID_1943_" class="st0" d="M632.7,338.3c0,0,4.6-5.9,5.7-6.2c0,0-7,2.5-7,4.8L632.7,338.3z"/>
		<path id="XMLID_1940_" class="st0" d="M645.4,293.9c0.8-0.3,1.2-0.4,1.2-0.4C646.4,293.6,645.9,293.7,645.4,293.9z"/>
		<path id="XMLID_1937_" class="st0" d="M613.7,318c0,0,25-21,31.8-24C641.3,295.3,627.4,301.1,613.7,318z"/>
		<path id="XMLID_1934_" class="st0" d="M749,274.3c0,0-50.6-20.9-94.1,6.1C654.8,280.4,697.8,263.4,749,274.3z"/>
		<path id="XMLID_1931_" class="st0" d="M654.1,295.7c0,0,28.2-14.8,50.1-16.2C704.2,279.5,672,277.9,654.1,295.7z"/>
		<path id="XMLID_1928_" class="st0" d="M695.7,294.4c0,0-7.2-1.3-11,2.5l0.9,1.5C685.6,298.4,691.5,294,695.7,294.4z"/>
		<path id="XMLID_1925_" class="st0" d="M650.9,317.9c-0.4,0.4-0.3,1.1,0.2,1.4c0.3,0.2,0.7,0.2,1.1,0l2.8-2.1
			c0.5-0.4,0.5-1.1,0-1.5l-0.5-0.4c-0.4-0.3-0.9-0.3-1.3,0.1L650.9,317.9z"/>
		<polygon id="XMLID_1924_" class="st1" points="803.5,316 805,317.1 804.4,318.9 805.9,317.8 807.5,318.9 806.9,317.1 808.4,316 
			806.5,316 805.9,314.2 805.3,316 		"/>
		<polygon id="XMLID_1923_" class="st1" points="819.1,317 818.6,318.3 817.2,318.3 818.4,319.1 817.9,320.5 819.1,319.7 
			820.2,320.5 819.8,319.1 820.9,318.3 819.5,318.3 		"/>
		<polygon id="XMLID_1922_" class="st1" points="828,306 829.2,305.1 830.5,306 830,304.5 831.3,303.6 829.7,303.6 829.2,302.1 
			828.8,303.6 827.2,303.6 828.4,304.5 		"/>
		<polygon id="XMLID_1921_" class="st1" points="852.4,315.8 854,314.7 855.6,315.8 855,314 856.5,312.8 854.6,312.8 854,310.9 
			853.4,312.8 851.4,312.8 853,314 		"/>
		<polygon id="XMLID_1920_" class="st1" points="848.7,341.9 847.7,345 850.4,343.1 853.1,345 852,341.9 854.7,339.9 851.4,339.9 
			850.4,336.7 849.3,339.9 846,339.9 		"/>
		<polygon id="XMLID_1919_" class="st1" points="854,346.7 853.4,348.3 851.7,348.3 853.1,349.4 852.6,351 854,350 855.4,351 
			854.8,349.4 856.2,348.3 854.5,348.3 		"/>
		<polygon id="XMLID_1918_" class="st1" points="859.2,339.7 861.3,338.1 863.5,339.7 862.7,337.2 864.8,335.6 862.1,335.6 
			861.3,333.1 860.5,335.6 857.9,335.6 860,337.2 		"/>
		<polygon id="XMLID_1917_" class="st1" points="835.6,365.8 832.9,365.8 835.1,367.4 834.2,370.1 836.5,368.4 838.7,370.1 
			837.8,367.4 840.1,365.8 837.3,365.8 836.5,363.2 		"/>
		<polygon id="XMLID_1916_" class="st1" points="839.6,365.7 842.6,363.6 845.6,365.7 844.4,362.2 847.4,360.1 843.7,360.1 
			842.6,356.6 841.5,360.1 837.8,360.1 840.8,362.2 		"/>
		<polygon id="XMLID_1915_" class="st1" points="856.1,373.1 855,376.5 857.9,374.4 860.7,376.5 859.6,373.1 862.5,371 859,371 
			857.9,367.6 856.8,371 853.2,371 		"/>
		<polygon id="XMLID_1914_" class="st1" points="871.5,353.9 873,352.8 874.4,353.9 873.9,352.2 875.3,351.1 873.5,351.1 873,349.4 
			872.4,351.1 870.6,351.1 872,352.2 		"/>
		<polygon id="XMLID_1913_" class="st1" points="857.9,386.2 857,388.9 854.1,388.9 856.4,390.6 855.5,393.3 857.9,391.6 
			860.2,393.3 859.3,390.6 861.6,388.9 858.7,388.9 		"/>
		<polygon id="XMLID_1912_" class="st1" points="873.8,382.9 872.5,386.9 868.3,386.9 871.7,389.3 870.4,393.3 873.8,390.8 
			877.1,393.3 875.8,389.3 879.2,386.9 875.1,386.9 		"/>
		<polygon id="XMLID_1911_" class="st1" points="857.3,405.7 856.2,402.5 855.2,405.7 851.8,405.7 854.6,407.7 853.5,410.9 
			856.2,408.9 859,410.9 857.9,407.7 860.7,405.7 		"/>
		<polygon id="XMLID_1910_" class="st1" points="875.7,405.3 878.3,407.2 877.3,410.3 879.9,408.4 882.5,410.3 881.5,407.2 
			884.1,405.3 880.9,405.3 879.9,402.2 878.9,405.3 		"/>
		<polygon id="XMLID_1909_" class="st1" points="871.9,432 870.6,428 869.3,432 865,432 868.4,434.5 867.1,438.6 870.6,436.1 
			874,438.6 872.7,434.5 876.1,432 		"/>
		<polygon id="XMLID_1908_" class="st1" points="840.4,461.3 844.5,458.3 839.4,458.3 837.8,453.5 836.2,458.3 831.2,458.3 
			835.3,461.3 833.7,466.1 837.8,463.1 841.9,466.1 		"/>
		<polygon id="XMLID_1907_" class="st1" points="852.4,463.8 851.7,465.9 849.4,465.9 851.3,467.2 850.6,469.4 852.4,468 
			854.2,469.4 853.5,467.2 855.3,465.9 853.1,465.9 		"/>
		<polygon id="XMLID_1906_" class="st1" points="836.9,429 836.1,431.3 833.6,431.3 835.6,432.8 834.9,435.1 836.9,433.7 
			838.9,435.1 838.1,432.8 840.1,431.3 837.6,431.3 		"/>
		<polygon id="XMLID_1905_" class="st1" points="851.9,440.4 851.2,438.2 850.4,440.4 848,440.4 850,441.9 849.2,444.1 851.2,442.7 
			853.1,444.1 852.4,441.9 854.3,440.4 		"/>
		<polygon id="XMLID_1904_" class="st1" points="852.4,481.9 854.2,483.2 853.5,481.1 855.3,479.8 853.1,479.8 852.4,477.7 
			851.7,479.8 849.5,479.8 851.3,481.1 850.6,483.2 		"/>
		<polygon id="XMLID_1903_" class="st1" points="831.2,471.7 830.2,474.8 826.9,474.8 829.5,476.8 828.5,479.9 831.2,477.9 
			833.8,479.9 832.8,476.8 835.4,474.8 832.2,474.8 		"/>
		<polygon id="XMLID_1902_" class="st1" points="818.7,500.8 821,502.5 820.1,499.7 822.5,498 819.6,498 818.7,495.2 817.8,498 
			814.9,498 817.2,499.7 816.3,502.5 		"/>
		<polygon id="XMLID_1901_" class="st1" points="833.9,507.9 832.6,503.9 831.3,507.9 827.1,507.9 830.5,510.3 829.2,514.3 
			832.6,511.8 835.9,514.3 834.7,510.3 838,507.9 		"/>
		<polygon id="XMLID_1900_" class="st1" points="845.8,500.6 844.5,496.5 843.1,500.6 838.7,500.6 842.3,503.2 840.9,507.3 
			844.5,504.8 848,507.3 846.6,503.2 850.2,500.6 		"/>
		<polygon id="XMLID_1899_" class="st1" points="824.3,520.2 823.6,518 822.9,520.2 820.6,520.2 822.5,521.5 821.8,523.7 
			823.6,522.4 825.5,523.7 824.8,521.5 826.6,520.2 		"/>
		<polygon id="XMLID_1898_" class="st1" points="786.4,542.8 788.6,541.2 790.8,542.8 790,540.2 792.2,538.6 789.4,538.6 788.6,536 
			787.8,538.6 785,538.6 787.2,540.2 		"/>
		<polygon id="XMLID_1897_" class="st1" points="787,522.4 788.6,521.3 790.2,522.4 789.6,520.5 791.2,519.4 789.2,519.4 
			788.6,517.5 788,519.4 786,519.4 787.6,520.5 		"/>
		<polygon id="XMLID_1896_" class="st1" points="808.9,529 810.9,530.4 810.1,528.1 812.1,526.7 809.6,526.7 808.9,524.3 
			808.1,526.7 805.7,526.7 807.6,528.1 806.9,530.4 		"/>
		<polygon id="XMLID_1895_" class="st1" points="802.6,294.4 802.1,296 803.5,295.1 804.8,296 804.3,294.4 805.7,293.5 804,293.5 
			803.5,291.9 802.9,293.5 801.3,293.5 		"/>
		<polygon id="XMLID_1894_" class="st1" points="777.4,292 778.7,291 780,292 779.6,290.4 780.9,289.5 779.2,289.5 778.7,287.9 
			778.2,289.5 776.6,289.5 777.9,290.4 		"/>
		<circle id="XMLID_1891_" class="st0" cx="757.6" cy="271.1" r="1.8"/>
		<circle id="XMLID_1888_" class="st0" cx="780.1" cy="278.5" r="1.6"/>
		<circle id="XMLID_1885_" class="st0" cx="789.5" cy="283.7" r="2.5"/>
		<circle id="XMLID_1882_" class="st0" cx="800.5" cy="287.6" r="2"/>
		<circle id="XMLID_1879_" class="st0" cx="793.9" cy="296.8" r="1.6"/>
		<circle id="XMLID_1876_" class="st0" cx="812.7" cy="297.6" r="3.6"/>
		<circle id="XMLID_1873_" class="st0" cx="817.2" cy="307.9" r="2.7"/>
		<circle id="XMLID_1870_" class="st0" cx="825.1" cy="315.8" r="2.1"/>
		<circle id="XMLID_1867_" class="st0" cx="816.3" cy="330.2" r="2.9"/>
		<circle id="XMLID_1864_" class="st0" cx="826.3" cy="358.2" r="2.3"/>
		<circle id="XMLID_1861_" class="st0" cx="832.5" cy="325.7" r="2.9"/>
		<circle id="XMLID_1858_" class="st0" cx="834.7" cy="333.1" r="2.1"/>
		<circle id="XMLID_1855_" class="st0" cx="841.4" cy="333.6" r="2.8"/>
		<circle id="XMLID_1852_" class="st0" cx="846" cy="327.3" r="2.9"/>
		<circle id="XMLID_1849_" class="st0" cx="842" cy="315" r="1.5"/>
		<circle id="XMLID_1846_" class="st0" cx="846" cy="348.1" r="2.1"/>
		<circle id="XMLID_1843_" class="st0" cx="866.9" cy="338.8" r="2.1"/>
		<circle id="XMLID_1840_" class="st0" cx="862.5" cy="357.6" r="1.9"/>
		<circle id="XMLID_1837_" class="st0" cx="854.7" cy="361.6" r="1.7"/>
		<circle id="XMLID_1834_" class="st0" cx="835.7" cy="378" r="2.1"/>
		<circle id="XMLID_1831_" class="st0" cx="848.2" cy="380.9" r="2.4"/>
		<circle id="XMLID_1828_" class="st0" cx="868.9" cy="373.9" r="2.6"/>
		<circle id="XMLID_1825_" class="st0" cx="882.9" cy="372.5" r="2.5"/>
		<circle id="XMLID_1822_" class="st0" cx="865.6" cy="386.9" r="2"/>
		<circle id="XMLID_1819_" class="st0" cx="851.8" cy="391.5" r="2.5"/>
		<circle id="XMLID_1816_" class="st0" cx="841.9" cy="399.6" r="2.1"/>
		<circle id="XMLID_1813_" class="st0" cx="853.2" cy="400.9" r="2.2"/>
		<circle id="XMLID_1810_" class="st0" cx="866.4" cy="404.1" r="3"/>
		<circle id="XMLID_1807_" class="st0" cx="864.4" cy="412.6" r="2.9"/>
		<circle id="XMLID_1804_" class="st0" cx="870" cy="415" r="2.3"/>
		<circle id="XMLID_1801_" class="st0" cx="848.2" cy="414.3" r="2.4"/>
		<circle id="XMLID_1798_" class="st0" cx="841.9" cy="410.3" r="2.6"/>
		<circle id="XMLID_1795_" class="st0" cx="844.5" cy="418.7" r="1.3"/>
		<circle id="XMLID_1792_" class="st0" cx="848.2" cy="423.1" r="1.2"/>
		<circle id="XMLID_1789_" class="st0" cx="855.8" cy="419.2" r="2.1"/>
		<circle id="XMLID_1786_" class="st0" cx="867" cy="423.1" r="3.4"/>
		<circle id="XMLID_1783_" class="st0" cx="876.6" cy="425.6" r="2.3"/>
		<circle id="XMLID_1780_" class="st0" cx="871.9" cy="425.6" r="1.3"/>
		<circle id="XMLID_1777_" class="st0" cx="854.1" cy="427" r="2.9"/>
		<circle id="XMLID_1774_" class="st0" cx="862.5" cy="433.8" r="2.3"/>
		<circle id="XMLID_1771_" class="st0" cx="843.1" cy="431.1" r="2.8"/>
		<circle id="XMLID_1768_" class="st0" cx="822.3" cy="429" r="1.6"/>
		<circle id="XMLID_1765_" class="st0" cx="823.9" cy="438.6" r="2.9"/>
		<circle id="XMLID_1762_" class="st0" cx="825.5" cy="453.9" r="2.7"/>
		<circle id="XMLID_1759_" class="st0" cx="842.2" cy="451.2" r="2.2"/>
		<circle id="XMLID_1756_" class="st0" cx="851.2" cy="456.6" r="3.2"/>
		<circle id="XMLID_1753_" class="st0" cx="857.9" cy="452.7" r="2.9"/>
		<circle id="XMLID_1750_" class="st0" cx="864.1" cy="453.9" r="2.7"/>
		<circle id="XMLID_1747_" class="st0" cx="864.8" cy="446.1" r="1.8"/>
		<circle id="XMLID_1744_" class="st0" cx="876.1" cy="445.7" r="2.8"/>
		<circle id="XMLID_1741_" class="st0" cx="869.8" cy="459.4" r="2.1"/>
		<circle id="XMLID_1738_" class="st0" cx="860.2" cy="464.9" r="1.8"/>
		<circle id="XMLID_1735_" class="st0" cx="846.9" cy="463.8" r="2.3"/>
		<circle id="XMLID_1732_" class="st0" cx="822.3" cy="460.8" r="1.2"/>
		<circle id="XMLID_1729_" class="st0" cx="828.9" cy="450.6" r="1.2"/>
		<circle id="XMLID_1726_" class="st0" cx="834.3" cy="467.3" r="1.2"/>
		<circle id="XMLID_1723_" class="st0" cx="827.1" cy="471.7" r="1.4"/>
		<circle id="XMLID_1720_" class="st0" cx="814.2" cy="475.8" r="1.9"/>
		<circle id="XMLID_1717_" class="st0" cx="817" cy="479.3" r="1.7"/>
		<circle id="XMLID_1714_" class="st0" cx="825.5" cy="485.7" r="1.8"/>
		<circle id="XMLID_1711_" class="st0" cx="841.3" cy="476.2" r="2.3"/>
		<circle id="XMLID_1708_" class="st0" cx="854.4" cy="473.9" r="2.3"/>
		<circle id="XMLID_1705_" class="st0" cx="865.9" cy="472.7" r="2.1"/>
		<circle id="XMLID_1702_" class="st0" cx="873.3" cy="466.1" r="1.7"/>
		<circle id="XMLID_1699_" class="st0" cx="855.3" cy="489.3" r="2.5"/>
		<circle id="XMLID_1696_" class="st0" cx="844.6" cy="486.3" r="2.6"/>
		<circle id="XMLID_1693_" class="st0" cx="845.9" cy="494.2" r="1.3"/>
		<circle id="XMLID_1690_" class="st0" cx="840" cy="491.8" r="1.9"/>
		<circle id="XMLID_1687_" class="st0" cx="834.3" cy="491.3" r="2.3"/>
		<circle id="XMLID_1684_" class="st0" cx="829.2" cy="499.7" r="2"/>
		<circle id="XMLID_1681_" class="st0" cx="812.7" cy="493.7" r="1.6"/>
		<circle id="XMLID_1678_" class="st0" cx="810.4" cy="506.8" r="1.6"/>
		<circle id="XMLID_1663_" class="st0" cx="819.5" cy="510.1" r="1.9"/>
		<circle id="XMLID_1660_" class="st0" cx="812.7" cy="518.9" r="2.2"/>
		<circle id="XMLID_1657_" class="st0" cx="802.4" cy="520" r="2.4"/>
		<circle id="XMLID_1654_" class="st0" cx="797.1" cy="522.9" r="0.9"/>
		<circle id="XMLID_1650_" class="st0" cx="787.8" cy="527.4" r="0.8"/>
		<circle id="XMLID_1647_" class="st0" cx="798.5" cy="537.2" r="0.9"/>
		<circle id="XMLID_1644_" class="st0" cx="804.1" cy="533.6" r="2.1"/>
		<circle id="XMLID_1641_" class="st0" cx="811.1" cy="532.6" r="1.8"/>
		<circle id="XMLID_1638_" class="st0" cx="820.6" cy="528.1" r="1.8"/>
		<path id="XMLID_1637_" class="st1" d="M721.5,374.4c-10.7-13.2-9-31.7,3.7-41.1c3.3-2.5,3.8-2.3,5.1,1.6c0.2,0.7,0.4,1.5,0.6,2.2
			c1.4,4.6,0.4,9.4,1,14.8c2.7-3.9,3.6-7.8,4-11.8c0.9-7.7-0.4-14.9-4.7-21.4c-1.2-1.9-2.8-3.2-4.5-0.3c-4,6.8-9,12.9-13.7,19.2
			c-13.9,18.5-13.2,40,1.7,57.7c7.2,8.5,15.3,16.3,22.9,24.4c5.9,6.3,11.1,13.1,14.8,21c4.1,8.9,5.7,18,3.8,27.7
			c-2.3,11.7-9,20.7-17.6,28.5c0.9,0.6,1.6,0.1,2.4-0.3c5.7-3.4,10.9-7.3,15.9-11.7c18.6-16.5,22.7-40.4,10.6-62.2
			c-5.9-10.6-14.7-18.7-23.5-26.7C736.4,388.9,728.1,382.6,721.5,374.4z"/>
		<path id="XMLID_1636_" class="st1" d="M674.8,395.8c-14.9,19.2-14.5,42.2,1.1,60.8c6.9,8.2,16,13.6,24.3,20
			c13.1,9.9,24.8,21,27.2,39.4c1.2-8.8,1-16.6-0.8-24.5c-3-13.1-11.1-22.8-20.6-31.5c-5.5-5.1-11.1-10.1-15.8-16
			c-10.1-12.9-14.2-27-8.7-42.9c3.1-9.1,8.4-16.9,14.7-24.1C687.9,381.8,680.8,388.1,674.8,395.8z"/>
		<path id="XMLID_1635_" class="st1" d="M704.5,528.2c7.9,2.2,14.5,6.3,19.2,13.1c1.7,2.5,5.4,2.4,7-0.3c1.9-3.1,4.5-5.4,7.4-7.5
			c4.1-2.9,8.5-4.8,13.4-5.8c1.8-0.4,1.4-1.4,1.4-2.5c0.1-1.3-0.6-1.3-1.7-1.2c-14.9,1.5-29.8,2.2-44.7,0.4c-0.5,0-1.1-0.2-1.5,0
			c-1.3,0.5-3.3-1.9-3.9,0.9C700.5,528.4,703.2,527.9,704.5,528.2z"/>
	</g>
	<g id="XMLID_303_">
		<path id="XMLID_870_" class="st2" d="M605.9,708.2c-6.1-0.1-11.2-0.3-15.5-0.2c-11.7,0.2-17.5,2-20.3,10.3l0.8,0.3
			c2.3-4.3,5-8,17-8.3v41.6c-0.2,2.2-2.1,3.9-4.4,3.9h-0.9l0,0.7h23.3c14.7,0,24.8-9.7,24.8-24.2
			C630.7,717.8,620.6,708.5,605.9,708.2z M605.9,754.4h-13.6v-44.2h13.6c11.8,0.1,19.6,8.9,19.6,22.1
			C625.5,745.6,617.7,754.4,605.9,754.4z"/>
		<path id="XMLID_871_" class="st2" d="M657.2,754.3h-9.9v-20.7h11.7c1.8,0.1,3.3,1.6,3.3,3.4v1l0.7,0v-10.9l-0.7,0v1
			c0,1.9-1.5,3.4-3.3,3.4h-11.7v-21.3h14.1c2.2,0.1,3.9,1.9,3.9,4.1v1.2l0.7,0v-5.5v-1.2v-2c-1.3,0.5-5.3,1.2-8.2,1.3h-20.2l0,0.7
			h0.9c2.3,0,4.4,1.7,4.4,4v38.6c0,2.4-2,4.3-4.4,4.3h-0.9l0,0.7h28.6l4-11.1l-0.7,0C667.4,750.6,664.5,754.3,657.2,754.3z"/>
		<path id="XMLID_875_" class="st2" d="M685,723.6c-2.2-2-2.8-4.6-2.8-6.4c0-4.2,3.4-7.9,8.5-7.9c4.3,0,7.8,2.7,7.8,7.1h0.7v-8.5
			h-2.7c-1.8-0.4-4.1-0.7-5.9-0.7c-7.9,0-12.1,5.8-12.1,11.7c0,2.7,0.9,6,3.7,8.6l13.2,12.3c1.7,1.6,2.7,3.7,2.7,6.4
			c0,5.5-4.2,9-9.2,9.2c-6.1,0.3-10.6-4.2-9.9-11.3h-0.6c-1.1,3.1-1.3,7.5-0.8,9.6c2.7,2.8,8.3,3.8,11.7,3.8
			c7.9,0,12.9-5.3,12.9-12.9c0-2.8-0.7-5.9-3.5-8.4L685,723.6z"/>
		<path id="XMLID_876_" class="st2" d="M724.4,708.8h0.9l0-0.7h-15.1l0,0.7h0.9c2.4,0,4.4,1.9,4.4,4.3v38.3c0,2.4-2,4.3-4.4,4.3
			h-0.9l0,0.7h15.1l0-0.7h-0.9c-2.4,0-4.4-1.9-4.4-4.3v-38.3C720.1,710.8,722,708.8,724.4,708.8z"/>
		<path id="XMLID_877_" class="st2" d="M767.9,734h1.1c2.2,0,3.5,1.1,3.5,3.1v12.2c-4,3.7-9.6,6-15.6,6
			c-11.7-0.1-19.6-9.3-19.6-23.1c0-13.8,7.9-23.1,19.6-23.1c9.1,0,15.4,4.4,17.5,12.3h0.6l-1.4-9.7c-4.1-2.6-9.1-4.7-16.7-4.7
			c-14.7,0-24.8,10-24.8,25.1c0,15,10.1,25,24.8,25.1c10.4,0,16.8-4.7,20-8.9v-11.4c0-2,1.2-3.1,3.5-3.1l1,0v-0.7h-13.5V734z"/>
		<path id="XMLID_878_" class="st2" d="M823.8,708.8h1.3c2.3,0,4.2,1.9,4.3,4.2v34.2l-37.6-40.1h-0.7c0,0,0.6,3.9,0.6,8.6v35.8
			c0,2.3-1.9,4.2-4.3,4.2h-1.3l0,0.7h14.2l0-0.7h-1.3c-2.3,0-4.2-1.8-4.3-4.1v-34.4l37.6,40.1h0.6c0,0-0.6-4.4-0.6-8.8V713
			c0.1-2.3,2-4.1,4.3-4.1h1.3l0-0.7l-14.2,0L823.8,708.8z"/>
		<path id="XMLID_879_" class="st2" d="M852.9,723.6c-2.2-2-2.8-4.6-2.8-6.4c0-4.2,3.4-7.9,8.5-7.9c4.3,0,7.8,2.7,7.8,7.1h0.7v-8.5
			h-2.7c-1.8-0.4-4.1-0.7-5.9-0.7c-7.9,0-12.1,5.8-12.1,11.7c0,2.7,0.9,6,3.7,8.6l13.2,12.3c1.7,1.6,2.7,3.7,2.7,6.4
			c0,5.5-4.2,9-9.2,9.2c-6.1,0.3-10.6-4.2-9.9-11.3h-0.6c-1.1,3.1-1.3,7.5-0.8,9.6c2.7,2.8,8.3,3.8,11.7,3.8
			c7.9,0,12.9-5.3,12.9-12.9c0-2.8-0.7-5.9-3.5-8.4L852.9,723.6z"/>
		<polygon id="XMLID_882_" class="st1" points="558.4,736.6 558.4,730.9 276.1,733.7 		"/>
		<polygon id="XMLID_883_" class="st1" points="881.6,730.9 881.6,736.6 1163.9,733.7 		"/>
	</g>
	<g id="XMLID_304_">
		<g id="XMLID_397_">
			<path id="XMLID_422_" class="st2" d="M384.7,683.4c-28.3,32.9-89.1-9.2-107.1-10.3h-1.4l0-1.1l48.7-76.7h-39.1
				c-3.8,0.1-6.8,3.1-6.8,6.9v2.1l-1.2,0V595v-1.9v-3.4c2.1,0.9,9.2,2.1,13.9,2.1h32.4c4.7,0,10.9-0.8,12.3-1.5v1l-50.6,80
				c4,1.1,7.8,2.5,12.4,4c47.6,15.7,65.1,16.1,85.9,7.2L384.7,683.4z"/>
			<path id="XMLID_420_" class="st2" d="M428.2,591.9v1.2h-1.9c-3.3,0-5.9,2.3-6.1,5.5v45.9c0,18.2-12.5,30.3-31.3,30.3
				c-19.3,0-32.2-12-32.2-30.1v-45.8c-0.1-3.3-2.8-5.7-6.1-5.7h-1.9v-1.2h23.6v1.2h-1.9c-3.3,0-6,2.3-6.1,5.6v44.3
				c0,16.9,9.8,28.2,24.6,28.2c15.5,0,25.8-10.7,25.8-26.7v-45.7c-0.1-3.3-2.8-5.6-6.1-5.6h-1.9v-1.2L428.2,591.9z"/>
			<path id="XMLID_418_" class="st2" d="M495.7,654.4l-6.8,18.7h-48.1l0-1.2h1.5c4.1,0,7.4-3.3,7.4-7.3v-64.3
				c-0.1-4-3.4-7.3-7.4-7.3h-1.5l0-1.2h25.4l0,1.2h-1.5c-4.1,0-7.4,3.3-7.4,7.3v69.2H474c12.3,0,17-6.4,20.6-15.2L495.7,654.4z"/>
			<path id="XMLID_416_" class="st2" d="M567.7,591.9v1.2h-1.6c-4.8,0-9.2,3.2-11.6,6.7l-22.9,37.1v27.8c0.1,4,3.4,7.3,7.4,7.3h1.5
				l0,1.2h-25.4l0-1.2h1.5c4,0,7.3-3.2,7.4-7.2v-27.9l-22.1-36.9c-2.2-3.6-6.8-6.8-11.7-6.8h-1.6v-1.2h28.5v1.2h-1.5
				c-3.4,0-5.8,3.9-4.1,7.2l17.4,32.5l18.5-32.5l0.1-0.1c1.8-3.3-1-7.1-4.1-7.1H542v-1.2L567.7,591.9z"/>
			<path id="XMLID_414_" class="st2" d="M575.2,614.5c2.2-10.2,2.4-14.2,1.8-22.6l8.1-1.6c0.2,6-1.6,20.7-8.9,24.8L575.2,614.5z"/>
			<path id="XMLID_412_" class="st2" d="M633.5,638.9c4.6,4.3,5.8,9.5,5.8,14.1c0,12.8-8.4,21.7-21.7,21.7c-5.7,0-15.1-1.6-19.6-6.3
				c-0.9-3.6-0.4-11,1.3-16.2h1c-1.2,11.9,6.4,19.6,16.7,19c8.5-0.5,15.5-6.3,15.5-15.5c0-4.5-1.7-8.1-4.6-10.8l-22.2-20.6
				c-4.7-4.3-6.3-9.9-6.3-14.4c0-9.8,7.2-19.6,20.4-19.6c3,0,6.9,0.5,9.9,1.2h4.6v14.2h-1.1c0-7.4-5.8-11.9-13-11.9
				c-8.5,0-14.3,6.3-14.3,13.3c0,3,1,7.3,4.7,10.7L633.5,638.9z"/>
			<path id="XMLID_410_" class="st2" d="M767.3,629.6c1,30-15.4,45.1-41,45.1c-27,0-46.2-18.3-46.2-42.3c0-24,19-42.1,44.5-42.1
				c10.6,0,22.5,3.1,29.6,7.8l2.3,16.4h-1c-3.5-13.5-17.3-20.7-30.9-20.7c-20.6,0-35.9,16.5-35.9,38.4c0,21.9,15.2,39.1,38,39.1
				c23,0,39.2-15.4,39.2-41.6L767.3,629.6z"/>
			<path id="XMLID_407_" class="st2" d="M841.1,664.6c2.3,5.2,6.6,7.3,10.2,7.3h1v1.2h-26.1v-1.1h1c3,0,6.1-2.6,4.4-7.3l-7.4-19.7
				H793l-7.8,19.8c-1.6,4.6,1.5,7.2,4.4,7.2h1v1.1h-23.3v-1.2h1c3.5,0,7.8-2.1,10.2-7.3l26.3-62.4c0,0,4.3-9.4,4.3-11.9h1
				L841.1,664.6z M822.9,641.4l-14-37.2l-14.6,37.2H822.9z"/>
			<path id="XMLID_405_" class="st2" d="M943.4,591.9l0,1.2h-2.1c-3.9,0-7,3.1-7.2,6.9v59.9c0,7.5,1.1,14.8,1.1,14.8h-1.1
				l-63.2-67.5V665c0.1,3.9,3.3,6.9,7.2,6.9h2.1l0,1.2h-23.9l0-1.2h2.1c3.9,0,7.1-3.1,7.2-7v-60.2c0-7.9-1.1-14.5-1.1-14.5h1.1
				l63.1,67.4v-57.5c-0.1-3.9-3.2-7-7.2-7h-2.1l0-1.2L943.4,591.9z"/>
			<path id="XMLID_402_" class="st2" d="M993.6,591.9c24.8,0,41.6,16.2,41.6,40.6c0,24.3-16.9,40.5-41.6,40.5h-39.3l0-1.2h1.5
				c4.1,0,7.3-3.2,7.4-7.3v-65c0-3.7-3.6-6.6-7.4-6.6h-1.5l0-1.1L993.6,591.9z M970.8,669.6h22.8c19.9,0,32.9-14.8,32.9-37
				c0-22.3-13.2-37.1-32.9-37.1h-22.8V669.6z"/>
			<path id="XMLID_400_" class="st2" d="M1100.4,654.4l-6.8,18.7h-48.1l0-1.2h1.5c4.1,0,7.4-3.3,7.4-7.3v-64.3
				c-0.1-4-3.4-7.3-7.4-7.3h-1.5l2-1.2h25.4l0,1.2h-1.5c-4.1,0-7.4,3.3-7.4,7.3v69.2h16.6c12.3,0,17-6.4,20.6-15.2L1100.4,654.4z"/>
			<path id="XMLID_398_" class="st2" d="M1163.9,654.4l-6.8,18.7H1109l0-1.2h1.5c4.1,0,7.4-3.3,7.4-7.3v-64.9c0-3.7-3.5-6.6-7.4-6.6
				h-1.5l0-1.2h33.9c5,0,11.7-1.2,13.8-2.1v3.4v1.9v9.3l-1.2,0v-2.1c0-3.7-2.9-6.7-6.5-6.9h-23.6v35.8h19.6c3.1-0.1,5.6-2.6,5.6-5.7
				v-1.7l1.1,0v18.4l-1.1,0v-1.7c0-3.1-2.4-5.6-5.5-5.7h-19.7v34.7h16.6c12.3,0,17-6.4,20.6-15.2L1163.9,654.4z"/>
		</g>
	</g>
</g>
</svg>
