<?xml version="1.0" encoding="UTF-8" standalone="no"?>
<!DOCTYPE svg PUBLIC "-//W3C//DTD SVG 1.1//EN" "http://www.w3.org/Graphics/SVG/1.1/DTD/svg11.dtd">
<svg width="100%" height="100%" viewBox="0 0 1440 1024" version="1.1" xmlns="http://www.w3.org/2000/svg" xmlns:xlink="http://www.w3.org/1999/xlink" xml:space="preserve" xmlns:serif="http://www.serif.com/" style="fill-rule:evenodd;clip-rule:evenodd;stroke-linejoin:round;stroke-miterlimit:2;">
    <g id="XMLID_14_" transform="matrix(0.412887,0,0,0.519155,430.161,252.956)">
        <rect x="0" y="0" width="1440" height="1024" style="fill:rgb(248,249,250);"/>
    </g>
    <g id="XMLID_1634_">
        <path id="XMLID_1949_" d="M669.8,746.5C669.8,746.5 787.5,773.1 861.1,700.7C861.1,700.7 686.5,798.5 565.1,624.2C565.1,624.2 519.3,562 549,426.2C549,426.2 539,430 531.4,438.7C531.4,438.7 523.3,417 553.7,377.1C553.7,377.1 550.7,377.9 547.3,381.6C547.3,381.6 544.8,374.2 555.6,358.9C555.6,358.9 505.3,399.4 496,478.8C496,478.8 504.9,442.4 511.2,437.4C511.2,437.4 493.3,468 493.3,552.1C493.3,552.1 486.5,530 489.3,513.6C489.3,513.6 481.1,553.5 491.6,582.9C491.6,582.9 466.7,536.9 501.5,428.2C501.5,428.2 491.4,431 483,490C483,490 480.7,375.6 614.5,297.5C614.5,297.5 586.1,307.3 541.1,343.3C541.1,343.3 578.5,309.3 584,303.8C584,303.8 587.8,297.4 574.7,304.6C574.7,304.6 400.6,397.1 477.1,594.7C476.8,594.8 513.5,717.7 669.8,746.5ZM659.2,720.5C659.2,720.5 554.3,714.3 524.8,609C524.9,609 555.6,693 659.2,720.5Z" style="fill:rgb(0,152,255);fill-rule:nonzero;"/>
        <path id="XMLID_1946_" d="M544.1,465.8C544.1,464.7 552.6,425.3 564.8,415.4C564.8,415.4 546.1,425.6 544.1,464.6C542.1,503.7 544.1,465.8 544.1,465.8Z" style="fill:rgb(0,152,255);fill-rule:nonzero;"/>
        <path id="XMLID_1943_" d="M581.5,386.5C581.5,386.5 588.9,377.2 590.6,376.6C590.6,376.6 579.6,380.6 579.6,384.2L581.5,386.5Z" style="fill:rgb(0,152,255);fill-rule:nonzero;"/>
        <path id="XMLID_1940_" d="M601.6,316.1C602.8,315.7 603.5,315.5 603.5,315.5C603.1,315.5 602.4,315.7 601.6,316.1Z" style="fill:rgb(0,152,255);fill-rule:nonzero;"/>
        <path id="XMLID_1937_" d="M551.2,354.3C551.2,354.3 590.8,321 601.6,316.1C595.1,318.3 573.1,327.4 551.2,354.3Z" style="fill:rgb(0,152,255);fill-rule:nonzero;"/>
        <path id="XMLID_1934_" d="M766,284.9C766,284.9 685.7,251.7 616.6,294.5C616.6,294.6 684.8,267.7 766,284.9Z" style="fill:rgb(0,152,255);fill-rule:nonzero;"/>
        <path id="XMLID_1931_" d="M615.4,318.9C615.4,318.9 660.1,295.4 694.9,293.1C695,293.2 643.7,290.6 615.4,318.9Z" style="fill:rgb(0,152,255);fill-rule:nonzero;"/>
        <path id="XMLID_1928_" d="M681.4,316.9C681.4,316.9 669.9,314.8 664,320.9L665.5,323.2C665.5,323.2 674.8,316.2 681.4,316.9Z" style="fill:rgb(0,152,255);fill-rule:nonzero;"/>
        <path id="XMLID_1925_" d="M610.4,354.2C609.8,354.9 609.9,355.9 610.7,356.4C611.2,356.7 611.9,356.7 612.4,356.3L616.9,353C617.7,352.4 617.7,351.3 616.9,350.7L616,350C615.4,349.5 614.5,349.6 614,350.2L610.4,354.2Z" style="fill:rgb(0,152,255);fill-rule:nonzero;"/>
        <path id="XMLID_1924_" d="M852.5,351.2L854.9,352.9L854,355.8L856.4,354L858.8,355.8L857.9,352.9L860.3,351.2L857.3,351.2L856.4,348.3L855.5,351.2L852.5,351.2Z" style="fill:rgb(247,148,30);fill-rule:nonzero;"/>
        <path id="XMLID_1923_" d="M877.3,352.7L876.6,354.8L874.3,354.8L876.2,356.1L875.5,358.3L877.3,357L879.1,358.3L878.4,356.1L880.2,354.8L878,354.8L877.3,352.7Z" style="fill:rgb(247,148,30);fill-rule:nonzero;"/>
        <path id="XMLID_1922_" d="M891.4,335.4L893.4,333.9L895.5,335.4L894.7,333L896.7,331.5L894.2,331.5L893.4,329.1L892.6,331.5L890.1,331.5L892.2,333L891.4,335.4Z" style="fill:rgb(247,148,30);fill-rule:nonzero;"/>
        <path id="XMLID_1921_" d="M930.2,350.9L932.7,349.1L935.2,350.9L934.3,347.9L936.8,346.1L933.7,346.1L932.7,343.1L931.7,346.1L928.6,346.1L931.1,347.9L930.2,350.9Z" style="fill:rgb(247,148,30);fill-rule:nonzero;"/>
        <path id="XMLID_1920_" d="M924.3,392.2L922.7,397.3L927,394.2L931.3,397.3L929.6,392.2L933.9,389.1L928.6,389.1L927,384L925.3,389.1L920,389.1L924.3,392.2Z" style="fill:rgb(247,148,30);fill-rule:nonzero;"/>
        <path id="XMLID_1919_" d="M932.7,399.9L931.8,402.5L929.1,402.5L931.3,404.1L930.5,406.7L932.7,405.1L934.9,406.7L934.1,404.1L936.3,402.5L933.5,402.5L932.7,399.9Z" style="fill:rgb(247,148,30);fill-rule:nonzero;"/>
        <path id="XMLID_1918_" d="M941,388.7L944.4,386.3L947.8,388.7L946.5,384.7L949.9,382.3L945.7,382.3L944.4,378.3L943.1,382.3L938.9,382.3L942.3,384.7L941,388.7Z" style="fill:rgb(247,148,30);fill-rule:nonzero;"/>
        <path id="XMLID_1917_" d="M903.5,430.3L899.2,430.3L902.7,432.8L901.3,437L904.9,434.4L908.4,437L907.1,432.8L910.6,430.3L906.2,430.3L904.9,426.1L903.5,430.3Z" style="fill:rgb(247,148,30);fill-rule:nonzero;"/>
        <path id="XMLID_1916_" d="M909.9,430.1L914.6,426.7L919.4,430.1L917.6,424.6L922.3,421.1L916.4,421.1L914.6,415.6L912.8,421.1L907,421.1L911.7,424.6L909.9,430.1Z" style="fill:rgb(247,148,30);fill-rule:nonzero;"/>
        <path id="XMLID_1915_" d="M936,441.7L934.3,447.1L938.9,443.8L943.4,447.1L941.7,441.7L946.3,438.4L940.6,438.4L938.9,433L937.1,438.4L931.4,438.4L936,441.7Z" style="fill:rgb(247,148,30);fill-rule:nonzero;"/>
        <path id="XMLID_1914_" d="M960.5,411.4L962.8,409.7L965.2,411.4L964.3,408.6L966.6,406.9L963.7,406.9L962.8,404.1L961.9,406.9L959,406.9L961.4,408.6L960.5,411.4Z" style="fill:rgb(247,148,30);fill-rule:nonzero;"/>
        <path id="XMLID_1913_" d="M938.9,462.6L937.4,466.9L932.9,466.9L936.6,469.6L935.2,473.9L938.9,471.2L942.5,473.9L941.1,469.6L944.8,466.9L940.3,466.9L938.9,462.6Z" style="fill:rgb(247,148,30);fill-rule:nonzero;"/>
        <path id="XMLID_1912_" d="M964.1,457.4L962.1,463.7L955.4,463.7L960.8,467.6L958.7,473.9L964.1,470L969.5,473.9L967.4,467.6L972.8,463.7L966.1,463.7L964.1,457.4Z" style="fill:rgb(247,148,30);fill-rule:nonzero;"/>
        <path id="XMLID_1911_" d="M937.9,493.5L936.3,488.4L934.6,493.5L929.3,493.5L933.6,496.7L931.9,501.8L936.3,498.6L940.6,501.8L939,496.7L943.3,493.5L937.9,493.5Z" style="fill:rgb(247,148,30);fill-rule:nonzero;"/>
        <path id="XMLID_1910_" d="M967.1,492.9L971.3,495.9L969.7,500.8L973.9,497.8L978,500.8L976.4,495.9L980.6,492.9L975.5,492.9L973.9,488L972.3,492.9L967.1,492.9Z" style="fill:rgb(247,148,30);fill-rule:nonzero;"/>
        <path id="XMLID_1909_" d="M961.1,535.4L959,528.9L956.9,535.4L950.2,535.4L955.7,539.3L953.6,545.8L959,541.8L964.5,545.8L962.4,539.3L967.9,535.4L961.1,535.4Z" style="fill:rgb(247,148,30);fill-rule:nonzero;"/>
        <path id="XMLID_1908_" d="M911.1,581.8L917.6,577.1L909.5,577.1L907,569.4L904.5,577.1L896.5,577.1L903,581.8L900.5,589.5L907,584.7L913.6,589.5L911.1,581.8Z" style="fill:rgb(247,148,30);fill-rule:nonzero;"/>
        <path id="XMLID_1907_" d="M930.1,585.8L929,589.2L925.5,589.2L928.4,591.2L927.3,594.6L930.1,592.5L933,594.6L931.9,591.2L934.8,589.2L931.2,589.2L930.1,585.8Z" style="fill:rgb(247,148,30);fill-rule:nonzero;"/>
        <path id="XMLID_1906_" d="M905.5,530.5L904.3,534.2L900.4,534.2L903.5,536.5L902.3,540.3L905.5,538L908.7,540.3L907.5,536.5L910.7,534.2L906.7,534.2L905.5,530.5Z" style="fill:rgb(247,148,30);fill-rule:nonzero;"/>
        <path id="XMLID_1905_" d="M929.4,548.7L928.2,545.1L927.1,548.7L923.2,548.7L926.3,551L925.1,554.6L928.2,552.3L931.3,554.6L930.1,551L933.2,548.7L929.4,548.7Z" style="fill:rgb(247,148,30);fill-rule:nonzero;"/>
        <path id="XMLID_1904_" d="M930.1,614.6L933,616.7L931.9,613.3L934.8,611.2L931.2,611.2L930.1,607.9L929.1,611.2L925.5,611.2L928.4,613.3L927.3,616.7L930.1,614.6Z" style="fill:rgb(247,148,30);fill-rule:nonzero;"/>
        <path id="XMLID_1903_" d="M896.5,598.4L894.9,603.3L889.7,603.3L893.9,606.4L892.3,611.3L896.5,608.3L900.7,611.3L899.1,606.4L903.3,603.3L898.1,603.3L896.5,598.4Z" style="fill:rgb(247,148,30);fill-rule:nonzero;"/>
        <path id="XMLID_1902_" d="M876.7,644.5L880.4,647.2L879,642.8L882.7,640.1L878.1,640.1L876.7,635.7L875.2,640.1L870.6,640.1L874.3,642.8L872.9,647.2L876.7,644.5Z" style="fill:rgb(247,148,30);fill-rule:nonzero;"/>
        <path id="XMLID_1901_" d="M900.8,655.8L898.7,649.5L896.7,655.8L890.1,655.8L895.4,659.7L893.4,665.9L898.7,662.1L904.1,665.9L902,659.7L907.4,655.8L900.8,655.8Z" style="fill:rgb(247,148,30);fill-rule:nonzero;"/>
        <path id="XMLID_1900_" d="M919.7,644.2L917.6,637.6L915.4,644.2L908.5,644.2L914.1,648.3L912,654.9L917.6,650.8L923.2,654.9L921.1,648.3L926.7,644.2L919.7,644.2Z" style="fill:rgb(247,148,30);fill-rule:nonzero;"/>
        <path id="XMLID_1899_" d="M885.6,675.3L884.5,671.8L883.4,675.3L879.7,675.3L882.7,677.4L881.6,680.9L884.5,678.8L887.5,680.9L886.3,677.4L889.3,675.3L885.6,675.3Z" style="fill:rgb(247,148,30);fill-rule:nonzero;"/>
        <path id="XMLID_1898_" d="M825.4,711.2L828.9,708.6L832.4,711.2L831.1,707.1L834.5,704.5L830.2,704.5L828.9,700.4L827.6,704.5L823.2,704.5L826.7,707.1L825.4,711.2Z" style="fill:rgb(247,148,30);fill-rule:nonzero;"/>
        <path id="XMLID_1897_" d="M826.4,678.8L828.9,677L831.4,678.8L830.5,675.9L833,674L829.9,674L828.9,671.1L827.9,674L824.8,674L827.3,675.9L826.4,678.8Z" style="fill:rgb(247,148,30);fill-rule:nonzero;"/>
        <path id="XMLID_1896_" d="M861.1,689.3L864.2,691.6L863,687.9L866.2,685.6L862.3,685.6L861.1,681.9L859.9,685.6L856,685.6L859.1,687.9L857.9,691.6L861.1,689.3Z" style="fill:rgb(247,148,30);fill-rule:nonzero;"/>
        <path id="XMLID_1895_" d="M851.2,316.9L850.3,319.5L852.5,317.9L854.6,319.5L853.8,316.9L856,315.4L853.3,315.4L852.5,312.8L851.7,315.4L849,315.4L851.2,316.9Z" style="fill:rgb(247,148,30);fill-rule:nonzero;"/>
        <path id="XMLID_1894_" d="M811.2,313L813.3,311.5L815.3,313L814.5,310.5L816.6,309L814,309L813.3,306.6L812.5,309L809.9,309L812,310.5L811.2,313Z" style="fill:rgb(247,148,30);fill-rule:nonzero;"/>
        <circle id="XMLID_1891_" cx="779.6" cy="279.9" r="2.9" style="fill:rgb(0,152,255);"/>
        <circle id="XMLID_1888_" cx="815.4" cy="291.6" r="2.5" style="fill:rgb(0,152,255);"/>
        <circle id="XMLID_1885_" cx="830.4" cy="299.9" r="4" style="fill:rgb(0,152,255);"/>
        <circle id="XMLID_1882_" cx="847.8" cy="306" r="3.1" style="fill:rgb(0,152,255);"/>
        <circle id="XMLID_1879_" cx="837.3" cy="320.7" r="2.5" style="fill:rgb(0,152,255);"/>
        <circle id="XMLID_1876_" cx="867.2" cy="322" r="5.7" style="fill:rgb(0,152,255);"/>
        <circle id="XMLID_1873_" cx="874.3" cy="338.3" r="4.2" style="fill:rgb(0,152,255);"/>
        <circle id="XMLID_1870_" cx="886.8" cy="350.9" r="3.4" style="fill:rgb(0,152,255);"/>
        <circle id="XMLID_1867_" cx="872.8" cy="373.7" r="4.6" style="fill:rgb(0,152,255);"/>
        <circle id="XMLID_1864_" cx="888.7" cy="418.1" r="3.7" style="fill:rgb(0,152,255);"/>
        <circle id="XMLID_1861_" cx="898.6" cy="366.6" r="4.7" style="fill:rgb(0,152,255);"/>
        <circle id="XMLID_1858_" cx="902.1" cy="378.3" r="3.3" style="fill:rgb(0,152,255);"/>
        <circle id="XMLID_1855_" cx="912.7" cy="379" r="4.4" style="fill:rgb(0,152,255);"/>
        <circle id="XMLID_1852_" cx="920" cy="369.1" r="4.6" style="fill:rgb(0,152,255);"/>
        <circle id="XMLID_1849_" cx="913.7" cy="349.6" r="2.4" style="fill:rgb(0,152,255);"/>
        <circle id="XMLID_1846_" cx="920" cy="402.1" r="3.4" style="fill:rgb(0,152,255);"/>
        <circle id="XMLID_1843_" cx="953.2" cy="387.4" r="3.3" style="fill:rgb(0,152,255);"/>
        <circle id="XMLID_1840_" cx="946.3" cy="417.3" r="3" style="fill:rgb(0,152,255);"/>
        <circle id="XMLID_1837_" cx="933.9" cy="423.5" r="2.6" style="fill:rgb(0,152,255);"/>
        <circle id="XMLID_1834_" cx="903.7" cy="449.5" r="3.4" style="fill:rgb(0,152,255);"/>
        <circle id="XMLID_1831_" cx="923.5" cy="454.2" r="3.8" style="fill:rgb(0,152,255);"/>
        <circle id="XMLID_1828_" cx="956.5" cy="443" r="4.1" style="fill:rgb(0,152,255);"/>
        <circle id="XMLID_1825_" cx="978.7" cy="440.9" r="4" style="fill:rgb(0,152,255);"/>
        <circle id="XMLID_1822_" cx="951.1" cy="463.7" r="3.1" style="fill:rgb(0,152,255);"/>
        <circle id="XMLID_1819_" cx="929.3" cy="471" r="4" style="fill:rgb(0,152,255);"/>
        <circle id="XMLID_1816_" cx="913.4" cy="483.9" r="3.4" style="fill:rgb(0,152,255);"/>
        <circle id="XMLID_1813_" cx="931.4" cy="485.9" r="3.5" style="fill:rgb(0,152,255);"/>
        <circle id="XMLID_1810_" cx="952.3" cy="491" r="4.8" style="fill:rgb(0,152,255);"/>
        <circle id="XMLID_1807_" cx="949.2" cy="504.6" r="4.7" style="fill:rgb(0,152,255);"/>
        <circle id="XMLID_1804_" cx="958.2" cy="508.4" r="3.7" style="fill:rgb(0,152,255);"/>
        <circle id="XMLID_1801_" cx="923.5" cy="507.3" r="3.8" style="fill:rgb(0,152,255);"/>
        <circle id="XMLID_1798_" cx="913.4" cy="500.8" r="4.1" style="fill:rgb(0,152,255);"/>
        <circle id="XMLID_1795_" cx="917.6" cy="514.2" r="2.1" style="fill:rgb(0,152,255);"/>
        <circle id="XMLID_1792_" cx="923.5" cy="521.1" r="2" style="fill:rgb(0,152,255);"/>
        <circle id="XMLID_1789_" cx="935.7" cy="515" r="3.4" style="fill:rgb(0,152,255);"/>
        <circle id="XMLID_1786_" cx="953.3" cy="521.1" r="5.4" style="fill:rgb(0,152,255);"/>
        <circle id="XMLID_1783_" cx="968.6" cy="525.2" r="3.7" style="fill:rgb(0,152,255);"/>
        <circle id="XMLID_1780_" cx="961.1" cy="525.2" r="2.1" style="fill:rgb(0,152,255);"/>
        <circle id="XMLID_1777_" cx="932.9" cy="527.3" r="4.7" style="fill:rgb(0,152,255);"/>
        <circle id="XMLID_1774_" cx="946.3" cy="538.2" r="3.7" style="fill:rgb(0,152,255);"/>
        <circle id="XMLID_1771_" cx="915.5" cy="533.9" r="4.4" style="fill:rgb(0,152,255);"/>
        <circle id="XMLID_1768_" cx="882.5" cy="530.5" r="2.5" style="fill:rgb(0,152,255);"/>
        <circle id="XMLID_1765_" cx="885" cy="545.8" r="4.6" style="fill:rgb(0,152,255);"/>
        <circle id="XMLID_1762_" cx="887.5" cy="570.1" r="4.2" style="fill:rgb(0,152,255);"/>
        <circle id="XMLID_1759_" cx="914" cy="565.8" r="3.6" style="fill:rgb(0,152,255);"/>
        <circle id="XMLID_1756_" cx="928.2" cy="574.3" r="5.1" style="fill:rgb(0,152,255);"/>
        <circle id="XMLID_1753_" cx="938.9" cy="568.1" r="4.5" style="fill:rgb(0,152,255);"/>
        <circle id="XMLID_1750_" cx="948.8" cy="570.1" r="4.2" style="fill:rgb(0,152,255);"/>
        <circle id="XMLID_1747_" cx="949.9" cy="557.6" r="2.8" style="fill:rgb(0,152,255);"/>
        <circle id="XMLID_1744_" cx="967.9" cy="557.1" r="4.5" style="fill:rgb(0,152,255);"/>
        <circle id="XMLID_1741_" cx="957.9" cy="578.9" r="3.4" style="fill:rgb(0,152,255);"/>
        <circle id="XMLID_1738_" cx="942.6" cy="587.5" r="2.8" style="fill:rgb(0,152,255);"/>
        <circle id="XMLID_1735_" cx="921.5" cy="585.8" r="3.7" style="fill:rgb(0,152,255);"/>
        <circle id="XMLID_1732_" cx="882.5" cy="581" r="2" style="fill:rgb(0,152,255);"/>
        <circle id="XMLID_1729_" cx="892.9" cy="564.8" r="2" style="fill:rgb(0,152,255);"/>
        <circle id="XMLID_1726_" cx="901.4" cy="591.3" r="1.9" style="fill:rgb(0,152,255);"/>
        <circle id="XMLID_1723_" cx="890.1" cy="598.4" r="2.3" style="fill:rgb(0,152,255);"/>
        <circle id="XMLID_1720_" cx="869.6" cy="604.8" r="3" style="fill:rgb(0,152,255);"/>
        <circle id="XMLID_1717_" cx="874" cy="610.4" r="2.7" style="fill:rgb(0,152,255);"/>
        <circle id="XMLID_1714_" cx="887.5" cy="620.6" r="2.8" style="fill:rgb(0,152,255);"/>
        <circle id="XMLID_1711_" cx="912.6" cy="605.5" r="3.7" style="fill:rgb(0,152,255);"/>
        <circle id="XMLID_1708_" cx="933.3" cy="601.8" r="3.7" style="fill:rgb(0,152,255);"/>
        <circle id="XMLID_1705_" cx="951.7" cy="599.9" r="3.4" style="fill:rgb(0,152,255);"/>
        <circle id="XMLID_1702_" cx="963.4" cy="589.4" r="2.7" style="fill:rgb(0,152,255);"/>
        <circle id="XMLID_1699_" cx="934.8" cy="626.3" r="4" style="fill:rgb(0,152,255);"/>
        <circle id="XMLID_1696_" cx="917.8" cy="621.4" r="4.1" style="fill:rgb(0,152,255);"/>
        <circle id="XMLID_1693_" cx="919.8" cy="634" r="2.1" style="fill:rgb(0,152,255);"/>
        <circle id="XMLID_1690_" cx="910.5" cy="630.2" r="3" style="fill:rgb(0,152,255);"/>
        <circle id="XMLID_1687_" cx="901.4" cy="629.5" r="3.7" style="fill:rgb(0,152,255);"/>
        <circle id="XMLID_1684_" cx="893.3" cy="642.8" r="3.1" style="fill:rgb(0,152,255);"/>
        <circle id="XMLID_1681_" cx="867.2" cy="633.2" r="2.5" style="fill:rgb(0,152,255);"/>
        <circle id="XMLID_1678_" cx="863.5" cy="654.1" r="2.5" style="fill:rgb(0,152,255);"/>
        <circle id="XMLID_1663_" cx="877.9" cy="659.2" r="3" style="fill:rgb(0,152,255);"/>
        <circle id="XMLID_1660_" cx="867.2" cy="673.2" r="3.4" style="fill:rgb(0,152,255);"/>
        <circle id="XMLID_1657_" cx="850.8" cy="675" r="3.9" style="fill:rgb(0,152,255);"/>
        <circle id="XMLID_1654_" cx="842.4" cy="679.6" r="1.4" style="fill:rgb(0,152,255);"/>
        <circle id="XMLID_1650_" cx="827.7" cy="686.7" r="1.2" style="fill:rgb(0,152,255);"/>
        <circle id="XMLID_1647_" cx="844.7" cy="702.2" r="1.4" style="fill:rgb(0,152,255);"/>
        <circle id="XMLID_1644_" cx="853.4" cy="696.6" r="3.3" style="fill:rgb(0,152,255);"/>
        <circle id="XMLID_1641_" cx="864.7" cy="695" r="2.8" style="fill:rgb(0,152,255);"/>
        <circle id="XMLID_1638_" cx="879.7" cy="687.9" r="2.8" style="fill:rgb(0,152,255);"/>
        <path id="XMLID_1637_" d="M722.4,443.9C705.4,422.9 708,393.6 728.3,378.6C733.6,374.7 734.4,374.9 736.5,381.1C736.9,382.2 737.1,383.4 737.4,384.6C739.6,392 738.1,399.6 739,408.1C743.3,401.9 744.7,395.7 745.4,389.4C746.9,377.2 744.8,365.8 737.9,355.4C735.9,352.4 733.5,350.2 730.8,355C724.5,365.8 716.6,375.4 709.1,385.4C687.1,414.8 688.1,449 711.8,477C723.3,490.6 736,502.9 748.2,515.8C757.6,525.8 765.9,536.6 771.7,549.2C778.2,563.3 780.7,577.8 777.7,593.1C774.1,611.7 763.4,625.9 749.8,638.3C751.2,639.3 752.3,638.5 753.6,637.7C762.6,632.3 770.9,626 778.8,619.1C808.4,592.9 814.8,555 795.6,520.4C786.2,503.5 772.3,490.7 758.4,477.9C746.1,466.8 732.9,456.8 722.4,443.9Z" style="fill:rgb(247,148,30);fill-rule:nonzero;"/>
        <path id="XMLID_1636_" d="M648.3,477.8C624.6,508.4 625.3,544.7 650.1,574.3C661,587.3 675.4,595.9 688.7,606C709.5,621.8 728,639.4 731.9,668.5C733.8,654.6 733.5,642.1 730.6,629.6C725.8,608.9 713,593.5 697.8,579.5C689.1,571.4 680.2,563.5 672.8,554.2C656.7,533.8 650.2,511.4 658.9,486C663.8,471.6 672.3,459.2 682.3,447.7C669,455.6 657.7,465.7 648.3,477.8Z" style="fill:rgb(247,148,30);fill-rule:nonzero;"/>
        <path id="XMLID_1635_" d="M695.5,688.1C708.1,691.6 718.5,698.1 726,709C728.7,712.9 734.5,712.7 737.2,708.6C740.3,703.7 744.3,700 749,696.7C755.4,692.1 762.6,689 770.2,687.5C773.1,686.9 772.3,685.2 772.4,683.6C772.5,681.5 771.4,681.6 769.8,681.8C746.2,684.2 722.5,685.2 698.8,682.4C698,682.4 697.1,682.1 696.4,682.3C694.4,683.1 691.2,679.4 690.2,683.7C689,688.4 693.4,687.5 695.5,688.1Z" style="fill:rgb(247,148,30);fill-rule:nonzero;"/>
    </g>
</svg>
