<?xml version="1.0" encoding="utf-8"?>
<!-- Generator: Adobe Illustrator 19.0.0, SVG Export Plug-In . SVG Version: 6.00 Build 0)  -->
<svg version="1.1" id="Layer_1" xmlns="http://www.w3.org/2000/svg" xmlns:xlink="http://www.w3.org/1999/xlink" x="0px" y="0px"
	 viewBox="0 0 1440 1024" style="enable-background:new 0 0 1440 1024;" xml:space="preserve">
<style type="text/css">
	.st0{fill:#F2DEB2;}
	.st1{fill:#F7941E;}
</style>
<g id="XMLID_1634_">
	<path id="XMLID_1949_" class="st0" d="M663.7,774.8c0,0,131.9,29.8,214.4-51.4c0,0-195.7,109.5-331.7-85.7
		c0,0-51.4-69.7-18.1-221.9c0,0-11.2,4.3-19.7,14c0,0-9-24.3,25-69c0,0-3.3,1-7.1,5c0,0-2.9-8.3,9.3-25.4c0,0-56.4,45.4-66.8,134.4
		c0,0,10-40.8,17-46.4c0,0-20,34.3-20,128.5c0,0-7.6-24.7-4.4-43.1c0,0-9.2,44.7,2.5,77.7c0,0-27.9-51.5,11.1-173.3
		c0,0-11.3,3.1-20.8,69.2c0,0-2.5-128.2,147.3-215.7c0,0-31.9,10.9-82.3,51.4c0,0,41.9-38.1,48-44.2c0,0,4.3-7.1-10.5,1
		c0,0-195,103.7-109.4,325C447.4,604.8,488.7,742.5,663.7,774.8z M651.9,745.6c0,0-117.6-7-150.5-124.9
		C501.4,620.7,535.8,714.8,651.9,745.6z"/>
	<path id="XMLID_1946_" class="st0" d="M522.9,460.2c0-1.3,9.5-45.3,23.1-56.4c0,0-20.9,11.4-23.1,55.2
		C520.7,502.7,522.9,460.2,522.9,460.2z"/>
	<path id="XMLID_1943_" class="st0" d="M564.8,371.4c0,0,8.2-10.5,10.1-11.1c0,0-12.4,4.4-12.4,8.6L564.8,371.4z"/>
	<path id="XMLID_1940_" class="st0" d="M587.4,292.5c1.4-0.5,2.2-0.7,2.2-0.7C589,291.9,588.3,292.1,587.4,292.5z"/>
	<path id="XMLID_1937_" class="st0" d="M530.8,335.3c0,0,44.4-37.3,56.5-42.8C580.1,295,555.3,305.2,530.8,335.3z"/>
	<path id="XMLID_1934_" class="st0" d="M771.5,257.6c0,0-90-37.2-167.4,10.8C604.1,268.4,680.5,238.2,771.5,257.6z"/>
	<path id="XMLID_1931_" class="st0" d="M602.8,295.6c0,0,50.1-26.3,89.1-28.9C691.9,266.8,634.5,263.9,602.8,295.6z"/>
	<path id="XMLID_1928_" class="st0" d="M676.7,293.3c0,0-12.8-2.4-19.5,4.5l1.7,2.6C658.9,300.5,669.3,292.6,676.7,293.3z"/>
	<path id="XMLID_1925_" class="st0" d="M597.2,335.2c-0.7,0.8-0.5,2,0.3,2.5c0.6,0.4,1.3,0.3,1.9-0.1l5-3.7c0.9-0.6,0.9-1.9,0.1-2.6
		l-0.9-0.8c-0.7-0.6-1.7-0.5-2.3,0.2L597.2,335.2z"/>
	<polygon id="XMLID_1924_" class="st1" points="868.5,331.8 871.2,333.8 870.1,337 872.9,335 875.6,337 874.5,333.8 877.2,331.8 
		873.9,331.8 872.9,328.6 871.8,331.8 	"/>
	<polygon id="XMLID_1923_" class="st1" points="896.2,333.5 895.5,335.9 892.9,335.9 895,337.4 894.2,339.8 896.2,338.3 
		898.3,339.8 897.5,337.4 899.5,335.9 897,335.9 	"/>
	<polygon id="XMLID_1922_" class="st1" points="912,314.1 914.3,312.4 916.6,314.1 915.7,311.4 918,309.7 915.2,309.7 914.3,307.1 
		913.4,309.7 910.6,309.7 912.9,311.4 	"/>
	<polygon id="XMLID_1921_" class="st1" points="955.5,331.5 958.3,329.4 961.1,331.5 960.1,328.2 962.9,326.1 959.4,326.1 
		958.3,322.8 957.2,326.1 953.7,326.1 956.6,328.2 	"/>
	<polygon id="XMLID_1920_" class="st1" points="948.9,377.8 947.1,383.4 951.9,380 956.7,383.4 954.9,377.8 959.7,374.3 
		953.7,374.3 951.9,368.6 950.1,374.3 944.1,374.3 	"/>
	<polygon id="XMLID_1919_" class="st1" points="958.3,386.4 957.4,389.3 954.3,389.3 956.8,391.1 955.8,394 958.3,392.2 960.8,394 
		959.9,391.1 962.3,389.3 959.3,389.3 	"/>
	<polygon id="XMLID_1918_" class="st1" points="967.6,373.9 971.4,371.1 975.2,373.9 973.8,369.4 977.6,366.6 972.9,366.6 
		971.4,362.1 969.9,366.6 965.2,366.6 969,369.4 	"/>
	<polygon id="XMLID_1917_" class="st1" points="925.6,420.4 920.8,420.4 924.7,423.3 923.2,427.9 927.2,425.1 931.1,427.9 
		929.6,423.3 933.6,420.4 928.7,420.4 927.2,415.8 	"/>
	<polygon id="XMLID_1916_" class="st1" points="932.8,420.2 938.1,416.4 943.4,420.2 941.4,414 946.6,410.2 940.1,410.2 938.1,404 
		936.1,410.2 929.6,410.2 934.8,414 	"/>
	<polygon id="XMLID_1915_" class="st1" points="962,433.3 960.1,439.3 965.2,435.6 970.4,439.3 968.4,433.3 973.5,429.5 
		967.2,429.5 965.2,423.5 963.3,429.5 956.9,429.5 	"/>
	<polygon id="XMLID_1914_" class="st1" points="989.5,399.2 992.1,397.3 994.7,399.2 993.7,396.1 996.3,394.2 993.1,394.2 
		992.1,391.1 991.1,394.2 987.8,394.2 990.5,396.1 	"/>
	<polygon id="XMLID_1913_" class="st1" points="965.2,456.6 963.6,461.5 958.5,461.5 962.7,464.5 961.1,469.3 965.2,466.3 
		969.3,469.3 967.8,464.5 971.9,461.5 966.8,461.5 	"/>
	<polygon id="XMLID_1912_" class="st1" points="993.5,450.8 991.2,457.9 983.8,457.9 989.8,462.2 987.5,469.3 993.5,464.9 
		999.5,469.3 997.2,462.2 1003.2,457.9 995.8,457.9 	"/>
	<polygon id="XMLID_1911_" class="st1" points="964.2,491.3 962.3,485.6 960.5,491.3 954.5,491.3 959.3,494.8 957.5,500.5 
		962.3,497 967.2,500.5 965.3,494.8 970.2,491.3 	"/>
	<polygon id="XMLID_1910_" class="st1" points="996.9,490.6 1001.6,494 999.8,499.5 1004.5,496.1 1009.1,499.5 1007.3,494 
		1012,490.6 1006.2,490.6 1004.5,485.1 1002.7,490.6 	"/>
	<polygon id="XMLID_1909_" class="st1" points="990.2,538.2 987.8,531 985.5,538.2 977.9,538.2 984.1,542.6 981.7,549.8 
		987.8,545.4 994,549.8 991.6,542.6 997.7,538.2 	"/>
	<polygon id="XMLID_1908_" class="st1" points="934.1,590.2 941.4,584.9 932.4,584.9 929.6,576.3 926.8,584.9 917.8,584.9 
		925.1,590.2 922.3,598.8 929.6,593.5 936.9,598.8 	"/>
	<polygon id="XMLID_1907_" class="st1" points="955.5,594.7 954.2,598.5 950.3,598.5 953.5,600.8 952.2,604.6 955.5,602.2 
		958.7,604.6 957.4,600.8 960.7,598.5 956.7,598.5 	"/>
	<polygon id="XMLID_1906_" class="st1" points="927.9,532.7 926.5,536.9 922.1,536.9 925.7,539.5 924.3,543.7 927.9,541.1 
		931.4,543.7 930.1,539.5 933.7,536.9 929.2,536.9 	"/>
	<polygon id="XMLID_1905_" class="st1" points="954.6,553.1 953.3,549.1 952,553.1 947.7,553.1 951.2,555.7 949.9,559.7 
		953.3,557.2 956.8,559.7 955.5,555.7 958.9,553.1 	"/>
	<polygon id="XMLID_1904_" class="st1" points="955.5,627 958.7,629.3 957.4,625.5 960.6,623.2 956.7,623.2 955.5,619.5 
		954.2,623.2 950.3,623.2 953.5,625.5 952.3,629.3 	"/>
	<polygon id="XMLID_1903_" class="st1" points="917.8,608.8 916,614.3 910.1,614.3 914.8,617.7 913.1,623.3 917.8,619.9 
		922.5,623.3 920.7,617.7 925.4,614.3 919.5,614.3 	"/>
	<polygon id="XMLID_1902_" class="st1" points="895.5,660.4 899.7,663.5 898.1,658.5 902.3,655.5 897.1,655.5 895.5,650.6 
		893.9,655.5 888.7,655.5 892.9,658.5 891.3,663.5 	"/>
	<polygon id="XMLID_1901_" class="st1" points="922.5,673.1 920.3,666.1 918,673.1 910.6,673.1 916.6,677.5 914.3,684.5 
		920.3,680.1 926.2,684.5 924,677.5 929.9,673.1 	"/>
	<polygon id="XMLID_1900_" class="st1" points="943.8,660.2 941.4,652.8 939,660.2 931.2,660.2 937.5,664.7 935.1,672.1 
		941.4,667.6 947.7,672.1 945.3,664.7 951.6,660.2 	"/>
	<polygon id="XMLID_1899_" class="st1" points="905.6,695 904.3,691.1 903.1,695 899,695 902.3,697.4 901,701.3 904.3,698.9 
		907.6,701.3 906.4,697.4 909.7,695 	"/>
	<polygon id="XMLID_1898_" class="st1" points="838.1,735.2 842,732.3 845.9,735.2 844.4,730.6 848.4,727.7 843.5,727.7 842,723.1 
		840.5,727.7 835.7,727.7 839.6,730.6 	"/>
	<polygon id="XMLID_1897_" class="st1" points="839.2,698.9 842,696.9 844.8,698.9 843.8,695.6 846.6,693.6 843.1,693.6 842,690.2 
		840.9,693.6 837.4,693.6 840.3,695.6 	"/>
	<polygon id="XMLID_1896_" class="st1" points="878.1,710.7 881.6,713.2 880.3,709.1 883.8,706.5 879.4,706.5 878.1,702.4 
		876.7,706.5 872.4,706.5 875.9,709.1 874.6,713.2 	"/>
	<polygon id="XMLID_1895_" class="st1" points="867,293.4 866,296.3 868.5,294.5 870.9,296.3 869.9,293.4 872.4,291.7 869.4,291.7 
		868.5,288.8 867.5,291.7 864.6,291.7 	"/>
	<polygon id="XMLID_1894_" class="st1" points="822.2,289 824.5,287.3 826.8,289 825.9,286.3 828.3,284.6 825.4,284.6 824.5,281.9 
		823.6,284.6 820.7,284.6 823.1,286.3 	"/>
	<circle id="XMLID_1891_" class="st0" cx="786.8" cy="252" r="3.2"/>
	<circle id="XMLID_1888_" class="st0" cx="826.9" cy="265" r="2.8"/>
	<circle id="XMLID_1885_" class="st0" cx="843.7" cy="274.4" r="4.4"/>
	<circle id="XMLID_1882_" class="st0" cx="863.2" cy="281.2" r="3.5"/>
	<circle id="XMLID_1879_" class="st0" cx="851.4" cy="297.7" r="2.9"/>
	<circle id="XMLID_1876_" class="st0" cx="884.9" cy="299.1" r="6.3"/>
	<circle id="XMLID_1873_" class="st0" cx="892.9" cy="317.4" r="4.8"/>
	<circle id="XMLID_1870_" class="st0" cx="906.9" cy="331.5" r="3.8"/>
	<circle id="XMLID_1867_" class="st0" cx="891.2" cy="357" r="5.1"/>
	<circle id="XMLID_1864_" class="st0" cx="909" cy="406.8" r="4.1"/>
	<circle id="XMLID_1861_" class="st0" cx="920.1" cy="349.1" r="5.2"/>
	<circle id="XMLID_1858_" class="st0" cx="924.1" cy="362.1" r="3.7"/>
	<circle id="XMLID_1855_" class="st0" cx="936" cy="363" r="5"/>
	<circle id="XMLID_1852_" class="st0" cx="944.1" cy="351.9" r="5.1"/>
	<circle id="XMLID_1849_" class="st0" cx="937.1" cy="330" r="2.7"/>
	<circle id="XMLID_1846_" class="st0" cx="944.1" cy="388.9" r="3.8"/>
	<circle id="XMLID_1843_" class="st0" cx="981.3" cy="372.4" r="3.7"/>
	<circle id="XMLID_1840_" class="st0" cx="973.5" cy="405.8" r="3.3"/>
	<circle id="XMLID_1837_" class="st0" cx="959.7" cy="412.8" r="2.9"/>
	<circle id="XMLID_1834_" class="st0" cx="925.8" cy="442" r="3.8"/>
	<circle id="XMLID_1831_" class="st0" cx="948" cy="447.2" r="4.3"/>
	<circle id="XMLID_1828_" class="st0" cx="985" cy="434.7" r="4.6"/>
	<circle id="XMLID_1825_" class="st0" cx="1009.8" cy="432.3" r="4.4"/>
	<circle id="XMLID_1822_" class="st0" cx="978.9" cy="457.8" r="3.5"/>
	<circle id="XMLID_1819_" class="st0" cx="954.5" cy="466.1" r="4.4"/>
	<circle id="XMLID_1816_" class="st0" cx="936.8" cy="480.5" r="3.8"/>
	<circle id="XMLID_1813_" class="st0" cx="956.9" cy="482.7" r="4"/>
	<circle id="XMLID_1810_" class="st0" cx="980.3" cy="488.4" r="5.4"/>
	<circle id="XMLID_1807_" class="st0" cx="976.9" cy="503.7" r="5.2"/>
	<circle id="XMLID_1804_" class="st0" cx="986.9" cy="507.9" r="4.1"/>
	<circle id="XMLID_1801_" class="st0" cx="948" cy="506.7" r="4.3"/>
	<circle id="XMLID_1798_" class="st0" cx="936.8" cy="499.5" r="4.6"/>
	<circle id="XMLID_1795_" class="st0" cx="941.4" cy="514.4" r="2.3"/>
	<circle id="XMLID_1792_" class="st0" cx="948" cy="522.2" r="2.2"/>
	<circle id="XMLID_1789_" class="st0" cx="961.6" cy="515.4" r="3.8"/>
	<circle id="XMLID_1786_" class="st0" cx="981.5" cy="522.2" r="6"/>
	<circle id="XMLID_1783_" class="st0" cx="998.6" cy="526.8" r="4.2"/>
	<circle id="XMLID_1780_" class="st0" cx="990.2" cy="526.8" r="2.4"/>
	<circle id="XMLID_1777_" class="st0" cx="958.5" cy="529.2" r="5.2"/>
	<circle id="XMLID_1774_" class="st0" cx="973.5" cy="541.4" r="4.1"/>
	<circle id="XMLID_1771_" class="st0" cx="939.1" cy="536.5" r="4.9"/>
	<circle id="XMLID_1768_" class="st0" cx="902" cy="532.7" r="2.8"/>
	<circle id="XMLID_1765_" class="st0" cx="904.9" cy="549.8" r="5.2"/>
	<circle id="XMLID_1762_" class="st0" cx="907.7" cy="577.1" r="4.8"/>
	<circle id="XMLID_1759_" class="st0" cx="937.4" cy="572.3" r="4"/>
	<circle id="XMLID_1756_" class="st0" cx="953.3" cy="581.8" r="5.7"/>
	<circle id="XMLID_1753_" class="st0" cx="965.3" cy="574.9" r="5.1"/>
	<circle id="XMLID_1750_" class="st0" cx="976.4" cy="577.1" r="4.8"/>
	<circle id="XMLID_1747_" class="st0" cx="977.7" cy="563.1" r="3.2"/>
	<circle id="XMLID_1744_" class="st0" cx="997.7" cy="562.5" r="5"/>
	<circle id="XMLID_1741_" class="st0" cx="986.5" cy="586.9" r="3.8"/>
	<circle id="XMLID_1738_" class="st0" cx="969.4" cy="596.6" r="3.2"/>
	<circle id="XMLID_1735_" class="st0" cx="945.8" cy="594.7" r="4.1"/>
	<circle id="XMLID_1732_" class="st0" cx="902" cy="589.3" r="2.2"/>
	<circle id="XMLID_1729_" class="st0" cx="913.8" cy="571.2" r="2.2"/>
	<circle id="XMLID_1726_" class="st0" cx="923.3" cy="600.9" r="2.1"/>
	<circle id="XMLID_1723_" class="st0" cx="910.6" cy="608.8" r="2.5"/>
	<circle id="XMLID_1720_" class="st0" cx="887.6" cy="616" r="3.4"/>
	<circle id="XMLID_1717_" class="st0" cx="892.5" cy="622.3" r="3"/>
	<circle id="XMLID_1714_" class="st0" cx="907.7" cy="633.7" r="3.2"/>
	<circle id="XMLID_1711_" class="st0" cx="935.8" cy="616.7" r="4.1"/>
	<circle id="XMLID_1708_" class="st0" cx="959" cy="612.6" r="4.1"/>
	<circle id="XMLID_1705_" class="st0" cx="979.6" cy="610.5" r="3.8"/>
	<circle id="XMLID_1702_" class="st0" cx="992.7" cy="598.8" r="3"/>
	<circle id="XMLID_1699_" class="st0" cx="960.6" cy="640" r="4.4"/>
	<circle id="XMLID_1696_" class="st0" cx="941.7" cy="634.6" r="4.6"/>
	<circle id="XMLID_1693_" class="st0" cx="943.9" cy="648.7" r="2.4"/>
	<circle id="XMLID_1690_" class="st0" cx="933.4" cy="644.5" r="3.3"/>
	<circle id="XMLID_1687_" class="st0" cx="923.3" cy="643.7" r="4.1"/>
	<circle id="XMLID_1684_" class="st0" cx="914.2" cy="658.6" r="3.5"/>
	<circle id="XMLID_1681_" class="st0" cx="884.9" cy="647.8" r="2.8"/>
	<circle id="XMLID_1678_" class="st0" cx="880.8" cy="671.3" r="2.9"/>
	<circle id="XMLID_1663_" class="st0" cx="897" cy="677" r="3.3"/>
	<circle id="XMLID_1660_" class="st0" cx="884.9" cy="692.7" r="3.8"/>
	<circle id="XMLID_1657_" class="st0" cx="866.5" cy="694.6" r="4.4"/>
	<circle id="XMLID_1654_" class="st0" cx="857.2" cy="699.8" r="1.6"/>
	<circle id="XMLID_1650_" class="st0" cx="840.7" cy="707.8" r="1.3"/>
	<circle id="XMLID_1647_" class="st0" cx="859.7" cy="725.2" r="1.6"/>
	<circle id="XMLID_1644_" class="st0" cx="869.5" cy="718.8" r="3.6"/>
	<circle id="XMLID_1641_" class="st0" cx="882.1" cy="717.1" r="3.2"/>
	<circle id="XMLID_1638_" class="st0" cx="899" cy="709.1" r="3.2"/>
	<path id="XMLID_1637_" class="st1" d="M722.7,435.7c-19.1-23.5-16.1-56.3,6.6-73.2c5.9-4.4,6.8-4.1,9.2,2.8c0.4,1.3,0.7,2.6,1,3.9
		c2.4,8.2,0.8,16.8,1.8,26.3c4.9-6.9,6.3-13.9,7.2-20.9c1.6-13.6-0.7-26.5-8.4-38.1c-2.2-3.3-4.9-5.8-8-0.5
		c-7.1,12.1-15.9,22.9-24.3,34.1c-24.7,32.9-23.6,71.2,3,102.7c12.8,15.2,27.1,29,40.8,43.5c10.6,11.2,19.8,23.3,26.3,37.4
		c7.3,15.7,10.1,32.1,6.8,49.2c-4,20.8-16,36.8-31.2,50.7c1.6,1.2,2.8,0.2,4.2-0.6c10.1-6.1,19.4-13.1,28.2-20.9
		c33.1-29.4,40.3-71.9,18.8-110.6c-10.5-18.9-26.1-33.2-41.7-47.6C749.3,461.4,734.4,450.2,722.7,435.7z"/>
	<path id="XMLID_1636_" class="st1" d="M639.7,473.7c-26.6,34.2-25.7,75,2,108.1c12.2,14.6,28.4,24.2,43.3,35.5
		c23.3,17.7,44,37.4,48.4,70c2.2-15.6,1.7-29.6-1.5-43.6c-5.4-23.2-19.8-40.5-36.7-56.1c-9.8-9-19.8-17.9-28.1-28.4
		c-18-22.9-25.3-48-15.6-76.4c5.5-16.2,15-30.1,26.2-42.9C662.9,448.8,650.2,460.1,639.7,473.7z"/>
	<path id="XMLID_1635_" class="st1" d="M692.5,709.3c14.1,4,25.8,11.2,34.2,23.4c3,4.4,9.6,4.2,12.5-0.5c3.4-5.4,8-9.6,13.2-13.3
		c7.2-5.2,15.2-8.6,23.8-10.3c3.2-0.7,2.4-2.5,2.5-4.4c0.1-2.3-1.1-2.2-3-2.1c-26.5,2.7-53,3.8-79.5,0.7c-0.9,0-1.9-0.4-2.7-0.1
		c-2.3,0.9-5.8-3.3-7,1.6C685.3,709.7,690.2,708.7,692.5,709.3z"/>
</g>
</svg>
