<?xml version="1.0" encoding="utf-8"?>
<!-- Generator: Adobe Illustrator 19.0.0, SVG Export Plug-In . SVG Version: 6.00 Build 0)  -->
<svg version="1.1" id="Layer_1" xmlns="http://www.w3.org/2000/svg" xmlns:xlink="http://www.w3.org/1999/xlink" x="0px" y="0px"
	 viewBox="0 0 1440 1024" style="enable-background:new 0 0 1440 1024;" xml:space="preserve">
<style type="text/css">
	.st0{fill:#1C75BC;}
	.st1{fill:#F7941E;}
</style>
<g id="XMLID_14_">
	<g id="XMLID_1634_">
		<path id="XMLID_1949_" class="st0" d="M689.1,563.8c0,0,72.4,16.4,117.7-28.2c0,0-107.4,60.1-182.1-47.1c0,0-28.2-38.3-9.9-121.8
			c0,0-6.1,2.4-10.8,7.7c0,0-5-13.3,13.7-37.9c0,0-1.8,0.5-3.9,2.7c0,0-1.6-4.6,5.1-14c0,0-30.9,24.9-36.7,73.8
			c0,0,5.5-22.4,9.3-25.5c0,0-11,18.8-11,70.6c0,0-4.2-13.6-2.4-23.7c0,0-5,24.6,1.4,42.7c0,0-15.3-28.3,6.1-95.2
			c0,0-6.2,1.7-11.4,38c0,0-1.4-70.4,80.9-118.4c0,0-17.5,6-45.2,28.2c0,0,23-20.9,26.4-24.3c0,0,2.4-3.9-5.7,0.5
			c0,0-107.1,56.9-60.1,178.5C570.3,470.5,593,546.1,689.1,563.8z M682.6,547.8c0,0-64.5-3.8-82.7-68.6
			C599.9,479.2,618.9,530.9,682.6,547.8z"/>
		<path id="XMLID_1946_" class="st0" d="M611.8,391.1c0-0.7,5.2-24.9,12.7-31c0,0-11.5,6.3-12.7,30.3
			C610.6,414.4,611.8,391.1,611.8,391.1z"/>
		<path id="XMLID_1943_" class="st0" d="M634.8,342.3c0,0,4.5-5.7,5.6-6.1c0,0-6.8,2.4-6.8,4.7L634.8,342.3z"/>
		<path id="XMLID_1940_" class="st0" d="M647.2,299c0.8-0.3,1.2-0.4,1.2-0.4C648.1,298.6,647.7,298.8,647.2,299z"/>
		<path id="XMLID_1937_" class="st0" d="M616.1,322.5c0,0,24.4-20.5,31-23.5C643.2,300.4,629.6,306,616.1,322.5z"/>
		<path id="XMLID_1934_" class="st0" d="M748.3,279.8c0,0-49.4-20.4-91.9,5.9C656.4,285.8,698.3,269.2,748.3,279.8z"/>
		<path id="XMLID_1931_" class="st0" d="M655.7,300.7c0,0,27.5-14.5,48.9-15.8C704.6,284.9,673.1,283.3,655.7,300.7z"/>
		<path id="XMLID_1928_" class="st0" d="M696.2,299.5c0,0-7.1-1.3-10.7,2.5l0.9,1.4C686.4,303.4,692.2,299.1,696.2,299.5z"/>
		<path id="XMLID_1925_" class="st0" d="M652.6,322.4c-0.4,0.4-0.3,1.1,0.2,1.4c0.3,0.2,0.7,0.2,1,0l2.7-2.1c0.5-0.4,0.5-1.1,0-1.4
			l-0.5-0.4c-0.4-0.3-0.9-0.3-1.2,0.1L652.6,322.4z"/>
		<polygon id="XMLID_1924_" class="st1" points="801.5,320.6 803,321.7 802.4,323.4 803.9,322.3 805.4,323.4 804.8,321.7 
			806.3,320.6 804.5,320.6 803.9,318.8 803.4,320.6 		"/>
		<polygon id="XMLID_1923_" class="st1" points="816.8,321.5 816.3,322.8 815,322.8 816.1,323.6 815.6,325 816.8,324.1 817.9,325 
			817.5,323.6 818.6,322.8 817.2,322.8 		"/>
		<polygon id="XMLID_1922_" class="st1" points="825.4,310.8 826.7,309.9 827.9,310.8 827.5,309.4 828.7,308.5 827.2,308.5 
			826.7,307 826.2,308.5 824.7,308.5 825.9,309.4 		"/>
		<polygon id="XMLID_1921_" class="st1" points="849.3,320.4 850.9,319.3 852.4,320.4 851.8,318.6 853.4,317.5 851.4,317.5 
			850.9,315.6 850.3,317.5 848.3,317.5 849.9,318.6 		"/>
		<polygon id="XMLID_1920_" class="st1" points="845.7,345.8 844.7,348.9 847.3,347 850,348.9 849,345.8 851.6,343.9 848.3,343.9 
			847.3,340.8 846.3,343.9 843,343.9 		"/>
		<polygon id="XMLID_1919_" class="st1" points="850.9,350.6 850.3,352.2 848.6,352.2 850,353.1 849.5,354.8 850.9,353.8 
			852.2,354.8 851.7,353.1 853.1,352.2 851.4,352.2 		"/>
		<polygon id="XMLID_1918_" class="st1" points="855.9,343.7 858,342.2 860.1,343.7 859.3,341.2 861.4,339.7 858.8,339.7 858,337.2 
			857.2,339.7 854.6,339.7 856.7,341.2 		"/>
		<polygon id="XMLID_1917_" class="st1" points="832.9,369.2 830.2,369.2 832.4,370.8 831.6,373.4 833.7,371.8 835.9,373.4 
			835.1,370.8 837.3,369.2 834.6,369.2 833.7,366.7 		"/>
		<polygon id="XMLID_1916_" class="st1" points="836.9,369.1 839.8,367 842.6,369.1 841.5,365.7 844.4,363.6 840.9,363.6 
			839.8,360.2 838.6,363.6 835.1,363.6 838,365.7 		"/>
		<polygon id="XMLID_1915_" class="st1" points="852.9,376.3 851.8,379.6 854.6,377.6 857.5,379.6 856.4,376.3 859.2,374.2 
			855.7,374.2 854.6,370.9 853.6,374.2 850.1,374.2 		"/>
		<polygon id="XMLID_1914_" class="st1" points="868,357.6 869.4,356.6 870.8,357.6 870.3,355.9 871.7,354.9 869.9,354.9 
			869.4,353.2 868.8,354.9 867.1,354.9 868.5,355.9 		"/>
		<polygon id="XMLID_1913_" class="st1" points="854.6,389.1 853.8,391.8 851,391.8 853.2,393.4 852.4,396.1 854.6,394.4 
			856.9,396.1 856,393.4 858.3,391.8 855.5,391.8 		"/>
		<polygon id="XMLID_1912_" class="st1" points="870.2,385.9 868.9,389.8 864.8,389.8 868.1,392.2 866.9,396.1 870.2,393.7 
			873.5,396.1 872.2,392.2 875.5,389.8 871.4,389.8 		"/>
		<polygon id="XMLID_1911_" class="st1" points="854.1,408.1 853.1,405 852,408.1 848.7,408.1 851.4,410.1 850.4,413.2 853.1,411.3 
			855.7,413.2 854.7,410.1 857.4,408.1 		"/>
		<polygon id="XMLID_1910_" class="st1" points="872.1,407.8 874.6,409.6 873.6,412.6 876.2,410.8 878.7,412.6 877.8,409.6 
			880.3,407.8 877.2,407.8 876.2,404.8 875.2,407.8 		"/>
		<polygon id="XMLID_1909_" class="st1" points="868.3,433.9 867.1,429.9 865.8,433.9 861.6,433.9 865,436.3 863.7,440.3 
			867.1,437.9 870.4,440.3 869.1,436.3 872.5,433.9 		"/>
		<polygon id="XMLID_1908_" class="st1" points="837.5,462.5 841.6,459.5 836.6,459.5 835.1,454.8 833.5,459.5 828.6,459.5 
			832.6,462.5 831.1,467.2 835.1,464.3 839.1,467.2 		"/>
		<polygon id="XMLID_1907_" class="st1" points="849.3,464.9 848.6,467 846.4,467 848.2,468.3 847.5,470.4 849.3,469.1 851,470.4 
			850.4,468.3 852.1,467 850,467 		"/>
		<polygon id="XMLID_1906_" class="st1" points="834.1,430.9 833.4,433.2 831,433.2 832.9,434.6 832.2,436.9 834.1,435.5 
			836.1,436.9 835.3,434.6 837.3,433.2 834.9,433.2 		"/>
		<polygon id="XMLID_1905_" class="st1" points="848.8,442.1 848.1,439.9 847.4,442.1 845,442.1 846.9,443.5 846.2,445.7 
			848.1,444.3 850,445.7 849.3,443.5 851.2,442.1 		"/>
		<polygon id="XMLID_1904_" class="st1" points="849.3,482.6 851,483.9 850.4,481.9 852.1,480.6 850,480.6 849.3,478.5 848.6,480.6 
			846.4,480.6 848.2,481.9 847.5,483.9 		"/>
		<polygon id="XMLID_1903_" class="st1" points="828.6,472.7 827.6,475.7 824.4,475.7 827,477.6 826,480.6 828.6,478.7 831.2,480.6 
			830.2,477.6 832.8,475.7 829.6,475.7 		"/>
		<polygon id="XMLID_1902_" class="st1" points="816.4,501 818.7,502.7 817.8,500 820.1,498.3 817.3,498.3 816.4,495.6 815.5,498.3 
			812.6,498.3 815,500 814.1,502.7 		"/>
		<polygon id="XMLID_1901_" class="st1" points="831.2,508 830,504.1 828.7,508 824.6,508 827.9,510.4 826.7,514.2 830,511.8 
			833.2,514.2 832,510.4 835.3,508 		"/>
		<polygon id="XMLID_1900_" class="st1" points="842.9,500.9 841.6,496.8 840.2,500.9 836,500.9 839.4,503.4 838.1,507.5 
			841.6,504.9 845,507.5 843.7,503.4 847.1,500.9 		"/>
		<polygon id="XMLID_1899_" class="st1" points="821.9,520 821.2,517.9 820.5,520 818.3,520 820.1,521.3 819.4,523.4 821.2,522.1 
			823,523.4 822.3,521.3 824.1,520 		"/>
		<polygon id="XMLID_1898_" class="st1" points="784.8,542.1 787,540.5 789.1,542.1 788.3,539.5 790.5,538 787.8,538 787,535.4 
			786.2,538 783.5,538 785.7,539.5 		"/>
		<polygon id="XMLID_1897_" class="st1" points="785.4,522.2 787,521 788.5,522.2 788,520.3 789.5,519.2 787.6,519.2 787,517.4 
			786.4,519.2 784.5,519.2 786,520.3 		"/>
		<polygon id="XMLID_1896_" class="st1" points="806.8,528.6 808.7,530 808,527.7 809.9,526.3 807.5,526.3 806.8,524.1 806.1,526.3 
			803.7,526.3 805.6,527.7 804.9,530 		"/>
		<polygon id="XMLID_1895_" class="st1" points="800.7,299.5 800.2,301.1 801.5,300.1 802.8,301.1 802.3,299.5 803.7,298.6 
			802,298.6 801.5,297 801,298.6 799.4,298.6 		"/>
		<polygon id="XMLID_1894_" class="st1" points="776.1,297.1 777.4,296.2 778.6,297.1 778.2,295.6 779.4,294.7 777.9,294.7 
			777.4,293.2 776.9,294.7 775.3,294.7 776.6,295.6 		"/>
		<circle id="XMLID_1891_" class="st0" cx="756.7" cy="276.7" r="1.8"/>
		<circle id="XMLID_1888_" class="st0" cx="778.7" cy="283.9" r="1.5"/>
		<circle id="XMLID_1885_" class="st0" cx="787.9" cy="289.1" r="2.4"/>
		<circle id="XMLID_1882_" class="st0" cx="798.6" cy="292.8" r="1.9"/>
		<circle id="XMLID_1879_" class="st0" cx="792.2" cy="301.9" r="1.6"/>
		<circle id="XMLID_1876_" class="st0" cx="810.5" cy="302.6" r="3.5"/>
		<circle id="XMLID_1873_" class="st0" cx="815" cy="312.7" r="2.6"/>
		<circle id="XMLID_1870_" class="st0" cx="822.6" cy="320.4" r="2.1"/>
		<circle id="XMLID_1867_" class="st0" cx="814" cy="334.4" r="2.8"/>
		<circle id="XMLID_1864_" class="st0" cx="823.8" cy="361.8" r="2.3"/>
		<circle id="XMLID_1861_" class="st0" cx="829.9" cy="330.1" r="2.9"/>
		<circle id="XMLID_1858_" class="st0" cx="832" cy="337.2" r="2.1"/>
		<circle id="XMLID_1855_" class="st0" cx="838.6" cy="337.7" r="2.7"/>
		<circle id="XMLID_1852_" class="st0" cx="843" cy="331.6" r="2.8"/>
		<circle id="XMLID_1849_" class="st0" cx="839.2" cy="319.6" r="1.5"/>
		<circle id="XMLID_1846_" class="st0" cx="843" cy="351.9" r="2.1"/>
		<circle id="XMLID_1843_" class="st0" cx="863.5" cy="342.9" r="2"/>
		<circle id="XMLID_1840_" class="st0" cx="859.2" cy="361.2" r="1.8"/>
		<circle id="XMLID_1837_" class="st0" cx="851.6" cy="365.1" r="1.6"/>
		<circle id="XMLID_1834_" class="st0" cx="833" cy="381.1" r="2.1"/>
		<circle id="XMLID_1831_" class="st0" cx="845.2" cy="384" r="2.4"/>
		<circle id="XMLID_1828_" class="st0" cx="865.5" cy="377.1" r="2.5"/>
		<circle id="XMLID_1825_" class="st0" cx="879.1" cy="375.8" r="2.4"/>
		<circle id="XMLID_1822_" class="st0" cx="862.2" cy="389.8" r="1.9"/>
		<circle id="XMLID_1819_" class="st0" cx="848.7" cy="394.3" r="2.4"/>
		<circle id="XMLID_1816_" class="st0" cx="839" cy="402.2" r="2.1"/>
		<circle id="XMLID_1813_" class="st0" cx="850.1" cy="403.5" r="2.2"/>
		<circle id="XMLID_1810_" class="st0" cx="862.9" cy="406.6" r="3"/>
		<circle id="XMLID_1807_" class="st0" cx="861" cy="414.9" r="2.9"/>
		<circle id="XMLID_1804_" class="st0" cx="866.5" cy="417.3" r="2.3"/>
		<circle id="XMLID_1801_" class="st0" cx="845.2" cy="416.6" r="2.4"/>
		<circle id="XMLID_1798_" class="st0" cx="839" cy="412.6" r="2.5"/>
		<circle id="XMLID_1795_" class="st0" cx="841.6" cy="420.9" r="1.3"/>
		<circle id="XMLID_1792_" class="st0" cx="845.2" cy="425.1" r="1.2"/>
		<circle id="XMLID_1789_" class="st0" cx="852.7" cy="421.4" r="2.1"/>
		<circle id="XMLID_1786_" class="st0" cx="863.6" cy="425.1" r="3.3"/>
		<circle id="XMLID_1783_" class="st0" cx="873" cy="427.7" r="2.3"/>
		<circle id="XMLID_1780_" class="st0" cx="868.4" cy="427.7" r="1.3"/>
		<circle id="XMLID_1777_" class="st0" cx="851" cy="429" r="2.9"/>
		<circle id="XMLID_1774_" class="st0" cx="859.2" cy="435.7" r="2.3"/>
		<circle id="XMLID_1771_" class="st0" cx="840.3" cy="433" r="2.7"/>
		<circle id="XMLID_1768_" class="st0" cx="819.9" cy="430.9" r="1.6"/>
		<circle id="XMLID_1765_" class="st0" cx="821.5" cy="440.3" r="2.9"/>
		<circle id="XMLID_1762_" class="st0" cx="823.1" cy="455.3" r="2.6"/>
		<circle id="XMLID_1759_" class="st0" cx="839.4" cy="452.6" r="2.2"/>
		<circle id="XMLID_1756_" class="st0" cx="848.1" cy="457.9" r="3.1"/>
		<circle id="XMLID_1753_" class="st0" cx="854.7" cy="454" r="2.8"/>
		<circle id="XMLID_1750_" class="st0" cx="860.8" cy="455.3" r="2.6"/>
		<circle id="XMLID_1747_" class="st0" cx="861.5" cy="447.6" r="1.7"/>
		<circle id="XMLID_1744_" class="st0" cx="872.5" cy="447.2" r="2.8"/>
		<circle id="XMLID_1741_" class="st0" cx="866.3" cy="460.7" r="2.1"/>
		<circle id="XMLID_1738_" class="st0" cx="856.9" cy="466" r="1.7"/>
		<circle id="XMLID_1735_" class="st0" cx="844" cy="464.9" r="2.3"/>
		<circle id="XMLID_1732_" class="st0" cx="819.9" cy="462" r="1.2"/>
		<circle id="XMLID_1729_" class="st0" cx="826.4" cy="452" r="1.2"/>
		<circle id="XMLID_1726_" class="st0" cx="831.6" cy="468.3" r="1.1"/>
		<circle id="XMLID_1723_" class="st0" cx="824.6" cy="472.7" r="1.4"/>
		<circle id="XMLID_1720_" class="st0" cx="812" cy="476.6" r="1.9"/>
		<circle id="XMLID_1717_" class="st0" cx="814.7" cy="480.1" r="1.7"/>
		<circle id="XMLID_1714_" class="st0" cx="823.1" cy="486.3" r="1.7"/>
		<circle id="XMLID_1711_" class="st0" cx="838.5" cy="477" r="2.3"/>
		<circle id="XMLID_1708_" class="st0" cx="851.2" cy="474.8" r="2.3"/>
		<circle id="XMLID_1705_" class="st0" cx="862.5" cy="473.6" r="2.1"/>
		<circle id="XMLID_1702_" class="st0" cx="869.8" cy="467.2" r="1.7"/>
		<circle id="XMLID_1699_" class="st0" cx="852.1" cy="489.8" r="2.4"/>
		<circle id="XMLID_1696_" class="st0" cx="841.7" cy="486.9" r="2.5"/>
		<circle id="XMLID_1693_" class="st0" cx="842.9" cy="494.6" r="1.3"/>
		<circle id="XMLID_1690_" class="st0" cx="837.2" cy="492.3" r="1.8"/>
		<circle id="XMLID_1687_" class="st0" cx="831.6" cy="491.8" r="2.3"/>
		<circle id="XMLID_1684_" class="st0" cx="826.6" cy="500" r="1.9"/>
		<circle id="XMLID_1681_" class="st0" cx="810.5" cy="494.1" r="1.5"/>
		<circle id="XMLID_1678_" class="st0" cx="808.3" cy="507" r="1.6"/>
		<circle id="XMLID_1663_" class="st0" cx="817.2" cy="510.1" r="1.8"/>
		<circle id="XMLID_1660_" class="st0" cx="810.5" cy="518.7" r="2.1"/>
		<circle id="XMLID_1657_" class="st0" cx="800.4" cy="519.8" r="2.4"/>
		<circle id="XMLID_1654_" class="st0" cx="795.3" cy="522.6" r="0.9"/>
		<circle id="XMLID_1650_" class="st0" cx="786.3" cy="527" r="0.7"/>
		<circle id="XMLID_1647_" class="st0" cx="796.7" cy="536.6" r="0.9"/>
		<circle id="XMLID_1644_" class="st0" cx="802.1" cy="533.1" r="2"/>
		<circle id="XMLID_1641_" class="st0" cx="809" cy="532.1" r="1.7"/>
		<circle id="XMLID_1638_" class="st0" cx="818.3" cy="527.8" r="1.8"/>
		<path id="XMLID_1637_" class="st1" d="M721.5,377.6c-10.5-12.9-8.8-30.9,3.6-40.2c3.2-2.4,3.7-2.3,5,1.5c0.2,0.7,0.4,1.4,0.6,2.1
			c1.3,4.5,0.4,9.2,1,14.5c2.7-3.8,3.5-7.6,3.9-11.5c0.9-7.5-0.4-14.5-4.6-20.9c-1.2-1.8-2.7-3.2-4.4-0.3
			c-3.9,6.6-8.8,12.6-13.3,18.7c-13.5,18.1-12.9,39.1,1.6,56.4c7.1,8.4,14.9,15.9,22.4,23.9c5.8,6.1,10.9,12.8,14.5,20.5
			c4,8.6,5.5,17.6,3.7,27c-2.2,11.4-8.8,20.2-17.2,27.8c0.9,0.6,1.5,0.1,2.3-0.3c5.5-3.3,10.7-7.2,15.5-11.5
			c18.2-16.1,22.1-39.5,10.3-60.7c-5.8-10.4-14.3-18.2-22.9-26.1C736.1,391.7,727.9,385.6,721.5,377.6z"/>
		<path id="XMLID_1636_" class="st1" d="M675.9,398.5c-14.6,18.8-14.1,41.2,1.1,59.4c6.7,8,15.6,13.3,23.8,19.5
			c12.8,9.7,24.2,20.5,26.6,38.4c1.2-8.6,1-16.3-0.8-23.9c-3-12.8-10.9-22.2-20.2-30.8c-5.4-5-10.9-9.8-15.4-15.6
			c-9.9-12.6-13.9-26.4-8.5-41.9c3-8.9,8.3-16.5,14.4-23.6C688.7,384.8,681.7,391,675.9,398.5z"/>
		<path id="XMLID_1635_" class="st1" d="M704.9,527.9c7.7,2.2,14.2,6.1,18.8,12.8c1.7,2.4,5.3,2.3,6.9-0.3c1.9-3,4.4-5.3,7.2-7.3
			c4-2.8,8.3-4.7,13.1-5.7c1.8-0.4,1.3-1.4,1.4-2.4c0.1-1.3-0.6-1.2-1.6-1.1c-14.5,1.5-29.1,2.1-43.7,0.4c-0.5,0-1-0.2-1.5,0
			c-1.3,0.5-3.2-1.8-3.8,0.9C700.9,528.1,703.6,527.5,704.9,527.9z"/>
	</g>
	<g id="XMLID_303_">
		<path id="XMLID_870_" class="st1" d="M608.6,703.6c-5.9-0.1-11-0.3-15.2-0.2c-11.4,0.2-17.1,2-19.8,10l0.7,0.3
			c2.2-4.2,4.9-7.8,16.6-8.1v40.6c-0.2,2.2-2.1,3.9-4.3,3.9h-0.9l0,0.7h22.8c14.4,0,24.2-9.4,24.2-23.6
			C632.8,713,623,703.9,608.6,703.6z M608.6,748.7h-13.2v-43.2h13.2c11.6,0.1,19.1,8.7,19.1,21.6
			C627.7,740.1,620.1,748.7,608.6,748.7z"/>
		<path id="XMLID_871_" class="st1" d="M658.7,748.7H649v-20.2h11.5c1.8,0.1,3.2,1.5,3.2,3.3v1l0.7,0v-10.7l-0.7,0v1
			c0,1.8-1.5,3.3-3.3,3.3H649v-20.8h13.7c2.1,0.1,3.8,1.9,3.8,4v1.2l0.7,0v-5.4v-1.1v-2c-1.2,0.5-5.1,1.2-8,1.2h-19.7l0,0.7h0.9
			c2.2,0,4.3,1.7,4.3,3.9v37.7c0,2.3-2,4.2-4.3,4.2h-0.9l0,0.7h27.9l3.9-10.9l-0.7,0C668.6,745,665.8,748.7,658.7,748.7z"/>
		<path id="XMLID_875_" class="st1" d="M685.9,718.6c-2.1-2-2.7-4.5-2.7-6.2c0-4.1,3.3-7.8,8.3-7.8c4.2,0,7.6,2.6,7.6,6.9h0.7v-8.3
			H697c-1.8-0.4-4-0.7-5.8-0.7c-7.7,0-11.8,5.7-11.8,11.4c0,2.6,0.9,5.9,3.7,8.4l12.9,12c1.7,1.6,2.6,3.6,2.6,6.3c0,5.4-4.1,8.8-9,9
			c-6,0.3-10.4-4.1-9.7-11.1h-0.6c-1,3-1.3,7.3-0.8,9.4c2.6,2.7,8.1,3.7,11.4,3.7c7.8,0,12.6-5.1,12.6-12.6c0-2.7-0.7-5.7-3.4-8.2
			L685.9,718.6z"/>
		<path id="XMLID_876_" class="st1" d="M724.3,704.3h0.9l0-0.7h-14.7l0,0.7h0.9c2.3,0,4.3,1.9,4.3,4.2v37.4c0,2.3-2,4.2-4.3,4.2
			h-0.9l0,0.7h14.7l0-0.7h-0.9c-2.4,0-4.3-1.9-4.3-4.2v-37.4C720.1,706.1,722,704.3,724.3,704.3z"/>
		<path id="XMLID_877_" class="st1" d="M766.8,728.8h1.1c2.2,0,3.5,1.1,3.5,3.1v11.9c-3.9,3.6-9.3,5.8-15.2,5.8
			c-11.4-0.1-19.2-9.1-19.2-22.5c0-13.5,7.7-22.5,19.2-22.5c8.9,0,15.1,4.3,17.1,12h0.6l-1.4-9.5c-4-2.5-8.9-4.6-16.3-4.6
			c-14.3,0-24.2,9.8-24.2,24.5c0,14.7,9.9,24.5,24.2,24.5c10.1,0,16.4-4.6,19.5-8.7v-11.1c0-1.9,1.2-3,3.4-3l1,0v-0.7h-13.2V728.8z"
			/>
		<path id="XMLID_878_" class="st1" d="M821.4,704.3h1.2c2.3,0,4.1,1.8,4.2,4.1v33.4l-36.7-39.2h-0.7c0,0,0.6,3.8,0.6,8.4v35
			c0,2.3-1.9,4.1-4.2,4.1h-1.2l0,0.7h13.9l0-0.7h-1.2c-2.3,0-4.1-1.8-4.2-4v-33.6l36.8,39.2h0.6c0,0-0.6-4.3-0.6-8.6v-34.8
			c0.1-2.2,1.9-4,4.2-4h1.2l0-0.7l-13.9,0L821.4,704.3z"/>
		<path id="XMLID_879_" class="st1" d="M849.8,718.6c-2.1-2-2.7-4.5-2.7-6.2c0-4.1,3.3-7.8,8.3-7.8c4.2,0,7.6,2.6,7.6,6.9h0.7v-8.3
			h-2.7c-1.8-0.4-4-0.7-5.8-0.7c-7.7,0-11.8,5.7-11.8,11.4c0,2.6,0.9,5.9,3.7,8.4l12.9,12c1.7,1.6,2.6,3.6,2.6,6.3
			c0,5.4-4.1,8.8-9,9c-6,0.3-10.4-4.1-9.7-11.1h-0.6c-1,3-1.3,7.3-0.8,9.4c2.6,2.7,8.1,3.7,11.4,3.7c7.8,0,12.6-5.1,12.6-12.6
			c0-2.7-0.7-5.7-3.4-8.2L849.8,718.6z"/>
		<polygon id="XMLID_882_" class="st1" points="562.2,731.4 562.2,725.8 286.5,728.6 		"/>
		<polygon id="XMLID_883_" class="st1" points="877.8,725.8 877.8,731.4 1153.5,728.6 		"/>
	</g>
	<g id="XMLID_304_">
		<g id="XMLID_396_">
			<path id="XMLID_421_" class="st0" d="M392.5,679.4c-27.6,32.2-87.1-8.9-104.6-10.1h-1.4l0-1.1l47.6-74.9h-38.2
				c-3.7,0.1-6.6,3.1-6.6,6.8v2l-1.1,0v-9.1v-1.9v-3.3c2.1,0.9,8.9,2.1,13.6,2h31.6c4.6,0,10.7-0.8,12-1.5v1l-49.4,78.1
				c3.9,1.1,7.6,2.4,12.1,3.9c46.5,15.3,63.5,15.7,83.9,7L392.5,679.4z"/>
			<path id="XMLID_419_" class="st0" d="M435,590.1v1.1h-1.8c-3.2,0-5.8,2.2-6,5.3v44.8c0,17.8-12.2,29.6-30.5,29.6
				c-18.8,0-31.4-11.8-31.4-29.4v-44.7c-0.1-3.3-2.7-5.6-6-5.6h-1.8v-1.1h23v1.1h-1.8c-3.2,0-5.8,2.3-6,5.4v43.2
				c0,16.5,9.6,27.5,24,27.5c15.1,0,25.2-10.4,25.2-26v-44.7c-0.1-3.2-2.8-5.5-6-5.5H414v-1.1L435,590.1z"/>
			<path id="XMLID_417_" class="st0" d="M501,651l-6.6,18.3h-47l0-1.1h1.4c4,0,7.2-3.2,7.3-7.1v-62.8c-0.1-3.9-3.3-7.1-7.3-7.1h-1.4
				l0-1.1h24.8l0,1.1h-1.4c-4,0-7.2,3.2-7.3,7.1v67.6h16.2c12,0,16.6-6.2,20.1-14.8L501,651z"/>
			<path id="XMLID_415_" class="st0" d="M571.3,590.1v1.1h-1.6c-4.7,0-8.9,3.1-11.4,6.6L535.9,634v27.1c0.1,3.9,3.3,7.1,7.3,7.1h1.4
				l0,1.1h-24.8l0-1.1h1.4c3.9,0,7.1-3.1,7.3-7.1v-27.3l-21.6-36c-2.2-3.5-6.7-6.6-11.4-6.6h-1.5v-1.1h27.9v1.1h-1.4
				c-3.3,0-5.6,3.8-4,7l17,31.7l18-31.7l0.1-0.1c1.8-3.2-1-6.9-4-6.9h-1.4v-1.1L571.3,590.1z"/>
			<path id="XMLID_413_" class="st0" d="M578.6,612.1c2.1-9.9,2.4-13.8,1.8-22.1l7.9-1.6c0.2,5.8-1.6,20.2-8.7,24.2L578.6,612.1z"/>
			<path id="XMLID_411_" class="st0" d="M635.5,635.9c4.5,4.2,5.7,9.2,5.7,13.8c0,12.5-8.2,21.2-21.2,21.2c-5.5,0-14.7-1.6-19.2-6.2
				c-0.8-3.5-0.4-10.7,1.3-15.8h1c-1.1,11.7,6.3,19.1,16.3,18.6c8.3-0.5,15.2-6.1,15.2-15.2c0-4.4-1.6-7.9-4.4-10.6l-21.7-20.1
				c-4.6-4.2-6.1-9.7-6.1-14c0-9.5,7-19.1,19.9-19.1c3,0,6.7,0.5,9.7,1.2h4.5v13.9h-1.1c0-7.2-5.7-11.7-12.7-11.7
				c-8.3,0-13.9,6.1-13.9,13c0,3,1,7.1,4.6,10.4L635.5,635.9z"/>
			<path id="XMLID_409_" class="st0" d="M766.2,626.9c1,29.3-15.1,44-40,44c-26.4,0-45.1-17.9-45.1-41.3c0-23.4,18.6-41.1,43.5-41.1
				c10.3,0,22,3.1,28.9,7.6l2.3,16h-0.9c-3.4-13.2-16.9-20.2-30.2-20.2c-20.2,0-35.1,16.1-35.1,37.5c0,21.4,14.8,38.2,37.1,38.2
				c22.4,0,38.3-15.1,38.3-40.6L766.2,626.9z"/>
			<path id="XMLID_406_" class="st0" d="M838.3,661.1c2.3,5,6.5,7.1,10,7.1h0.9v1.1h-25.5v-1.1h1c2.9,0,6-2.6,4.3-7.1l-7.2-19.3
				h-30.5l-7.6,19.4c-1.6,4.5,1.4,7,4.3,7h1v1.1h-22.8v-1.1h1c3.4,0,7.6-2.1,9.9-7.1l25.7-60.9c0,0,4.2-9.2,4.2-11.7h1L838.3,661.1z
				 M820.5,638.4l-13.7-36.3l-14.2,36.3H820.5z"/>
			<path id="XMLID_404_" class="st0" d="M938.2,590.1l0,1.1h-2.1c-3.8,0-6.9,3-7,6.8v58.5c0,7.3,1,14.4,1,14.4h-1L867.3,605v56.4
				c0.1,3.8,3.2,6.8,7,6.8h2.1l0,1.1h-23.3l0-1.1h2.1c3.8,0,6.9-3.1,7-6.9v-58.8c0-7.7-1-14.1-1-14.1h1.1l61.7,65.9v-56.2
				c-0.1-3.8-3.2-6.9-7-6.9h-2.1l0-1.1L938.2,590.1z"/>
			<path id="XMLID_401_" class="st0" d="M987.2,590.1c24.2,0,40.7,15.9,40.7,39.7c0,23.8-16.5,39.6-40.7,39.6h-38.3l0-1.1h1.4
				c4,0,7.2-3.2,7.3-7.1v-63.4c0-3.6-3.5-6.5-7.2-6.5h-1.4l0-1.1L987.2,590.1z M965,665.9h22.3c19.4,0,32.2-14.5,32.2-36.2
				c0-21.8-12.9-36.3-32.2-36.3H965V665.9z"/>
			<path id="XMLID_399_" class="st0" d="M1091.6,651l-6.6,18.3h-47l0-1.1h1.4c4,0,7.2-3.2,7.3-7.1v-62.8c-0.1-3.9-3.3-7.1-7.3-7.1
				h-1.4l0-1.1h24.8l0,1.1h-1.4c-4,0-7.2,3.2-7.3,7.1v67.6h16.2c12,0,16.6-6.2,20.1-14.8L1091.6,651z"/>
			<path id="XMLID_397_" class="st0" d="M1153.5,651l-6.6,18.3h-47l0-1.1h1.4c4,0,7.2-3.2,7.3-7.1v-63.4c0-3.6-3.5-6.5-7.2-6.5h-1.4
				l0-1.1h33.1c4.9,0,11.4-1.2,13.5-2.1v3.3v1.9v9.1l-1.1,0v-2c0-3.6-2.8-6.5-6.3-6.7H1116v35h19.1c3-0.1,5.5-2.5,5.5-5.6v-1.7
				l1.1,0v17.9l-1.1,0v-1.7c0-3-2.4-5.5-5.4-5.6H1116v33.9h16.2c12,0,16.6-6.2,20.1-14.8L1153.5,651z"/>
		</g>
	</g>
</g>
</svg>
